<svg width="280" height="169" viewBox="0 0 280 169" fill="none" xmlns="http://www.w3.org/2000/svg">
<rect y="0.51123" width="279.049" height="167.54" rx="10" fill="url(#paint0_linear_237_30)"/>
<mask id="mask0_237_30" style="mask-type:alpha" maskUnits="userSpaceOnUse" x="0" y="0" width="280" height="169">
<rect y="0.51123" width="279.049" height="167.54" rx="10" fill="#ED713C"/>
</mask>
<g mask="url(#mask0_237_30)">
<ellipse opacity="0.1" cx="21.704" cy="131.69" rx="142.182" ry="100.103" fill="black"/>
<ellipse opacity="0.08" cx="257.345" cy="-82.6903" rx="142.182" ry="100.103" fill="black"/>
</g>
<path fill-rule="evenodd" clip-rule="evenodd" d="M42.378 139.88C42.378 138.274 42.396 133.984 42.3551 133.455C42.3908 127.07 37.5909 122.566 34.5585 122.917C32.4602 123.093 30.7013 123.921 29.7575 126.301C28.8819 128.52 29.6647 131.471 32.5743 132.163C35.6852 132.907 37.5023 133.526 38.817 134.399C40.428 135.467 41.7431 137.509 41.7781 139.882" fill="white"/>
<path fill-rule="evenodd" clip-rule="evenodd" d="M41.0779 139.883C41.088 137.825 39.9005 136.005 38.3485 135.027C36.9718 134.163 35.1235 133.596 32.1418 132.864C31.2202 132.636 30.256 132.129 29.9576 131.484C29.168 132.253 29.0246 133.983 29.1635 134.994C29.325 136.164 30.7385 138.092 32.8668 138.168C34.1665 138.218 35.8098 137.897 36.5979 137.735C37.9573 137.451 40.1082 138.275 40.4505 139.88" fill="white"/>
<path fill-rule="evenodd" clip-rule="evenodd" d="M43.4773 112.967C39.8683 112.967 36.7515 115.269 36.7624 119.252C36.7736 122.601 39.5586 124.394 40.5527 125.674C42.0545 127.604 42.8673 129.888 42.9514 133.383C43.0174 136.165 43.0141 138.912 43.0287 139.885H43.825C43.8115 138.867 43.7754 135.951 43.8164 133.297C43.8704 129.801 44.7125 127.604 46.215 125.674C47.2178 124.394 50.0001 122.601 50.0061 119.252C50.02 115.269 46.9043 112.967 43.299 112.967" fill="white"/>
<path fill-rule="evenodd" clip-rule="evenodd" d="M44.3932 139.88C44.3932 138.274 44.3744 133.984 44.4146 133.455C44.3793 127.07 49.1762 122.566 52.2112 122.917C54.3095 123.093 56.0661 123.921 57.013 126.301C57.8874 128.52 57.1005 131.471 54.1946 132.163C51.0815 132.907 49.267 133.526 47.9489 134.399C46.3398 135.467 45.1166 137.509 45.0791 139.882" fill="white"/>
<path fill-rule="evenodd" clip-rule="evenodd" d="M45.6927 139.883C45.6814 137.825 46.8686 136.005 48.4161 135.027C49.7988 134.163 51.649 133.596 54.628 132.864C55.5516 132.636 56.5146 132.129 56.8078 131.484C57.6011 132.253 57.7445 133.983 57.6052 134.994C57.4408 136.164 56.0306 138.092 53.9061 138.168C52.6071 138.218 50.9548 137.897 50.1701 137.735C48.8159 137.451 46.6591 138.275 46.3152 139.88" fill="white"/>
<path fill-rule="evenodd" clip-rule="evenodd" d="M46.8058 146.524L46.3444 143.266L47.459 143.102C47.7301 143.067 48.0605 143.112 48.1926 143.276C48.3387 143.448 48.3834 143.59 48.4115 143.815C48.4539 144.094 48.3706 144.416 48.0462 144.576V144.586C48.4081 144.586 48.627 144.838 48.6908 145.262C48.6998 145.353 48.7276 145.569 48.6998 145.75C48.6263 146.18 48.3612 146.319 47.9129 146.379L46.8058 146.524ZM47.523 145.941C47.6552 145.923 47.7892 145.916 47.894 145.851C48.0546 145.75 48.04 145.534 48.0175 145.372C47.9619 145.019 47.8665 144.885 47.4787 144.94L47.2347 144.976L47.3894 145.959L47.523 145.941ZM47.29 144.435C47.4376 144.413 47.6373 144.395 47.7207 144.26C47.7646 144.169 47.8201 144.097 47.7834 143.896C47.7379 143.658 47.6565 143.51 47.343 143.567L47.0512 143.613L47.1665 144.448L47.29 144.435Z" fill="white"/>
<path fill-rule="evenodd" clip-rule="evenodd" d="M51.6346 144.564C51.6432 144.625 51.6533 144.693 51.6571 144.753C51.7472 145.347 51.6346 145.84 50.9438 145.975C49.9222 146.165 49.7266 145.552 49.5471 144.693L49.4514 144.227C49.3106 143.406 49.2502 142.783 50.2458 142.591C50.8071 142.493 51.178 142.709 51.3323 143.249C51.3564 143.33 51.3864 143.409 51.3977 143.49L50.7868 143.612C50.7162 143.409 50.6228 143.046 50.3479 143.077C49.8546 143.135 50.0176 143.728 50.0682 143.976L50.2518 144.868C50.307 145.138 50.4166 145.569 50.8435 145.486C51.19 145.419 51.0387 144.897 51.008 144.682" fill="white"/>
<path fill-rule="evenodd" clip-rule="evenodd" d="M52.6146 145.551L52.4036 142.178L53.2239 141.936L54.9445 144.869L54.2984 145.056L53.8907 144.311L53.1732 144.519L53.2659 145.367L52.6146 145.551ZM53.1131 143.974L53.6316 143.829L52.943 142.465L53.1131 143.974Z" fill="white"/>
<path fill-rule="evenodd" clip-rule="evenodd" d="M32.3441 143.001C32.6009 142.206 32.8306 141.621 33.8109 141.881C34.3354 142.023 34.6605 142.246 34.6451 142.835C34.6425 142.966 34.5978 143.1 34.5685 143.23L33.9584 143.067C34.0384 142.741 34.0891 142.483 33.6746 142.36C33.1956 142.232 33.0788 142.795 33.0127 143.037L32.7646 143.921C32.6857 144.183 32.5911 144.617 33.0127 144.73C33.3611 144.82 33.5721 144.489 33.6983 144.007L33.2718 143.897L33.4193 143.386L34.4228 143.698L33.9464 145.402L33.4846 145.28L33.5886 144.92H33.5755C33.3626 145.215 33.1036 145.246 32.8764 145.203C31.8729 144.941 31.9777 144.307 32.2172 143.459" fill="white"/>
<path fill-rule="evenodd" clip-rule="evenodd" d="M36.0794 144.44L35.7772 145.827L35.0969 145.685L35.8219 142.448L36.9816 142.701C37.6604 142.843 37.8654 143.135 37.7692 143.737C37.7144 144.082 37.5384 144.454 37.1085 144.424L37.104 144.418C37.4674 144.541 37.4982 144.719 37.4347 145.025C37.4073 145.155 37.2185 145.946 37.3488 146.074L37.3533 146.171L36.6493 145.993C36.62 145.775 36.7199 145.38 36.7593 145.162C36.7988 144.968 36.8622 144.696 36.6595 144.594C36.501 144.512 36.4417 144.516 36.2623 144.476L36.0794 144.44ZM36.1956 143.938L36.6536 144.058C36.9318 144.097 37.0865 143.958 37.1413 143.632C37.1909 143.334 37.1267 143.218 36.877 143.161L36.386 143.064L36.1956 143.938Z" fill="white"/>
<path fill-rule="evenodd" clip-rule="evenodd" d="M40.4428 143.17L41.1156 143.246L40.8258 145.522C40.685 146.244 40.3967 146.559 39.576 146.46C38.741 146.358 38.5428 145.991 38.5931 145.263L38.8852 142.989L39.5632 143.064L39.2722 145.287C39.2411 145.529 39.1836 145.886 39.6274 145.93C40.0212 145.959 40.1106 145.706 40.1553 145.392" fill="white"/>
<path fill-rule="evenodd" clip-rule="evenodd" d="M41.8572 146.585L42.0599 143.33L43.3521 143.384C43.9633 143.414 44.1229 143.896 44.1041 144.356C44.0861 144.636 43.996 144.949 43.7437 145.119C43.5368 145.263 43.2707 145.297 43.0244 145.285L42.6032 145.263L42.5191 146.627L41.8572 146.585ZM42.6219 144.766L42.9643 144.784C43.2425 144.794 43.4268 144.688 43.4509 144.293C43.4648 143.914 43.3161 143.85 42.9557 143.834L42.6846 143.825L42.6219 144.766Z" fill="white"/>
<path fill-rule="evenodd" clip-rule="evenodd" d="M133.024 116.112L127.887 125.131C125.948 123.607 123.58 122.487 120.559 122.487C113.41 122.487 110.505 127.641 110.505 131.271C110.505 133.966 112.33 137.942 118.691 137.942C121.362 137.942 125.157 136.146 126.25 135.328L121.169 145.791C118.747 146.258 117.951 146.548 115.902 146.61C104.515 146.938 99.9148 140.173 99.9178 133.262C99.9257 124.124 108.326 113.011 122.252 113.011C123.105 113.011 124.148 113.297 125.041 113.613L125.943 112.497" fill="white"/>
<path fill-rule="evenodd" clip-rule="evenodd" d="M154.222 112.78L155.677 145.557H144.85L144.844 139.936H137.461L135.032 145.557H123.29L135.566 122.152L132.798 122.134L138.057 112.78H154.222ZM144.774 122.808L140.6 132.342H144.9L144.774 122.808Z" fill="white"/>
<path fill-rule="evenodd" clip-rule="evenodd" d="M93.0827 112.78C98.4443 112.809 101.474 115.624 101.474 119.69C101.474 123.438 98.2787 126.756 94.771 128.471C98.3823 129.756 98.6947 132.907 98.6947 135.137C98.6947 140.524 93.106 145.557 85.841 145.557H69.9966L76.177 122.478L73.6383 122.464L78.8279 112.78C78.8279 112.78 88.7228 112.751 93.0827 112.78ZM87.8226 126.07C88.9316 126.07 90.8899 125.798 91.3795 123.722C91.9159 121.468 90.0782 121.408 89.1967 121.408L86.0468 121.395L84.9483 126.07H87.8226ZM83.3689 131.862L81.9186 137.249H85.6279C87.0868 137.249 89.0755 136.548 89.5628 134.795C90.0441 133.037 88.6539 131.862 87.2002 131.862H83.3689Z" fill="white"/>
<path fill-rule="evenodd" clip-rule="evenodd" d="M43.6199 149.584C38.1337 149.584 32.4962 148.277 26.8658 145.693L26.7276 145.627L26.6615 145.491C24.1349 140.333 22.7983 134.692 22.7983 129.172C22.7983 123.66 24.0801 118.26 26.6082 113.109L26.6781 112.972L26.8189 112.903C32.0272 110.517 37.6298 109.309 43.4772 109.309C48.9236 109.309 54.7409 110.654 60.2966 113.207L60.4389 113.268L60.505 113.407C63.0797 118.661 64.4376 124.301 64.4376 129.73C64.4376 135.136 63.1337 140.542 60.5556 145.792L60.4881 145.929L60.3447 145.993C55.2155 148.341 49.4319 149.584 43.6199 149.584ZM27.3869 144.986C32.8563 147.474 38.3117 148.73 43.6199 148.73C49.2484 148.73 54.8457 147.541 59.8289 145.285C62.3041 140.198 63.5588 134.962 63.5588 129.73C63.5588 124.475 62.2493 119.01 59.7722 113.911C54.3806 111.46 48.7498 110.16 43.4772 110.16C37.8165 110.16 32.3903 111.322 27.3396 113.613C24.9151 118.605 23.681 123.837 23.681 129.172C23.681 134.516 24.9631 139.984 27.3869 144.986Z" fill="white"/>
<path d="M134.54 38V23.9H139.78C142.14 23.9 143.96 24.5067 145.24 25.72C146.533 26.9333 147.18 28.6733 147.18 30.94C147.18 33.1933 146.533 34.9333 145.24 36.16C143.96 37.3867 142.14 38 139.78 38H134.54ZM137.1 35.88H139.62C142.873 35.88 144.5 34.2333 144.5 30.94C144.5 27.66 142.873 26.02 139.62 26.02H137.1V35.88ZM149.374 26.12V23.68H152.174V26.12H149.374ZM149.534 38V28.22H152.034V38H149.534ZM158.212 38.2C157.385 38.2 156.612 38.1 155.892 37.9C155.172 37.7 154.572 37.4133 154.092 37.04L154.732 35.4C155.225 35.7333 155.779 35.9933 156.392 36.18C157.005 36.3533 157.619 36.44 158.232 36.44C158.872 36.44 159.345 36.3333 159.652 36.12C159.972 35.8933 160.132 35.6 160.132 35.24C160.132 34.68 159.719 34.32 158.892 34.16L156.892 33.78C155.199 33.46 154.352 32.58 154.352 31.14C154.352 30.5 154.525 29.9467 154.872 29.48C155.232 29.0133 155.725 28.6533 156.352 28.4C156.979 28.1467 157.699 28.02 158.512 28.02C159.205 28.02 159.872 28.12 160.512 28.32C161.152 28.5067 161.699 28.7933 162.152 29.18L161.472 30.82C161.085 30.5 160.619 30.2467 160.072 30.06C159.539 29.8733 159.025 29.78 158.532 29.78C157.879 29.78 157.392 29.8933 157.072 30.12C156.765 30.3467 156.612 30.6467 156.612 31.02C156.612 31.6067 156.992 31.9667 157.752 32.1L159.752 32.48C160.619 32.64 161.272 32.9333 161.712 33.36C162.165 33.7867 162.392 34.36 162.392 35.08C162.392 36.0533 162.012 36.82 161.252 37.38C160.492 37.9267 159.479 38.2 158.212 38.2ZM168.918 38.2C167.891 38.2 166.998 37.9933 166.238 37.58C165.478 37.1533 164.891 36.5533 164.478 35.78C164.064 35.0067 163.858 34.1 163.858 33.06C163.858 32.02 164.064 31.1267 164.478 30.38C164.891 29.62 165.478 29.04 166.238 28.64C166.998 28.2267 167.891 28.02 168.918 28.02C169.544 28.02 170.164 28.12 170.778 28.32C171.391 28.52 171.898 28.8 172.298 29.16L171.558 30.9C171.211 30.5933 170.818 30.36 170.378 30.2C169.951 30.04 169.538 29.96 169.138 29.96C168.271 29.96 167.598 30.2333 167.118 30.78C166.651 31.3133 166.418 32.08 166.418 33.08C166.418 34.0667 166.651 34.8467 167.118 35.42C167.598 35.98 168.271 36.26 169.138 36.26C169.524 36.26 169.938 36.18 170.378 36.02C170.818 35.86 171.211 35.62 171.558 35.3L172.298 37.06C171.898 37.4067 171.384 37.6867 170.758 37.9C170.144 38.1 169.531 38.2 168.918 38.2ZM178.096 38.2C177.083 38.2 176.203 37.9933 175.456 37.58C174.709 37.1667 174.129 36.58 173.716 35.82C173.303 35.0467 173.096 34.14 173.096 33.1C173.096 32.06 173.303 31.16 173.716 30.4C174.129 29.64 174.709 29.0533 175.456 28.64C176.203 28.2267 177.083 28.02 178.096 28.02C179.109 28.02 179.989 28.2267 180.736 28.64C181.483 29.0533 182.063 29.64 182.476 30.4C182.889 31.16 183.096 32.06 183.096 33.1C183.096 34.14 182.889 35.0467 182.476 35.82C182.063 36.58 181.483 37.1667 180.736 37.58C179.989 37.9933 179.109 38.2 178.096 38.2ZM178.096 36.3C178.843 36.3 179.443 36.0333 179.896 35.5C180.349 34.9533 180.576 34.1533 180.576 33.1C180.576 32.0333 180.349 31.24 179.896 30.72C179.443 30.1867 178.843 29.92 178.096 29.92C177.349 29.92 176.749 30.1867 176.296 30.72C175.843 31.24 175.616 32.0333 175.616 33.1C175.616 34.1533 175.843 34.9533 176.296 35.5C176.749 36.0333 177.349 36.3 178.096 36.3ZM188.699 38.2C186.299 38.2 185.099 36.8533 185.099 34.16V28.22H187.599V34.2C187.599 34.8933 187.739 35.4067 188.019 35.74C188.299 36.0733 188.746 36.24 189.359 36.24C190.026 36.24 190.573 36.0133 190.999 35.56C191.426 35.0933 191.639 34.48 191.639 33.72V28.22H194.139V38H191.699V36.54C191.046 37.6467 190.046 38.2 188.699 38.2ZM196.741 38V28.22H199.181V29.74C199.515 29.18 199.961 28.7533 200.521 28.46C201.095 28.1667 201.735 28.02 202.441 28.02C204.748 28.02 205.901 29.36 205.901 32.04V38H203.401V32.16C203.401 31.4 203.255 30.8467 202.961 30.5C202.681 30.1533 202.241 29.98 201.641 29.98C200.908 29.98 200.321 30.2133 199.881 30.68C199.455 31.1333 199.241 31.74 199.241 32.5V38H196.741ZM212.921 38.2C210.334 38.2 209.041 36.92 209.041 34.36V30.1H207.161V28.22H209.041V25.3H211.541V28.22H214.501V30.1H211.541V34.22C211.541 34.86 211.681 35.34 211.961 35.66C212.241 35.98 212.694 36.14 213.321 36.14C213.507 36.14 213.701 36.12 213.901 36.08C214.101 36.0267 214.307 35.9733 214.521 35.92L214.901 37.76C214.661 37.8933 214.354 38 213.981 38.08C213.621 38.16 213.267 38.2 212.921 38.2ZM221.807 38V36.1L226.367 31.24C226.98 30.5733 227.42 29.9867 227.687 29.48C227.954 28.96 228.087 28.4333 228.087 27.9C228.087 26.54 227.267 25.86 225.627 25.86C224.347 25.86 223.167 26.34 222.087 27.3L221.227 25.38C221.787 24.8733 222.487 24.4667 223.327 24.16C224.167 23.8533 225.04 23.7 225.947 23.7C227.454 23.7 228.607 24.04 229.407 24.72C230.22 25.4 230.627 26.3733 230.627 27.64C230.627 28.4933 230.42 29.3133 230.007 30.1C229.607 30.8867 228.974 31.7333 228.107 32.64L225.007 35.88H231.167V38H221.807ZM238.199 38.2C236.533 38.2 235.259 37.5733 234.379 36.32C233.499 35.0533 233.059 33.2533 233.059 30.92C233.059 28.56 233.499 26.7667 234.379 25.54C235.259 24.3133 236.533 23.7 238.199 23.7C239.879 23.7 241.153 24.3133 242.019 25.54C242.899 26.7667 243.339 28.5533 243.339 30.9C243.339 33.2467 242.899 35.0533 242.019 36.32C241.139 37.5733 239.866 38.2 238.199 38.2ZM238.199 36.1C239.106 36.1 239.773 35.6867 240.199 34.86C240.639 34.02 240.859 32.7 240.859 30.9C240.859 29.1133 240.639 27.82 240.199 27.02C239.773 26.2067 239.106 25.8 238.199 25.8C237.306 25.8 236.639 26.2067 236.199 27.02C235.759 27.82 235.539 29.1133 235.539 30.9C235.539 32.7 235.759 34.02 236.199 34.86C236.639 35.6867 237.306 36.1 238.199 36.1ZM250.351 38.56L248.711 37.6L256.951 23.34L258.571 24.3L250.351 38.56ZM248.631 32.32C247.511 32.32 246.638 31.9333 246.011 31.16C245.385 30.3867 245.071 29.3333 245.071 28C245.071 26.6667 245.385 25.62 246.011 24.86C246.638 24.0867 247.511 23.7 248.631 23.7C249.751 23.7 250.625 24.0867 251.251 24.86C251.878 25.62 252.191 26.6667 252.191 28C252.191 29.3333 251.878 30.3867 251.251 31.16C250.625 31.9333 249.751 32.32 248.631 32.32ZM248.631 30.64C249.111 30.64 249.485 30.4267 249.751 30C250.018 29.56 250.151 28.8933 250.151 28C250.151 27.1067 250.018 26.4467 249.751 26.02C249.485 25.5933 249.111 25.38 248.631 25.38C248.151 25.38 247.778 25.5933 247.511 26.02C247.245 26.4333 247.111 27.0933 247.111 28C247.111 28.9067 247.245 29.5733 247.511 30C247.778 30.4267 248.151 30.64 248.631 30.64ZM258.671 38.2C257.551 38.2 256.678 37.8133 256.051 37.04C255.425 36.2667 255.111 35.2133 255.111 33.88C255.111 32.5467 255.425 31.5 256.051 30.74C256.678 29.9667 257.551 29.58 258.671 29.58C259.791 29.58 260.665 29.9667 261.291 30.74C261.918 31.5 262.231 32.5467 262.231 33.88C262.231 35.2133 261.918 36.2667 261.291 37.04C260.665 37.8133 259.791 38.2 258.671 38.2ZM258.671 36.52C259.151 36.52 259.525 36.3067 259.791 35.88C260.058 35.44 260.191 34.7733 260.191 33.88C260.191 32.9867 260.058 32.3267 259.791 31.9C259.525 31.4733 259.151 31.26 258.671 31.26C258.191 31.26 257.818 31.4733 257.551 31.9C257.285 32.3133 257.151 32.9733 257.151 33.88C257.151 34.7867 257.285 35.4533 257.551 35.88C257.818 36.3067 258.191 36.52 258.671 36.52Z" fill="white"/>
<defs>
<linearGradient id="paint0_linear_237_30" x1="140.487" y1="-27.2651" x2="146.769" y2="189.016" gradientUnits="userSpaceOnUse">
<stop/>
<stop offset="1" stop-color="#3A49F9"/>
</linearGradient>
</defs>
</svg>
