<svg width="280" height="169" viewBox="0 0 280 169" fill="none" xmlns="http://www.w3.org/2000/svg">
<rect y="0.51123" width="279.05" height="167.54" rx="10" fill="url(#paint0_linear_237_71)"/>
<mask id="mask0_237_71" style="mask-type:alpha" maskUnits="userSpaceOnUse" x="0" y="0" width="280" height="169">
<rect y="0.51123" width="279.05" height="167.54" rx="10" fill="#ED713C"/>
</mask>
<g mask="url(#mask0_237_71)">
<ellipse opacity="0.1" cx="21.7041" cy="131.69" rx="142.183" ry="100.103" fill="black"/>
<ellipse opacity="0.08" cx="257.346" cy="-82.6903" rx="142.183" ry="100.103" fill="black"/>
</g>
<path fill-rule="evenodd" clip-rule="evenodd" d="M62.9854 122.379H71.0037C74.2507 122.379 76.6713 123.853 76.6713 126.956C76.6713 129.231 75.5492 130.498 73.5999 131.169V131.22C75.9232 131.713 77.1221 133.006 77.1221 135.202C77.1221 139.521 73.4494 140.425 70.3278 140.425H62.9854V122.379ZM67.6296 129.515H68.9296C70.4532 129.515 72.0276 129.127 72.0276 127.6C72.0276 125.947 70.5284 125.791 68.9783 125.791H67.6296V129.515ZM67.6296 137.012H69.0056C70.7025 137.012 72.4754 136.754 72.4754 134.918C72.4754 132.954 70.6531 132.772 69.0543 132.772H67.6296V137.012Z" fill="white"/>
<path fill-rule="evenodd" clip-rule="evenodd" d="M83.2193 122.379H88.9143L95.6333 140.425H90.5374L89.2396 136.574H82.6955L81.3209 140.425H76.6006L83.2193 122.379ZM86.068 126.103H86.0155L83.769 133.161H88.1396L86.068 126.103Z" fill="white"/>
<path fill-rule="evenodd" clip-rule="evenodd" d="M96.2803 122.379H102.2L108.094 134.635H108.143L108.069 122.379H112.317V140.425H106.547L100.45 128.093H100.402L100.551 140.425H96.2803V122.379Z" fill="white"/>
<path fill-rule="evenodd" clip-rule="evenodd" d="M113.894 122.379H118.539V129.75H118.589L123.832 122.379H129.429L122.984 130.781L129.929 140.425H124.007L118.589 132.23H118.539V140.425H113.894V122.379Z" fill="white"/>
<path fill-rule="evenodd" clip-rule="evenodd" d="M135.688 122.379H143.707C146.953 122.379 149.377 123.853 149.377 126.956C149.377 129.231 148.255 130.498 146.305 131.169V131.22C148.628 131.713 149.827 133.006 149.827 135.202C149.827 139.521 146.155 140.425 143.034 140.425H135.688V122.379ZM140.335 129.515H141.633C143.157 129.515 144.729 129.127 144.729 127.6C144.729 125.947 143.232 125.791 141.684 125.791H140.335V129.515ZM140.335 137.012H141.709C143.406 137.012 145.181 136.754 145.181 134.918C145.181 132.954 143.358 132.772 141.759 132.772H140.335V137.012Z" fill="white"/>
<path fill-rule="evenodd" clip-rule="evenodd" d="M150.856 122.379H159.149C162.245 122.379 164.769 123.826 164.769 126.931C164.769 129.335 163.67 130.938 161.423 131.48V131.531C162.918 131.946 163.02 133.315 163.894 135.513L165.593 140.425H160.748L159.749 137.17C158.799 134.067 158.199 133.289 156.476 133.289H155.501V140.425H150.856V122.379ZM155.501 129.877H156.726C158.224 129.877 160.123 129.824 160.123 127.782C160.123 126.102 158.498 125.791 156.726 125.791H155.501V129.877Z" fill="white"/>
<mask id="mask1_237_71" style="mask-type:alpha" maskUnits="userSpaceOnUse" x="22" y="113" width="150" height="37">
<path fill-rule="evenodd" clip-rule="evenodd" d="M22.7261 149.538H171.518V113.278H22.7261V149.538Z" fill="white"/>
</mask>
<g mask="url(#mask1_237_71)">
<path fill-rule="evenodd" clip-rule="evenodd" d="M166.873 140.425H171.518V122.379H166.873V140.425Z" fill="white"/>
<path fill-rule="evenodd" clip-rule="evenodd" d="M52.3835 113.278H28.0694C25.1181 113.278 22.7256 115.816 22.7256 118.947V119.007V143.871C22.7256 146.972 25.074 149.492 27.9872 149.539H52.3706C55.3226 149.539 57.7159 147.001 57.7159 143.871L57.7273 118.947C57.7273 115.816 55.3356 113.278 52.3835 113.278ZM30.96 146.633L29.6333 146.648C28.0277 146.648 26.7262 145.283 26.7262 143.598L26.7186 143.358V120.34L26.7269 119.101C26.787 117.471 27.9836 116.158 29.5512 116.158H32.2478C34.6913 116.158 36.6732 118.357 36.6732 120.953C36.6732 122.235 36.1874 123.4 35.4006 124.247L28.5203 131.473L34.9687 138.27C35.8005 139.157 36.303 140.323 36.303 141.6C36.303 144.38 33.9105 146.633 30.96 146.633ZM50.7841 146.61L38.7616 146.605C38.7616 146.605 40.1521 143.495 40.1521 141.57C40.1521 139.223 39.3934 137.126 38.2066 135.739L34.0945 131.4L38.2918 126.911C39.5409 125.695 40.3711 123.538 40.3711 121.08C40.3711 119.134 39.8511 117.41 39.014 116.158H41.9273C44.3715 116.158 46.3534 118.357 46.3534 120.953C46.3534 122.235 45.8684 123.4 45.0815 124.247L38.3328 131.398L52.3495 146.192C51.9055 146.482 51.3452 146.61 50.7841 146.61ZM53.7199 141.991L43.6748 131.394L48.459 126.361C49.4337 125.101 50.051 123.202 50.051 121.079C50.051 119.121 49.5234 117.355 48.6787 116.102L50.8204 116.168C52.426 116.168 53.7275 117.536 53.7275 119.22L53.7199 141.991Z" fill="white"/>
</g>
<path d="M137.54 38V23.9H142.78C145.14 23.9 146.96 24.5067 148.24 25.72C149.533 26.9333 150.18 28.6733 150.18 30.94C150.18 33.1933 149.533 34.9333 148.24 36.16C146.96 37.3867 145.14 38 142.78 38H137.54ZM140.1 35.88H142.62C145.873 35.88 147.5 34.2333 147.5 30.94C147.5 27.66 145.873 26.02 142.62 26.02H140.1V35.88ZM152.374 26.12V23.68H155.174V26.12H152.374ZM152.534 38V28.22H155.034V38H152.534ZM161.212 38.2C160.385 38.2 159.612 38.1 158.892 37.9C158.172 37.7 157.572 37.4133 157.092 37.04L157.732 35.4C158.225 35.7333 158.779 35.9933 159.392 36.18C160.005 36.3533 160.619 36.44 161.232 36.44C161.872 36.44 162.345 36.3333 162.652 36.12C162.972 35.8933 163.132 35.6 163.132 35.24C163.132 34.68 162.719 34.32 161.892 34.16L159.892 33.78C158.199 33.46 157.352 32.58 157.352 31.14C157.352 30.5 157.525 29.9467 157.872 29.48C158.232 29.0133 158.725 28.6533 159.352 28.4C159.979 28.1467 160.699 28.02 161.512 28.02C162.205 28.02 162.872 28.12 163.512 28.32C164.152 28.5067 164.699 28.7933 165.152 29.18L164.472 30.82C164.085 30.5 163.619 30.2467 163.072 30.06C162.539 29.8733 162.025 29.78 161.532 29.78C160.879 29.78 160.392 29.8933 160.072 30.12C159.765 30.3467 159.612 30.6467 159.612 31.02C159.612 31.6067 159.992 31.9667 160.752 32.1L162.752 32.48C163.619 32.64 164.272 32.9333 164.712 33.36C165.165 33.7867 165.392 34.36 165.392 35.08C165.392 36.0533 165.012 36.82 164.252 37.38C163.492 37.9267 162.479 38.2 161.212 38.2ZM171.918 38.2C170.891 38.2 169.998 37.9933 169.238 37.58C168.478 37.1533 167.891 36.5533 167.478 35.78C167.064 35.0067 166.858 34.1 166.858 33.06C166.858 32.02 167.064 31.1267 167.478 30.38C167.891 29.62 168.478 29.04 169.238 28.64C169.998 28.2267 170.891 28.02 171.918 28.02C172.544 28.02 173.164 28.12 173.778 28.32C174.391 28.52 174.898 28.8 175.298 29.16L174.558 30.9C174.211 30.5933 173.818 30.36 173.378 30.2C172.951 30.04 172.538 29.96 172.138 29.96C171.271 29.96 170.598 30.2333 170.118 30.78C169.651 31.3133 169.418 32.08 169.418 33.08C169.418 34.0667 169.651 34.8467 170.118 35.42C170.598 35.98 171.271 36.26 172.138 36.26C172.524 36.26 172.938 36.18 173.378 36.02C173.818 35.86 174.211 35.62 174.558 35.3L175.298 37.06C174.898 37.4067 174.384 37.6867 173.758 37.9C173.144 38.1 172.531 38.2 171.918 38.2ZM181.096 38.2C180.083 38.2 179.203 37.9933 178.456 37.58C177.709 37.1667 177.129 36.58 176.716 35.82C176.303 35.0467 176.096 34.14 176.096 33.1C176.096 32.06 176.303 31.16 176.716 30.4C177.129 29.64 177.709 29.0533 178.456 28.64C179.203 28.2267 180.083 28.02 181.096 28.02C182.109 28.02 182.989 28.2267 183.736 28.64C184.483 29.0533 185.063 29.64 185.476 30.4C185.889 31.16 186.096 32.06 186.096 33.1C186.096 34.14 185.889 35.0467 185.476 35.82C185.063 36.58 184.483 37.1667 183.736 37.58C182.989 37.9933 182.109 38.2 181.096 38.2ZM181.096 36.3C181.843 36.3 182.443 36.0333 182.896 35.5C183.349 34.9533 183.576 34.1533 183.576 33.1C183.576 32.0333 183.349 31.24 182.896 30.72C182.443 30.1867 181.843 29.92 181.096 29.92C180.349 29.92 179.749 30.1867 179.296 30.72C178.843 31.24 178.616 32.0333 178.616 33.1C178.616 34.1533 178.843 34.9533 179.296 35.5C179.749 36.0333 180.349 36.3 181.096 36.3ZM191.699 38.2C189.299 38.2 188.099 36.8533 188.099 34.16V28.22H190.599V34.2C190.599 34.8933 190.739 35.4067 191.019 35.74C191.299 36.0733 191.746 36.24 192.359 36.24C193.026 36.24 193.573 36.0133 193.999 35.56C194.426 35.0933 194.639 34.48 194.639 33.72V28.22H197.139V38H194.699V36.54C194.046 37.6467 193.046 38.2 191.699 38.2ZM199.741 38V28.22H202.181V29.74C202.515 29.18 202.961 28.7533 203.521 28.46C204.095 28.1667 204.735 28.02 205.441 28.02C207.748 28.02 208.901 29.36 208.901 32.04V38H206.401V32.16C206.401 31.4 206.255 30.8467 205.961 30.5C205.681 30.1533 205.241 29.98 204.641 29.98C203.908 29.98 203.321 30.2133 202.881 30.68C202.455 31.1333 202.241 31.74 202.241 32.5V38H199.741ZM215.921 38.2C213.334 38.2 212.041 36.92 212.041 34.36V30.1H210.161V28.22H212.041V25.3H214.541V28.22H217.501V30.1H214.541V34.22C214.541 34.86 214.681 35.34 214.961 35.66C215.241 35.98 215.694 36.14 216.321 36.14C216.507 36.14 216.701 36.12 216.901 36.08C217.101 36.0267 217.307 35.9733 217.521 35.92L217.901 37.76C217.661 37.8933 217.354 38 216.981 38.08C216.621 38.16 216.267 38.2 215.921 38.2ZM224.807 38V36.1L229.367 31.24C229.98 30.5733 230.42 29.9867 230.687 29.48C230.954 28.96 231.087 28.4333 231.087 27.9C231.087 26.54 230.267 25.86 228.627 25.86C227.347 25.86 226.167 26.34 225.087 27.3L224.227 25.38C224.787 24.8733 225.487 24.4667 226.327 24.16C227.167 23.8533 228.04 23.7 228.947 23.7C230.454 23.7 231.607 24.04 232.407 24.72C233.22 25.4 233.627 26.3733 233.627 27.64C233.627 28.4933 233.42 29.3133 233.007 30.1C232.607 30.8867 231.974 31.7333 231.107 32.64L228.007 35.88H234.167V38H224.807ZM241.199 38.2C239.533 38.2 238.259 37.5733 237.379 36.32C236.499 35.0533 236.059 33.2533 236.059 30.92C236.059 28.56 236.499 26.7667 237.379 25.54C238.259 24.3133 239.533 23.7 241.199 23.7C242.879 23.7 244.153 24.3133 245.019 25.54C245.899 26.7667 246.339 28.5533 246.339 30.9C246.339 33.2467 245.899 35.0533 245.019 36.32C244.139 37.5733 242.866 38.2 241.199 38.2ZM241.199 36.1C242.106 36.1 242.773 35.6867 243.199 34.86C243.639 34.02 243.859 32.7 243.859 30.9C243.859 29.1133 243.639 27.82 243.199 27.02C242.773 26.2067 242.106 25.8 241.199 25.8C240.306 25.8 239.639 26.2067 239.199 27.02C238.759 27.82 238.539 29.1133 238.539 30.9C238.539 32.7 238.759 34.02 239.199 34.86C239.639 35.6867 240.306 36.1 241.199 36.1ZM253.351 38.56L251.711 37.6L259.951 23.34L261.571 24.3L253.351 38.56ZM251.631 32.32C250.511 32.32 249.638 31.9333 249.011 31.16C248.385 30.3867 248.071 29.3333 248.071 28C248.071 26.6667 248.385 25.62 249.011 24.86C249.638 24.0867 250.511 23.7 251.631 23.7C252.751 23.7 253.625 24.0867 254.251 24.86C254.878 25.62 255.191 26.6667 255.191 28C255.191 29.3333 254.878 30.3867 254.251 31.16C253.625 31.9333 252.751 32.32 251.631 32.32ZM251.631 30.64C252.111 30.64 252.485 30.4267 252.751 30C253.018 29.56 253.151 28.8933 253.151 28C253.151 27.1067 253.018 26.4467 252.751 26.02C252.485 25.5933 252.111 25.38 251.631 25.38C251.151 25.38 250.778 25.5933 250.511 26.02C250.245 26.4333 250.111 27.0933 250.111 28C250.111 28.9067 250.245 29.5733 250.511 30C250.778 30.4267 251.151 30.64 251.631 30.64ZM261.671 38.2C260.551 38.2 259.678 37.8133 259.051 37.04C258.425 36.2667 258.111 35.2133 258.111 33.88C258.111 32.5467 258.425 31.5 259.051 30.74C259.678 29.9667 260.551 29.58 261.671 29.58C262.791 29.58 263.665 29.9667 264.291 30.74C264.918 31.5 265.231 32.5467 265.231 33.88C265.231 35.2133 264.918 36.2667 264.291 37.04C263.665 37.8133 262.791 38.2 261.671 38.2ZM261.671 36.52C262.151 36.52 262.525 36.3067 262.791 35.88C263.058 35.44 263.191 34.7733 263.191 33.88C263.191 32.9867 263.058 32.3267 262.791 31.9C262.525 31.4733 262.151 31.26 261.671 31.26C261.191 31.26 260.818 31.4733 260.551 31.9C260.285 32.3133 260.151 32.9733 260.151 33.88C260.151 34.7867 260.285 35.4533 260.551 35.88C260.818 36.3067 261.191 36.52 261.671 36.52Z" fill="white"/>
<defs>
<linearGradient id="paint0_linear_237_71" x1="140.487" y1="-27.2651" x2="146.77" y2="189.016" gradientUnits="userSpaceOnUse">
<stop/>
<stop offset="1" stop-color="white"/>
</linearGradient>
</defs>
</svg>
