<svg width="280" height="169" viewBox="0 0 280 169" fill="none" xmlns="http://www.w3.org/2000/svg">
<rect y="0.972656" width="279.05" height="167.54" rx="10" fill="url(#paint0_linear_237_166)"/>
<mask id="mask0_237_166" style="mask-type:alpha" maskUnits="userSpaceOnUse" x="0" y="0" width="280" height="169">
<rect y="0.972656" width="279.05" height="167.54" rx="10" fill="#ED713C"/>
</mask>
<g mask="url(#mask0_237_166)">
<ellipse opacity="0.1" cx="21.7041" cy="125.69" rx="142.183" ry="100.103" fill="black"/>
<ellipse opacity="0.08" cx="257.346" cy="-88.6903" rx="142.183" ry="100.103" fill="black"/>
</g>
<path d="M141.54 31V16.9H146.78C149.14 16.9 150.96 17.5067 152.24 18.72C153.533 19.9333 154.18 21.6733 154.18 23.94C154.18 26.1933 153.533 27.9333 152.24 29.16C150.96 30.3867 149.14 31 146.78 31H141.54ZM144.1 28.88H146.62C149.873 28.88 151.5 27.2333 151.5 23.94C151.5 20.66 149.873 19.02 146.62 19.02H144.1V28.88ZM156.374 19.12V16.68H159.174V19.12H156.374ZM156.534 31V21.22H159.034V31H156.534ZM165.212 31.2C164.385 31.2 163.612 31.1 162.892 30.9C162.172 30.7 161.572 30.4133 161.092 30.04L161.732 28.4C162.225 28.7333 162.779 28.9933 163.392 29.18C164.005 29.3533 164.619 29.44 165.232 29.44C165.872 29.44 166.345 29.3333 166.652 29.12C166.972 28.8933 167.132 28.6 167.132 28.24C167.132 27.68 166.719 27.32 165.892 27.16L163.892 26.78C162.199 26.46 161.352 25.58 161.352 24.14C161.352 23.5 161.525 22.9467 161.872 22.48C162.232 22.0133 162.725 21.6533 163.352 21.4C163.979 21.1467 164.699 21.02 165.512 21.02C166.205 21.02 166.872 21.12 167.512 21.32C168.152 21.5067 168.699 21.7933 169.152 22.18L168.472 23.82C168.085 23.5 167.619 23.2467 167.072 23.06C166.539 22.8733 166.025 22.78 165.532 22.78C164.879 22.78 164.392 22.8933 164.072 23.12C163.765 23.3467 163.612 23.6467 163.612 24.02C163.612 24.6067 163.992 24.9667 164.752 25.1L166.752 25.48C167.619 25.64 168.272 25.9333 168.712 26.36C169.165 26.7867 169.392 27.36 169.392 28.08C169.392 29.0533 169.012 29.82 168.252 30.38C167.492 30.9267 166.479 31.2 165.212 31.2ZM175.918 31.2C174.891 31.2 173.998 30.9933 173.238 30.58C172.478 30.1533 171.891 29.5533 171.478 28.78C171.064 28.0067 170.858 27.1 170.858 26.06C170.858 25.02 171.064 24.1267 171.478 23.38C171.891 22.62 172.478 22.04 173.238 21.64C173.998 21.2267 174.891 21.02 175.918 21.02C176.544 21.02 177.164 21.12 177.778 21.32C178.391 21.52 178.898 21.8 179.298 22.16L178.558 23.9C178.211 23.5933 177.818 23.36 177.378 23.2C176.951 23.04 176.538 22.96 176.138 22.96C175.271 22.96 174.598 23.2333 174.118 23.78C173.651 24.3133 173.418 25.08 173.418 26.08C173.418 27.0667 173.651 27.8467 174.118 28.42C174.598 28.98 175.271 29.26 176.138 29.26C176.524 29.26 176.938 29.18 177.378 29.02C177.818 28.86 178.211 28.62 178.558 28.3L179.298 30.06C178.898 30.4067 178.384 30.6867 177.758 30.9C177.144 31.1 176.531 31.2 175.918 31.2ZM185.096 31.2C184.083 31.2 183.203 30.9933 182.456 30.58C181.709 30.1667 181.129 29.58 180.716 28.82C180.303 28.0467 180.096 27.14 180.096 26.1C180.096 25.06 180.303 24.16 180.716 23.4C181.129 22.64 181.709 22.0533 182.456 21.64C183.203 21.2267 184.083 21.02 185.096 21.02C186.109 21.02 186.989 21.2267 187.736 21.64C188.483 22.0533 189.063 22.64 189.476 23.4C189.889 24.16 190.096 25.06 190.096 26.1C190.096 27.14 189.889 28.0467 189.476 28.82C189.063 29.58 188.483 30.1667 187.736 30.58C186.989 30.9933 186.109 31.2 185.096 31.2ZM185.096 29.3C185.843 29.3 186.443 29.0333 186.896 28.5C187.349 27.9533 187.576 27.1533 187.576 26.1C187.576 25.0333 187.349 24.24 186.896 23.72C186.443 23.1867 185.843 22.92 185.096 22.92C184.349 22.92 183.749 23.1867 183.296 23.72C182.843 24.24 182.616 25.0333 182.616 26.1C182.616 27.1533 182.843 27.9533 183.296 28.5C183.749 29.0333 184.349 29.3 185.096 29.3ZM195.699 31.2C193.299 31.2 192.099 29.8533 192.099 27.16V21.22H194.599V27.2C194.599 27.8933 194.739 28.4067 195.019 28.74C195.299 29.0733 195.746 29.24 196.359 29.24C197.026 29.24 197.573 29.0133 197.999 28.56C198.426 28.0933 198.639 27.48 198.639 26.72V21.22H201.139V31H198.699V29.54C198.046 30.6467 197.046 31.2 195.699 31.2ZM203.741 31V21.22H206.181V22.74C206.515 22.18 206.961 21.7533 207.521 21.46C208.095 21.1667 208.735 21.02 209.441 21.02C211.748 21.02 212.901 22.36 212.901 25.04V31H210.401V25.16C210.401 24.4 210.255 23.8467 209.961 23.5C209.681 23.1533 209.241 22.98 208.641 22.98C207.908 22.98 207.321 23.2133 206.881 23.68C206.455 24.1333 206.241 24.74 206.241 25.5V31H203.741ZM219.921 31.2C217.334 31.2 216.041 29.92 216.041 27.36V23.1H214.161V21.22H216.041V18.3H218.541V21.22H221.501V23.1H218.541V27.22C218.541 27.86 218.681 28.34 218.961 28.66C219.241 28.98 219.694 29.14 220.321 29.14C220.507 29.14 220.701 29.12 220.901 29.08C221.101 29.0267 221.307 28.9733 221.521 28.92L221.901 30.76C221.661 30.8933 221.354 31 220.981 31.08C220.621 31.16 220.267 31.2 219.921 31.2ZM232.927 31.2C231.967 31.2 231.047 31.06 230.167 30.78C229.3 30.4867 228.58 30.0933 228.007 29.6L228.847 27.64C230.047 28.5733 231.38 29.04 232.847 29.04C234.647 29.04 235.547 28.3333 235.547 26.92C235.547 26.2533 235.32 25.76 234.867 25.44C234.427 25.1067 233.78 24.94 232.927 24.94H230.667V22.82H232.687C233.434 22.82 234.027 22.64 234.467 22.28C234.907 21.9067 235.127 21.3933 235.127 20.74C235.127 20.1267 234.92 19.66 234.507 19.34C234.107 19.02 233.52 18.86 232.747 18.86C231.36 18.86 230.14 19.34 229.087 20.3L228.247 18.38C228.807 17.8467 229.507 17.4333 230.347 17.14C231.187 16.8467 232.06 16.7 232.967 16.7C234.434 16.7 235.574 17.0333 236.387 17.7C237.2 18.3533 237.607 19.2667 237.607 20.44C237.607 21.2 237.414 21.8667 237.027 22.44C236.64 23.0133 236.114 23.4267 235.447 23.68C236.26 23.9067 236.894 24.3267 237.347 24.94C237.8 25.54 238.027 26.2733 238.027 27.14C238.027 28.3933 237.574 29.3867 236.667 30.12C235.76 30.84 234.514 31.2 232.927 31.2ZM245.199 31.2C243.533 31.2 242.259 30.5733 241.379 29.32C240.499 28.0533 240.059 26.2533 240.059 23.92C240.059 21.56 240.499 19.7667 241.379 18.54C242.259 17.3133 243.533 16.7 245.199 16.7C246.879 16.7 248.153 17.3133 249.019 18.54C249.899 19.7667 250.339 21.5533 250.339 23.9C250.339 26.2467 249.899 28.0533 249.019 29.32C248.139 30.5733 246.866 31.2 245.199 31.2ZM245.199 29.1C246.106 29.1 246.773 28.6867 247.199 27.86C247.639 27.02 247.859 25.7 247.859 23.9C247.859 22.1133 247.639 20.82 247.199 20.02C246.773 19.2067 246.106 18.8 245.199 18.8C244.306 18.8 243.639 19.2067 243.199 20.02C242.759 20.82 242.539 22.1133 242.539 23.9C242.539 25.7 242.759 27.02 243.199 27.86C243.639 28.6867 244.306 29.1 245.199 29.1ZM257.351 31.56L255.711 30.6L263.951 16.34L265.571 17.3L257.351 31.56ZM255.631 25.32C254.511 25.32 253.638 24.9333 253.011 24.16C252.385 23.3867 252.071 22.3333 252.071 21C252.071 19.6667 252.385 18.62 253.011 17.86C253.638 17.0867 254.511 16.7 255.631 16.7C256.751 16.7 257.625 17.0867 258.251 17.86C258.878 18.62 259.191 19.6667 259.191 21C259.191 22.3333 258.878 23.3867 258.251 24.16C257.625 24.9333 256.751 25.32 255.631 25.32ZM255.631 23.64C256.111 23.64 256.485 23.4267 256.751 23C257.018 22.56 257.151 21.8933 257.151 21C257.151 20.1067 257.018 19.4467 256.751 19.02C256.485 18.5933 256.111 18.38 255.631 18.38C255.151 18.38 254.778 18.5933 254.511 19.02C254.245 19.4333 254.111 20.0933 254.111 21C254.111 21.9067 254.245 22.5733 254.511 23C254.778 23.4267 255.151 23.64 255.631 23.64ZM265.671 31.2C264.551 31.2 263.678 30.8133 263.051 30.04C262.425 29.2667 262.111 28.2133 262.111 26.88C262.111 25.5467 262.425 24.5 263.051 23.74C263.678 22.9667 264.551 22.58 265.671 22.58C266.791 22.58 267.665 22.9667 268.291 23.74C268.918 24.5 269.231 25.5467 269.231 26.88C269.231 28.2133 268.918 29.2667 268.291 30.04C267.665 30.8133 266.791 31.2 265.671 31.2ZM265.671 29.52C266.151 29.52 266.525 29.3067 266.791 28.88C267.058 28.44 267.191 27.7733 267.191 26.88C267.191 25.9867 267.058 25.3267 266.791 24.9C266.525 24.4733 266.151 24.26 265.671 24.26C265.191 24.26 264.818 24.4733 264.551 24.9C264.285 25.3133 264.151 25.9733 264.151 26.88C264.151 27.7867 264.285 28.4533 264.551 28.88C264.818 29.3067 265.191 29.52 265.671 29.52Z" fill="white"/>
<path fill-rule="evenodd" clip-rule="evenodd" d="M42.2452 109.775H41.6836C37.0165 109.876 32.4196 111.792 29.0303 115.088C25.0568 118.862 22.7766 124.361 22.7261 129.904V130.42C22.8215 135.848 25.0371 141.221 28.8955 144.954C32.3129 148.342 36.9968 150.316 41.751 150.396H42.3013C48.7263 150.322 54.9097 146.631 58.2514 141.022C61.11 136.372 61.9889 130.524 60.7197 125.191C59.6554 120.59 56.9709 116.398 53.2529 113.598C50.0938 111.178 46.1849 109.85 42.2452 109.775ZM33.5205 126.28C35.3346 126.825 37.2693 126.494 39.0356 125.909C40.009 125.58 40.9671 125.203 41.9253 124.827L41.9254 124.827C43.4745 124.218 45.0237 123.61 46.6372 123.201C48.7966 122.682 51.2228 123.1 52.9526 124.569C53.2948 124.906 53.2941 125.394 53.2933 125.856C53.2932 125.97 53.293 126.083 53.298 126.191C53.2787 127.678 53.2856 129.166 53.2924 130.654V130.654C53.3025 132.846 53.3126 135.038 53.239 137.228C52.9783 137.115 52.7191 136.994 52.4594 136.873C51.3906 136.375 50.3159 135.874 49.1139 135.851C46.6073 135.71 44.2901 136.563 41.9686 137.418C40.0795 138.114 38.1876 138.811 36.1882 138.974C34.3742 139.104 32.4787 138.663 31.0073 137.542C30.7058 137.114 30.7209 136.578 30.7356 136.054C30.7416 135.841 30.7475 135.629 30.7321 135.428C30.76 134.096 30.7477 132.763 30.7353 131.429C30.7153 129.278 30.6954 127.128 30.8444 124.987C31.1754 125.138 31.4939 125.318 31.8123 125.498L31.8123 125.498C32.361 125.808 32.9093 126.118 33.5205 126.28ZM71.5894 119.892C70.5962 119.899 69.6031 119.905 68.6104 119.893C68.6089 123.313 68.6089 126.733 68.6089 130.154C68.6089 133.575 68.6089 136.996 68.6075 140.417C69.7138 140.418 70.8193 140.418 71.9248 140.418H71.9291C73.0336 140.418 74.138 140.418 75.2431 140.42C76.8521 140.423 78.478 140.106 79.9158 139.342C83.7404 137.418 85.956 132.791 85.2231 128.501C84.6166 124.036 80.8144 120.241 76.3972 119.939C74.7953 119.871 73.1923 119.882 71.5895 119.892H71.5894ZM72.79 134.323V134.322C72.7982 130.984 72.8065 127.645 72.7776 124.307C73.2066 124.321 73.6381 124.313 74.07 124.305C75.0146 124.288 75.9608 124.271 76.8858 124.477C79.1913 125.019 80.9688 127.223 81.1317 129.631C81.376 132.028 80.0197 134.503 77.8631 135.482C76.6941 136.049 75.4093 136.021 74.1377 135.994C73.6835 135.984 73.231 135.975 72.786 135.992C72.7872 135.436 72.7886 134.879 72.79 134.323ZM92.6535 128.194C92.7883 123.743 96.6944 119.744 101.086 119.897C105.391 119.851 109.171 123.763 109.342 128.128C109.387 130.635 109.38 133.143 109.373 135.651V135.652C109.369 137.239 109.364 138.826 109.373 140.412L109.369 140.412C107.975 140.415 106.583 140.418 105.192 140.412C105.185 139.678 105.185 138.944 105.186 138.21V138.208C105.187 137.474 105.187 136.74 105.18 136.007C103.538 136.015 101.897 136.014 100.257 136.012C99.1085 136.011 97.9604 136.01 96.8123 136.013C96.8081 136.56 96.8102 137.107 96.8122 137.655V137.655V137.655V137.657C96.8156 138.582 96.8191 139.508 96.7926 140.432C95.8659 140.409 94.9405 140.412 94.0154 140.414C93.5529 140.415 93.0906 140.417 92.6282 140.415C92.6333 138.934 92.6295 137.452 92.6257 135.97C92.619 133.377 92.6124 130.784 92.6535 128.194ZM97.8822 125.78C96.7426 127.043 96.7758 128.748 96.8076 130.381C96.8157 130.797 96.8237 131.207 96.8123 131.605C97.9277 131.606 99.0435 131.605 100.159 131.605H100.161C101.834 131.604 103.508 131.603 105.18 131.608C105.17 131.212 105.179 130.803 105.188 130.39C105.223 128.793 105.259 127.13 104.186 125.869C102.69 123.852 99.4322 123.806 97.8822 125.78ZM116.688 128.239C116.812 124.321 119.797 120.685 123.585 120.026C126.404 119.47 129.426 120.607 131.262 122.86C132.683 124.465 133.407 126.637 133.407 128.792C133.413 131.375 133.411 133.957 133.409 136.539V136.54C133.408 137.831 133.407 139.122 133.407 140.414C132.934 140.417 132.46 140.415 131.986 140.413H131.986C131.071 140.41 130.157 140.407 129.243 140.437C129.213 138.242 129.218 136.046 129.222 133.85C129.226 132.161 129.23 130.472 129.218 128.784C129.24 127.216 128.423 125.655 127.086 124.877C125.699 124.024 123.821 124.151 122.548 125.177C121.448 126.021 120.833 127.427 120.852 128.827C120.846 131.032 120.847 133.237 120.848 135.442V135.449C120.849 137.103 120.849 138.758 120.847 140.414C120.337 140.412 119.828 140.413 119.318 140.414C118.426 140.415 117.535 140.417 116.643 140.402C116.673 138.448 116.667 136.493 116.662 134.538C116.656 132.438 116.65 130.338 116.688 128.239ZM142.062 123.872C143.677 121.29 146.659 119.625 149.672 119.919C153.078 120.135 156.1 122.797 157.043 126.125C157.392 127.248 157.408 128.422 157.425 129.594C157.434 130.265 157.443 130.935 157.515 131.596V140.391C156.445 140.421 155.375 140.418 154.306 140.414H154.305C153.949 140.412 153.592 140.411 153.235 140.411C153.234 139.938 153.234 139.465 153.235 138.991C153.237 137.991 153.239 136.991 153.216 135.992C151.522 136.018 149.827 136.015 148.132 136.011H148.132C147.042 136.009 145.952 136.006 144.862 136.012C144.86 136.745 144.86 137.478 144.86 138.212C144.86 138.946 144.86 139.679 144.859 140.414H140.675C140.673 138.523 140.673 136.632 140.673 134.742C140.673 132.852 140.673 130.962 140.672 129.072C140.652 127.251 141.076 125.401 142.062 123.872ZM145.909 125.808C144.792 127.067 144.825 128.758 144.857 130.379C144.865 130.795 144.873 131.206 144.862 131.604C146.722 131.606 148.582 131.606 150.441 131.605H150.444C151.374 131.605 152.304 131.604 153.233 131.604C153.22 131.198 153.229 130.779 153.238 130.355C153.271 128.765 153.306 127.113 152.23 125.86C150.72 123.84 147.448 123.814 145.909 125.808Z" fill="white"/>
<defs>
<linearGradient id="paint0_linear_237_166" x1="140.487" y1="-26.8036" x2="146.77" y2="189.477" gradientUnits="userSpaceOnUse">
<stop/>
<stop offset="1" stop-color="#118EEA"/>
</linearGradient>
</defs>
</svg>
