<svg width="280" height="169" viewBox="0 0 280 169" fill="none" xmlns="http://www.w3.org/2000/svg">
<rect y="0.916992" width="279.05" height="167.54" rx="10" fill="url(#paint0_linear_237_139)"/>
<mask id="mask0_237_139" style="mask-type:alpha" maskUnits="userSpaceOnUse" x="0" y="0" width="280" height="169">
<rect y="0.916992" width="279.05" height="167.54" rx="10" fill="#ED713C"/>
</mask>
<g mask="url(#mask0_237_139)">
<ellipse opacity="0.1" cx="21.7041" cy="125.69" rx="142.183" ry="100.103" fill="black"/>
<ellipse opacity="0.08" cx="257.346" cy="-88.6903" rx="142.183" ry="100.103" fill="black"/>
</g>
<path fill-rule="evenodd" clip-rule="evenodd" d="M35.7637 114.705C37.406 114.43 39.091 114.462 40.7411 114.631C42.271 114.955 43.8144 115.317 45.2183 116.044C48.0589 117.434 50.4769 119.688 52.0882 122.463C53.4242 125.027 54.3433 127.904 54.2056 130.842C54.2444 136.874 50.5195 142.621 45.2435 145.185C41.8231 146.854 37.8442 147.083 34.1892 146.168C31.7169 145.388 29.332 144.127 27.5306 142.189C25.8146 140.556 24.5193 138.475 23.6972 136.235C22.6249 133.48 22.528 130.416 22.9836 127.514C23.8174 123.203 26.4137 119.25 30.0882 116.959C31.7984 115.803 33.7645 115.117 35.7637 114.705ZM33.5687 122.445C32.3316 122.574 30.9802 123.02 30.2957 124.166C29.5395 125.263 29.4606 126.636 29.3857 127.94C29.3795 128.047 29.3734 128.154 29.3669 128.26C29.3515 128.589 29.3229 128.918 29.2942 129.246V129.246C29.2365 129.909 29.1787 130.572 29.2292 131.24C29.2669 131.691 29.2935 132.143 29.3201 132.596C29.3866 133.726 29.4531 134.857 29.6927 135.967C29.9893 137.365 31.2167 138.449 32.5701 138.704C35.0925 139.171 37.6621 139.13 40.2163 139.089H40.2163C40.4502 139.085 40.684 139.081 40.9176 139.078C41.9627 139.018 43.0078 138.909 44.0413 138.74C45.5887 138.533 46.9557 137.24 47.2097 135.648C47.6537 133.697 47.7332 131.684 47.6014 129.692C47.3532 128.415 46.4729 127.263 45.2765 126.796C44.7375 126.529 44.1396 126.53 43.5532 126.532C43.4498 126.532 43.3467 126.532 43.2444 126.531C42.0908 126.533 40.9373 126.532 39.7838 126.531H39.7837C37.7653 126.53 35.7471 126.529 33.7297 126.539C33.4977 126.544 33.2813 126.462 33.0668 126.382C32.9872 126.352 32.9078 126.322 32.828 126.297C32.8222 125.851 32.8377 125.184 33.4214 125.173C34.9411 125.137 36.4622 125.148 37.9833 125.158H37.9833H37.9833C39.9866 125.172 41.9897 125.185 43.989 125.095C43.7718 124.061 43.1572 122.98 42.0985 122.694C41.1425 122.431 40.1536 122.298 39.1705 122.204C38.8901 122.201 38.6093 122.195 38.3283 122.19H38.3282C36.7357 122.159 35.1361 122.127 33.5687 122.445ZM44.396 131.134C43.886 130.992 43.2752 131.199 43.0969 131.738C42.9849 132.359 43.1643 132.957 43.3425 133.551C43.4174 133.8 43.492 134.049 43.5448 134.299C43.6029 134.333 43.6902 134.385 43.7774 134.437C43.8647 134.489 43.952 134.54 44.0101 134.575C44.2098 134.456 44.4134 134.348 44.6248 134.255C44.6476 133.73 44.7709 133.225 44.8942 132.72C44.9489 132.496 45.0036 132.272 45.0494 132.047C44.9544 131.675 44.7159 131.335 44.396 131.134Z" fill="#01ACD7"/>
<path fill-rule="evenodd" clip-rule="evenodd" d="M74.1267 119.662C72.6318 119.061 70.972 119.129 69.4053 119.328C66.0159 119.865 63.0414 122.519 62.037 125.883C61.5814 127.216 61.5911 128.654 61.7113 130.044C62.1165 133.601 64.7245 136.725 68.0344 137.813C70.3806 138.541 73.0874 138.565 75.2533 137.262C75.5361 137.101 75.793 136.903 76.05 136.704L76.0501 136.704L76.0501 136.704L76.0501 136.704L76.0501 136.704L76.0501 136.704C76.2899 136.519 76.5298 136.334 76.7909 136.179L76.7949 136.364C76.827 137.83 76.8634 139.489 75.7788 140.596C75.0516 141.507 73.9522 141.986 72.8412 142.161C70.4387 142.613 67.8986 141.771 66.1128 140.084C65.7158 140.499 65.2999 140.896 64.8841 141.292L64.884 141.292L64.884 141.292L64.884 141.292L64.884 141.292C64.2111 141.933 63.5384 142.574 62.9464 143.293C64.8156 145.107 67.1832 146.416 69.7504 146.765C72.2595 147.089 74.9586 146.932 77.1943 145.609C79.0906 144.529 80.5836 142.684 81.1692 140.534C81.5327 139.462 81.5277 138.318 81.5229 137.198L81.5221 137.009C81.5202 131.079 81.5202 125.151 81.5221 119.221C80.6135 119.209 79.705 119.21 78.7964 119.21C78.1402 119.21 77.484 119.211 76.8278 119.207C76.8282 119.369 76.8291 119.532 76.83 119.694L76.83 119.695C76.8329 120.225 76.8358 120.754 76.8239 121.283C76.0153 120.605 75.1215 120.006 74.1267 119.662ZM68.1721 124.831C68.9497 124.123 69.9812 123.852 70.9876 123.699C72.9906 123.387 75.2437 124.328 76.2694 126.168C76.6831 126.913 76.6659 127.756 76.6488 128.591V128.591C76.6429 128.883 76.6369 129.174 76.6495 129.46C76.8182 131.214 75.4861 132.762 73.9601 133.359C72.1161 134.071 69.8416 134.119 68.2322 132.804C65.8201 130.948 65.7716 126.713 68.1721 124.831ZM115.323 119.211C113.318 119.197 111.228 119.811 109.783 121.296C109.771 121.106 109.759 120.917 109.747 120.728L109.746 120.727C109.726 120.401 109.705 120.075 109.681 119.75C108.102 119.73 106.524 119.724 104.945 119.75C104.948 124.659 104.947 129.569 104.947 134.479V134.518C104.947 138.187 104.947 141.856 104.947 145.525C106.057 145.599 107.168 145.592 108.28 145.586H108.28H108.28H108.28H108.28C108.797 145.583 109.314 145.58 109.83 145.585C109.866 143.31 109.858 141.034 109.85 138.758C109.847 137.981 109.844 137.204 109.843 136.426C113.326 139.265 118.87 138.953 122.001 135.696C125.41 132.189 125.606 125.939 122.323 122.278C120.595 120.241 117.943 119.115 115.323 119.211ZM110.072 126.595C110.582 125.021 112.141 124.082 113.656 123.774C115.217 123.45 116.962 123.854 118.168 124.944C120.211 126.85 120.227 130.512 118.3 132.507C116.366 134.427 112.946 134.391 111.024 132.471C110.206 131.729 109.778 130.568 109.849 129.458C109.865 129.165 109.858 128.868 109.85 128.571V128.571C109.833 127.898 109.816 127.224 110.072 126.595ZM90.7868 119.455C93.5421 118.886 96.5572 119.228 98.9558 120.802C100.78 121.932 102.169 123.764 102.789 125.855C103.64 128.602 103.258 131.745 101.665 134.136C100.08 136.545 97.3755 138.021 94.5833 138.298C92.8634 138.417 91.0854 138.358 89.4585 137.715C86.7633 136.786 84.5024 134.504 83.7074 131.685C82.8543 129.044 83.2498 126.02 84.7118 123.68C86.0653 121.492 88.3339 119.998 90.7868 119.455ZM91.9406 123.799C91.2542 124 90.6124 124.351 90.0501 124.798C88.1033 126.372 87.6283 129.483 89.0146 131.59C90.5988 134.27 94.6862 134.799 96.8308 132.555C97.8798 131.566 98.3781 130.09 98.2385 128.644C98.3568 125.437 94.8898 122.852 91.9406 123.799ZM136.951 119.33C134.129 118.95 131.074 119.354 128.733 121.122C127.382 122.224 126.226 123.74 125.997 125.542C126.671 125.661 127.339 125.81 128.008 125.96C128.878 126.155 129.749 126.349 130.631 126.475C131.013 124.902 132.344 123.651 133.905 123.392C134.915 123.213 135.966 123.267 136.949 123.573C137.808 123.86 138.461 124.824 138.085 125.743C137.384 126.399 136.431 126.597 135.523 126.786C135.406 126.81 135.29 126.834 135.175 126.859C135.018 126.882 134.86 126.905 134.703 126.928L134.703 126.928L134.702 126.928C132.397 127.262 130.001 127.61 128.039 128.976C125.613 130.717 125.604 134.813 127.847 136.715C129.699 138.348 132.307 138.535 134.63 138.219C136.237 137.91 137.856 137.196 138.882 135.837C138.888 136.172 138.888 136.508 138.888 136.843C138.888 137.179 138.888 137.514 138.894 137.85C139.248 137.85 139.602 137.849 139.956 137.848C141.078 137.844 142.202 137.84 143.326 137.858C143.331 135.611 143.33 133.364 143.329 131.118V131.118V131.118C143.329 129.433 143.328 127.748 143.33 126.064C143.348 124.697 142.861 123.366 142.128 122.24C140.937 120.525 138.917 119.66 136.951 119.33ZM130.847 132.944C130.591 132.322 131.085 131.707 131.58 131.401C132.577 130.837 133.699 130.626 134.82 130.416C136.17 130.163 137.517 129.911 138.638 129.041C138.627 129.314 138.636 129.6 138.644 129.89L138.644 129.89C138.673 130.869 138.704 131.893 138.004 132.624C136.65 134.009 134.589 134.263 132.768 134.144C132.012 134.098 131.017 133.83 130.847 132.944ZM145.278 119.736C144.757 119.737 144.235 119.738 143.714 119.738C145.09 122.686 146.496 125.62 147.902 128.554C149.221 131.307 150.54 134.06 151.835 136.826C151.198 138.261 150.507 139.67 149.815 141.079C149.084 142.568 148.353 144.057 147.687 145.577C148.247 145.574 148.808 145.579 149.368 145.583C150.615 145.593 151.861 145.603 153.107 145.537C157.192 136.947 161.274 128.357 165.351 119.764C163.519 119.716 161.689 119.724 159.858 119.756C158.101 123.712 156.323 127.661 154.536 131.602C154.008 130.434 153.476 129.269 152.943 128.104C152.073 126.201 151.203 124.297 150.357 122.383C150.222 122.072 150.072 121.766 149.923 121.461C149.65 120.901 149.376 120.341 149.188 119.744C147.885 119.731 146.581 119.733 145.278 119.736Z" fill="white"/>
<path d="M135.54 33V18.9H140.78C143.14 18.9 144.96 19.5067 146.24 20.72C147.533 21.9333 148.18 23.6733 148.18 25.94C148.18 28.1933 147.533 29.9333 146.24 31.16C144.96 32.3867 143.14 33 140.78 33H135.54ZM138.1 30.88H140.62C143.873 30.88 145.5 29.2333 145.5 25.94C145.5 22.66 143.873 21.02 140.62 21.02H138.1V30.88ZM150.374 21.12V18.68H153.174V21.12H150.374ZM150.534 33V23.22H153.034V33H150.534ZM159.212 33.2C158.385 33.2 157.612 33.1 156.892 32.9C156.172 32.7 155.572 32.4133 155.092 32.04L155.732 30.4C156.225 30.7333 156.779 30.9933 157.392 31.18C158.005 31.3533 158.619 31.44 159.232 31.44C159.872 31.44 160.345 31.3333 160.652 31.12C160.972 30.8933 161.132 30.6 161.132 30.24C161.132 29.68 160.719 29.32 159.892 29.16L157.892 28.78C156.199 28.46 155.352 27.58 155.352 26.14C155.352 25.5 155.525 24.9467 155.872 24.48C156.232 24.0133 156.725 23.6533 157.352 23.4C157.979 23.1467 158.699 23.02 159.512 23.02C160.205 23.02 160.872 23.12 161.512 23.32C162.152 23.5067 162.699 23.7933 163.152 24.18L162.472 25.82C162.085 25.5 161.619 25.2467 161.072 25.06C160.539 24.8733 160.025 24.78 159.532 24.78C158.879 24.78 158.392 24.8933 158.072 25.12C157.765 25.3467 157.612 25.6467 157.612 26.02C157.612 26.6067 157.992 26.9667 158.752 27.1L160.752 27.48C161.619 27.64 162.272 27.9333 162.712 28.36C163.165 28.7867 163.392 29.36 163.392 30.08C163.392 31.0533 163.012 31.82 162.252 32.38C161.492 32.9267 160.479 33.2 159.212 33.2ZM169.918 33.2C168.891 33.2 167.998 32.9933 167.238 32.58C166.478 32.1533 165.891 31.5533 165.478 30.78C165.064 30.0067 164.858 29.1 164.858 28.06C164.858 27.02 165.064 26.1267 165.478 25.38C165.891 24.62 166.478 24.04 167.238 23.64C167.998 23.2267 168.891 23.02 169.918 23.02C170.544 23.02 171.164 23.12 171.778 23.32C172.391 23.52 172.898 23.8 173.298 24.16L172.558 25.9C172.211 25.5933 171.818 25.36 171.378 25.2C170.951 25.04 170.538 24.96 170.138 24.96C169.271 24.96 168.598 25.2333 168.118 25.78C167.651 26.3133 167.418 27.08 167.418 28.08C167.418 29.0667 167.651 29.8467 168.118 30.42C168.598 30.98 169.271 31.26 170.138 31.26C170.524 31.26 170.938 31.18 171.378 31.02C171.818 30.86 172.211 30.62 172.558 30.3L173.298 32.06C172.898 32.4067 172.384 32.6867 171.758 32.9C171.144 33.1 170.531 33.2 169.918 33.2ZM179.096 33.2C178.083 33.2 177.203 32.9933 176.456 32.58C175.709 32.1667 175.129 31.58 174.716 30.82C174.303 30.0467 174.096 29.14 174.096 28.1C174.096 27.06 174.303 26.16 174.716 25.4C175.129 24.64 175.709 24.0533 176.456 23.64C177.203 23.2267 178.083 23.02 179.096 23.02C180.109 23.02 180.989 23.2267 181.736 23.64C182.483 24.0533 183.063 24.64 183.476 25.4C183.889 26.16 184.096 27.06 184.096 28.1C184.096 29.14 183.889 30.0467 183.476 30.82C183.063 31.58 182.483 32.1667 181.736 32.58C180.989 32.9933 180.109 33.2 179.096 33.2ZM179.096 31.3C179.843 31.3 180.443 31.0333 180.896 30.5C181.349 29.9533 181.576 29.1533 181.576 28.1C181.576 27.0333 181.349 26.24 180.896 25.72C180.443 25.1867 179.843 24.92 179.096 24.92C178.349 24.92 177.749 25.1867 177.296 25.72C176.843 26.24 176.616 27.0333 176.616 28.1C176.616 29.1533 176.843 29.9533 177.296 30.5C177.749 31.0333 178.349 31.3 179.096 31.3ZM189.699 33.2C187.299 33.2 186.099 31.8533 186.099 29.16V23.22H188.599V29.2C188.599 29.8933 188.739 30.4067 189.019 30.74C189.299 31.0733 189.746 31.24 190.359 31.24C191.026 31.24 191.573 31.0133 191.999 30.56C192.426 30.0933 192.639 29.48 192.639 28.72V23.22H195.139V33H192.699V31.54C192.046 32.6467 191.046 33.2 189.699 33.2ZM197.741 33V23.22H200.181V24.74C200.515 24.18 200.961 23.7533 201.521 23.46C202.095 23.1667 202.735 23.02 203.441 23.02C205.748 23.02 206.901 24.36 206.901 27.04V33H204.401V27.16C204.401 26.4 204.255 25.8467 203.961 25.5C203.681 25.1533 203.241 24.98 202.641 24.98C201.908 24.98 201.321 25.2133 200.881 25.68C200.455 26.1333 200.241 26.74 200.241 27.5V33H197.741ZM213.921 33.2C211.334 33.2 210.041 31.92 210.041 29.36V25.1H208.161V23.22H210.041V20.3H212.541V23.22H215.501V25.1H212.541V29.22C212.541 29.86 212.681 30.34 212.961 30.66C213.241 30.98 213.694 31.14 214.321 31.14C214.507 31.14 214.701 31.12 214.901 31.08C215.101 31.0267 215.307 30.9733 215.521 30.92L215.901 32.76C215.661 32.8933 215.354 33 214.981 33.08C214.621 33.16 214.267 33.2 213.921 33.2ZM226.927 33.2C225.967 33.2 225.047 33.06 224.167 32.78C223.3 32.4867 222.58 32.0933 222.007 31.6L222.847 29.64C224.047 30.5733 225.38 31.04 226.847 31.04C228.647 31.04 229.547 30.3333 229.547 28.92C229.547 28.2533 229.32 27.76 228.867 27.44C228.427 27.1067 227.78 26.94 226.927 26.94H224.667V24.82H226.687C227.434 24.82 228.027 24.64 228.467 24.28C228.907 23.9067 229.127 23.3933 229.127 22.74C229.127 22.1267 228.92 21.66 228.507 21.34C228.107 21.02 227.52 20.86 226.747 20.86C225.36 20.86 224.14 21.34 223.087 22.3L222.247 20.38C222.807 19.8467 223.507 19.4333 224.347 19.14C225.187 18.8467 226.06 18.7 226.967 18.7C228.434 18.7 229.574 19.0333 230.387 19.7C231.2 20.3533 231.607 21.2667 231.607 22.44C231.607 23.2 231.414 23.8667 231.027 24.44C230.64 25.0133 230.114 25.4267 229.447 25.68C230.26 25.9067 230.894 26.3267 231.347 26.94C231.8 27.54 232.027 28.2733 232.027 29.14C232.027 30.3933 231.574 31.3867 230.667 32.12C229.76 32.84 228.514 33.2 226.927 33.2ZM239.199 33.2C237.533 33.2 236.259 32.5733 235.379 31.32C234.499 30.0533 234.059 28.2533 234.059 25.92C234.059 23.56 234.499 21.7667 235.379 20.54C236.259 19.3133 237.533 18.7 239.199 18.7C240.879 18.7 242.153 19.3133 243.019 20.54C243.899 21.7667 244.339 23.5533 244.339 25.9C244.339 28.2467 243.899 30.0533 243.019 31.32C242.139 32.5733 240.866 33.2 239.199 33.2ZM239.199 31.1C240.106 31.1 240.773 30.6867 241.199 29.86C241.639 29.02 241.859 27.7 241.859 25.9C241.859 24.1133 241.639 22.82 241.199 22.02C240.773 21.2067 240.106 20.8 239.199 20.8C238.306 20.8 237.639 21.2067 237.199 22.02C236.759 22.82 236.539 24.1133 236.539 25.9C236.539 27.7 236.759 29.02 237.199 29.86C237.639 30.6867 238.306 31.1 239.199 31.1ZM251.351 33.56L249.711 32.6L257.951 18.34L259.571 19.3L251.351 33.56ZM249.631 27.32C248.511 27.32 247.638 26.9333 247.011 26.16C246.385 25.3867 246.071 24.3333 246.071 23C246.071 21.6667 246.385 20.62 247.011 19.86C247.638 19.0867 248.511 18.7 249.631 18.7C250.751 18.7 251.625 19.0867 252.251 19.86C252.878 20.62 253.191 21.6667 253.191 23C253.191 24.3333 252.878 25.3867 252.251 26.16C251.625 26.9333 250.751 27.32 249.631 27.32ZM249.631 25.64C250.111 25.64 250.485 25.4267 250.751 25C251.018 24.56 251.151 23.8933 251.151 23C251.151 22.1067 251.018 21.4467 250.751 21.02C250.485 20.5933 250.111 20.38 249.631 20.38C249.151 20.38 248.778 20.5933 248.511 21.02C248.245 21.4333 248.111 22.0933 248.111 23C248.111 23.9067 248.245 24.5733 248.511 25C248.778 25.4267 249.151 25.64 249.631 25.64ZM259.671 33.2C258.551 33.2 257.678 32.8133 257.051 32.04C256.425 31.2667 256.111 30.2133 256.111 28.88C256.111 27.5467 256.425 26.5 257.051 25.74C257.678 24.9667 258.551 24.58 259.671 24.58C260.791 24.58 261.665 24.9667 262.291 25.74C262.918 26.5 263.231 27.5467 263.231 28.88C263.231 30.2133 262.918 31.2667 262.291 32.04C261.665 32.8133 260.791 33.2 259.671 33.2ZM259.671 31.52C260.151 31.52 260.525 31.3067 260.791 30.88C261.058 30.44 261.191 29.7733 261.191 28.88C261.191 27.9867 261.058 27.3267 260.791 26.9C260.525 26.4733 260.151 26.26 259.671 26.26C259.191 26.26 258.818 26.4733 258.551 26.9C258.285 27.3133 258.151 27.9733 258.151 28.88C258.151 29.7867 258.285 30.4533 258.551 30.88C258.818 31.3067 259.191 31.52 259.671 31.52Z" fill="white"/>
<defs>
<linearGradient id="paint0_linear_237_139" x1="140.487" y1="-26.8593" x2="146.77" y2="189.422" gradientUnits="userSpaceOnUse">
<stop/>
<stop offset="1" stop-color="#01AED6"/>
</linearGradient>
</defs>
</svg>
