<svg width="46" height="47" viewBox="0 0 46 47" fill="none" xmlns="http://www.w3.org/2000/svg">
<path d="M13.5275 0.641C11.136 0.75479 9.52119 1.14212 8.11682 1.69763L8.11259 1.6993L8.11258 1.69928C6.64783 2.2633 5.32019 3.14719 4.22253 4.29007L4.21596 4.29691L4.2159 4.29685C3.09655 5.41894 2.2294 6.77757 1.67553 8.27847L1.67403 8.28253L1.67402 8.28253C1.12827 9.72284 0.746255 11.3789 0.637511 13.8358C0.527179 16.3287 0.5 17.1191 0.5 23.5C0.5 29.8791 0.525097 30.6692 0.637491 33.168L13.5275 0.641ZM13.5275 0.641H13.5295L13.5412 0.640448C15.9819 0.525645 16.7546 0.5 23 0.5C29.245 0.5 30.018 0.52777 32.4571 0.640467C34.8586 0.751429 36.4763 1.14112 37.8832 1.69764L37.887 1.69912C39.351 2.26441 40.68 3.14835 41.7797 4.29236L41.7796 4.29243L41.7863 4.29912C42.9056 5.42024 43.7698 6.77698 44.3222 8.27805L44.3222 8.27806L44.3241 8.2831C44.8716 9.7228 45.2517 11.3787 45.3625 13.8319C45.3625 13.832 45.3625 13.832 45.3625 13.832L45.862 13.8095M13.5275 0.641L0.637495 33.1681C0.74832 35.6213 1.12837 37.2774 1.67402 38.7175L1.67563 38.7217C2.22865 40.2225 3.09511 41.5812 4.21389 42.7032L4.22017 42.7095L4.22011 42.7096C5.31938 43.852 6.64841 44.7352 8.11432 45.2985L8.11951 45.3004L8.1195 45.3005C9.52606 45.8589 11.1435 46.2486 13.5408 46.3595M45.862 13.8095C45.9749 16.3197 46 17.1187 46 23.5C46 29.8835 45.9728 30.6825 45.862 33.1884M45.862 13.8095C45.7491 11.3099 45.3602 9.60082 44.7915 8.10536L45.862 13.8095ZM45.862 33.1884L45.3625 33.1663C45.3625 33.1663 45.3625 33.1663 45.3625 33.1663C45.2537 35.619 44.8717 37.2748 44.3241 38.7148L44.3241 38.7148L44.3222 38.7198C43.7698 40.2211 42.904 41.5804 41.7858 42.7035L41.7858 42.7034L41.7797 42.7098C40.6803 43.8535 39.3515 44.7353 37.8876 45.2985L37.8875 45.2985L37.8826 45.3005C36.4763 45.8588 34.8588 46.2465 32.4608 46.3596C30.018 46.4744 29.2453 46.5 23 46.5C16.755 46.5 15.982 46.4722 13.5408 46.3595M45.862 33.1884C45.7512 35.688 45.3602 37.397 44.7915 38.8925L45.862 33.1884ZM13.5408 46.3595C13.5408 46.3595 13.5408 46.3595 13.5408 46.3595L13.5177 46.859L13.5408 46.3595ZM7.935 45.7652C6.40011 45.1755 5.00944 44.251 3.85982 43.0563C2.6897 41.8827 1.7842 40.4625 1.20645 38.8946L7.935 45.7652ZM9.24943 4.71607L9.24915 4.71618C8.11413 5.1683 7.28821 5.71262 6.43424 6.5846C5.62047 7.39422 4.99463 8.37855 4.60166 9.46536C4.26751 10.3435 3.8832 11.639 3.7785 13.9815C3.66717 16.4711 3.64418 17.2235 3.64418 23.5C3.64418 29.7765 3.66717 30.5289 3.7785 33.0185C3.8832 35.361 4.26752 36.6565 4.60167 37.5347C4.9938 38.6187 5.61899 39.6038 6.43179 40.413C7.22369 41.2434 8.18921 41.8836 9.25361 42.2856C10.1155 42.628 11.3865 43.0213 13.6826 43.1285C16.1199 43.2422 16.8548 43.2657 23 43.2657C29.1452 43.2657 29.8801 43.2422 32.3174 43.1285C34.6172 43.0212 35.8886 42.6267 36.7506 42.2839L36.7509 42.2838C37.8858 41.8317 38.7118 41.2874 39.5657 40.4155C40.3798 39.6058 41.0058 38.6197 41.3984 37.5345C41.7325 36.6564 42.1168 35.3609 42.2215 33.0185C42.3328 30.5289 42.3558 29.7765 42.3558 23.5C42.3558 17.2235 42.3328 16.4711 42.2215 13.9815C42.1166 11.6354 41.7313 10.3395 41.3968 9.4613L41.3967 9.46102C40.9554 8.3045 40.4239 7.46199 39.5706 6.58955C38.7782 5.75822 37.8135 5.11733 36.7464 4.71441C35.8845 4.37205 34.6135 3.97868 32.3174 3.87154C29.8801 3.75776 29.1431 3.73427 23 3.73427C16.8569 3.73427 16.1199 3.75776 13.6826 3.87154C11.3828 3.97885 10.1114 4.37332 9.24943 4.71607ZM19.8672 31.2048C21.6163 31.9485 23.5645 32.049 25.3784 31.4886C27.1924 30.9282 28.7572 29.7424 29.8075 28.1366C30.8575 26.5311 31.3287 24.6042 31.1421 22.6849C30.9555 20.7658 30.1226 18.9705 28.7831 17.6063C27.929 16.7341 26.8955 16.0656 25.7566 15.6495C24.6177 15.2335 23.4024 15.0805 22.1982 15.2018C20.994 15.3232 19.8317 15.7158 18.795 16.3508C17.7583 16.9857 16.8732 17.8471 16.2028 18.8721C15.5324 19.8971 15.0933 21.0606 14.9163 22.2787C14.7393 23.4967 14.8288 24.7398 15.1785 25.9185C15.5282 27.0973 16.1296 28.183 16.9401 29.0972C17.7506 30.0115 18.7502 30.7315 19.8672 31.2048ZM14.9979 15.3085C16.0497 14.2338 17.2979 13.3819 18.6708 12.8009C20.0436 12.2198 21.5147 11.9209 23 11.9209C24.4853 11.9209 25.9564 12.2198 27.3292 12.8009C28.7021 13.3819 29.9503 14.2338 31.0021 15.3085C32.054 16.3833 32.8889 17.6598 33.4588 19.0654C34.0286 20.471 34.3221 21.9779 34.3221 23.5C34.3221 25.0221 34.0286 26.529 33.4588 27.9346C32.8889 29.3402 32.054 30.6167 31.0021 31.6915C28.878 33.8618 25.9993 35.0791 23 35.0791C20.0007 35.0791 17.122 33.8618 14.9979 31.6915C12.8734 29.5207 11.6779 26.5744 11.6779 23.5C11.6779 20.4256 12.8734 17.4793 14.9979 15.3085ZM37.6252 12.0948C37.5007 12.384 37.3209 12.6441 37.097 12.8598C36.6619 13.2792 36.0861 13.507 35.4924 13.4981C34.8987 13.4893 34.3295 13.2444 33.9063 12.8121C33.4828 12.3794 33.2392 11.7929 33.2304 11.1766C33.2216 10.5603 33.4484 9.9666 33.8596 9.52127C34.0709 9.29239 34.3244 9.1098 34.6047 8.98374C34.8851 8.85769 35.1869 8.79056 35.4924 8.78601C35.7979 8.78146 36.1015 8.83957 36.3852 8.95718C36.669 9.0748 36.9275 9.2497 37.1451 9.47209C37.3628 9.6945 37.5352 9.95988 37.6515 10.2528C37.7678 10.5457 37.8255 10.8599 37.821 11.1766C37.8165 11.4933 37.7498 11.8055 37.6252 12.0948Z" fill="#FEF5ED" stroke="#FEF5ED"/>
</svg>
