<svg width="280" height="169" viewBox="0 0 280 169" fill="none" xmlns="http://www.w3.org/2000/svg">
<rect y="0.51123" width="279.05" height="167.54" rx="10" fill="url(#paint0_linear_237_102)"/>
<mask id="mask0_237_102" style="mask-type:alpha" maskUnits="userSpaceOnUse" x="0" y="0" width="280" height="169">
<rect y="0.51123" width="279.05" height="167.54" rx="10" fill="#ED713C"/>
</mask>
<g mask="url(#mask0_237_102)">
<ellipse opacity="0.1" cx="21.7041" cy="131.69" rx="142.183" ry="100.103" fill="black"/>
<ellipse opacity="0.08" cx="257.346" cy="-82.6903" rx="142.183" ry="100.103" fill="black"/>
</g>
<path fill-rule="evenodd" clip-rule="evenodd" d="M24.4322 136.428C24.4322 134.406 24.3975 132.71 24.2935 131.197H27.9044L28.0737 133.796H28.175C28.9935 132.423 30.4902 130.799 33.282 130.799C35.4611 130.799 37.1632 132.101 37.8769 134.048H37.947C38.5267 133.074 39.2053 132.353 39.9877 131.846C40.9077 131.162 41.9635 130.799 43.3252 130.799C46.082 130.799 48.8718 132.783 48.8718 138.412V148.764H44.7872V139.062C44.7872 136.14 43.8356 134.406 41.8282 134.406C40.396 134.406 39.3396 135.491 38.9 136.754C38.7966 137.185 38.6946 137.727 38.6946 138.228V148.764H34.6087V138.591C34.6087 136.14 33.691 134.406 31.7503 134.406C30.1842 134.406 29.1302 135.707 28.7548 136.931C28.5834 137.367 28.5147 137.87 28.5147 138.374V148.764H24.4322V136.428Z" fill="white"/>
<path fill-rule="evenodd" clip-rule="evenodd" d="M64.7858 144.545C64.7858 146.131 64.8538 147.68 65.0241 148.765H61.2442L60.9729 146.818H60.8695C59.8488 148.19 58.1127 149.162 55.9683 149.162C52.6314 149.162 50.76 146.603 50.76 143.932C50.76 139.493 54.4691 137.259 60.5972 137.294V137.004C60.5972 135.85 60.1541 133.939 57.227 133.939C55.5922 133.939 53.8894 134.481 52.7667 135.237L51.9486 132.353C53.1764 131.558 55.323 130.8 57.942 130.8C63.2547 130.8 64.7858 134.373 64.7858 138.195V144.545ZM60.699 140.18C57.7379 140.108 54.9131 140.793 54.9131 143.463C54.9131 145.193 55.9682 145.988 57.2963 145.988C58.9623 145.988 60.1897 144.833 60.563 143.571C60.6643 143.246 60.699 142.884 60.699 142.597V140.18Z" fill="white"/>
<path fill-rule="evenodd" clip-rule="evenodd" d="M67.6806 136.428C67.6806 134.406 67.6432 132.71 67.5439 131.197H71.2174L71.4227 133.831H71.5234C72.2391 132.461 74.0432 130.799 76.8 130.799C79.6945 130.799 82.69 132.783 82.69 138.339V148.764H78.5035V138.846C78.5035 136.319 77.6184 134.406 75.3373 134.406C73.6692 134.406 72.5121 135.669 72.0684 137.005C71.9345 137.402 71.8991 137.945 71.8991 138.446V148.764H67.6806V136.428Z" fill="white"/>
<path fill-rule="evenodd" clip-rule="evenodd" d="M100.843 124.139V143.821C100.843 145.625 100.91 147.576 100.979 148.765H97.2338L97.0662 145.988H96.9968C96.0091 147.937 93.9975 149.162 91.5832 149.162C87.636 149.162 84.5032 145.591 84.5032 140.18C84.4685 134.3 87.9407 130.8 91.9232 130.8C94.2033 130.8 95.8387 131.811 96.5864 133.111H96.6554V124.139H100.843ZM96.6553 138.518C96.6553 138.161 96.6202 137.726 96.5547 137.366C96.1796 135.635 94.8512 134.227 92.9448 134.227C90.2556 134.227 88.7576 136.754 88.7576 140.036C88.7576 143.246 90.2556 145.591 92.9108 145.591C94.6122 145.591 96.1109 144.365 96.5189 142.454C96.6202 142.055 96.6553 141.623 96.6553 141.152V138.518Z" fill="white"/>
<path fill-rule="evenodd" clip-rule="evenodd" d="M103.802 148.764H108.027V131.198H103.802V148.764Z" fill="white"/>
<path fill-rule="evenodd" clip-rule="evenodd" d="M110.986 136.86C110.986 134.48 110.951 132.782 110.849 131.197H114.492L114.626 134.55H114.767C115.582 132.061 117.523 131.197 119.293 131.197C119.7 131.197 119.938 131.123 120.28 131.197V135.094C119.938 135.022 119.565 134.95 119.054 134.95C117.046 134.95 115.683 136.319 115.309 138.302C115.243 138.699 115.174 139.17 115.174 139.677V148.765H110.986V136.86Z" fill="white"/>
<path fill-rule="evenodd" clip-rule="evenodd" d="M122.22 148.764H126.439V131.198H122.22V148.764Z" fill="white"/>
<path fill-rule="evenodd" clip-rule="evenodd" d="M121.222 109.959C118.687 111.514 112.71 115.147 110.478 116.5C109.118 117.234 105.968 117.555 104.187 115.009C104.155 114.963 101.817 111.868 101.722 111.751C101.655 111.669 100.144 109.294 96.7761 109.219C96.2786 109.207 93.8049 109.193 91.3913 110.646C88.1831 112.589 80.7218 117.109 80.7218 117.109C80.7198 117.109 80.7198 117.113 80.7159 117.113C77.649 118.973 75.2593 120.421 75.2593 120.421L78.0827 124.096C79.4035 125.833 82.382 127.178 84.9649 125.607C84.9649 125.607 94.5089 119.75 94.5439 119.733C98.6715 117.334 101.856 117.334 103.97 118.227C105.868 119.076 107.518 121.193 107.518 121.193C107.518 121.193 109.676 124.026 110.056 124.522C111.284 126.123 113.315 125.494 113.315 125.494C113.315 125.494 114.068 125.404 115.203 124.69C115.203 124.69 124.448 119.009 124.454 119.007C127.389 117.182 130.081 116.842 131.457 116.976C135.767 117.391 137.106 120.581 138.974 122.807C140.075 124.116 141.068 124.86 142.586 124.822C143.584 124.8 144.711 124.159 144.878 124.043L155.948 117.273C155.948 117.273 154.812 115.46 152.486 112.639C150.404 110.123 148.192 111.261 146.429 112.187C145.688 112.575 143.004 114.467 140.346 115.787C138.451 116.727 135.729 116.444 134.238 114.491C134.149 114.372 131.736 111.277 131.482 110.896C130.508 109.603 128.608 108.445 126.173 108.445C124.692 108.445 123.012 108.873 121.222 109.959Z" fill="url(#paint1_linear_237_102)"/>
<path d="M137.54 38V23.9H142.78C145.14 23.9 146.96 24.5067 148.24 25.72C149.533 26.9333 150.18 28.6733 150.18 30.94C150.18 33.1933 149.533 34.9333 148.24 36.16C146.96 37.3867 145.14 38 142.78 38H137.54ZM140.1 35.88H142.62C145.873 35.88 147.5 34.2333 147.5 30.94C147.5 27.66 145.873 26.02 142.62 26.02H140.1V35.88ZM152.374 26.12V23.68H155.174V26.12H152.374ZM152.534 38V28.22H155.034V38H152.534ZM161.212 38.2C160.385 38.2 159.612 38.1 158.892 37.9C158.172 37.7 157.572 37.4133 157.092 37.04L157.732 35.4C158.225 35.7333 158.779 35.9933 159.392 36.18C160.005 36.3533 160.619 36.44 161.232 36.44C161.872 36.44 162.345 36.3333 162.652 36.12C162.972 35.8933 163.132 35.6 163.132 35.24C163.132 34.68 162.719 34.32 161.892 34.16L159.892 33.78C158.199 33.46 157.352 32.58 157.352 31.14C157.352 30.5 157.525 29.9467 157.872 29.48C158.232 29.0133 158.725 28.6533 159.352 28.4C159.979 28.1467 160.699 28.02 161.512 28.02C162.205 28.02 162.872 28.12 163.512 28.32C164.152 28.5067 164.699 28.7933 165.152 29.18L164.472 30.82C164.085 30.5 163.619 30.2467 163.072 30.06C162.539 29.8733 162.025 29.78 161.532 29.78C160.879 29.78 160.392 29.8933 160.072 30.12C159.765 30.3467 159.612 30.6467 159.612 31.02C159.612 31.6067 159.992 31.9667 160.752 32.1L162.752 32.48C163.619 32.64 164.272 32.9333 164.712 33.36C165.165 33.7867 165.392 34.36 165.392 35.08C165.392 36.0533 165.012 36.82 164.252 37.38C163.492 37.9267 162.479 38.2 161.212 38.2ZM171.918 38.2C170.891 38.2 169.998 37.9933 169.238 37.58C168.478 37.1533 167.891 36.5533 167.478 35.78C167.064 35.0067 166.858 34.1 166.858 33.06C166.858 32.02 167.064 31.1267 167.478 30.38C167.891 29.62 168.478 29.04 169.238 28.64C169.998 28.2267 170.891 28.02 171.918 28.02C172.544 28.02 173.164 28.12 173.778 28.32C174.391 28.52 174.898 28.8 175.298 29.16L174.558 30.9C174.211 30.5933 173.818 30.36 173.378 30.2C172.951 30.04 172.538 29.96 172.138 29.96C171.271 29.96 170.598 30.2333 170.118 30.78C169.651 31.3133 169.418 32.08 169.418 33.08C169.418 34.0667 169.651 34.8467 170.118 35.42C170.598 35.98 171.271 36.26 172.138 36.26C172.524 36.26 172.938 36.18 173.378 36.02C173.818 35.86 174.211 35.62 174.558 35.3L175.298 37.06C174.898 37.4067 174.384 37.6867 173.758 37.9C173.144 38.1 172.531 38.2 171.918 38.2ZM181.096 38.2C180.083 38.2 179.203 37.9933 178.456 37.58C177.709 37.1667 177.129 36.58 176.716 35.82C176.303 35.0467 176.096 34.14 176.096 33.1C176.096 32.06 176.303 31.16 176.716 30.4C177.129 29.64 177.709 29.0533 178.456 28.64C179.203 28.2267 180.083 28.02 181.096 28.02C182.109 28.02 182.989 28.2267 183.736 28.64C184.483 29.0533 185.063 29.64 185.476 30.4C185.889 31.16 186.096 32.06 186.096 33.1C186.096 34.14 185.889 35.0467 185.476 35.82C185.063 36.58 184.483 37.1667 183.736 37.58C182.989 37.9933 182.109 38.2 181.096 38.2ZM181.096 36.3C181.843 36.3 182.443 36.0333 182.896 35.5C183.349 34.9533 183.576 34.1533 183.576 33.1C183.576 32.0333 183.349 31.24 182.896 30.72C182.443 30.1867 181.843 29.92 181.096 29.92C180.349 29.92 179.749 30.1867 179.296 30.72C178.843 31.24 178.616 32.0333 178.616 33.1C178.616 34.1533 178.843 34.9533 179.296 35.5C179.749 36.0333 180.349 36.3 181.096 36.3ZM191.699 38.2C189.299 38.2 188.099 36.8533 188.099 34.16V28.22H190.599V34.2C190.599 34.8933 190.739 35.4067 191.019 35.74C191.299 36.0733 191.746 36.24 192.359 36.24C193.026 36.24 193.573 36.0133 193.999 35.56C194.426 35.0933 194.639 34.48 194.639 33.72V28.22H197.139V38H194.699V36.54C194.046 37.6467 193.046 38.2 191.699 38.2ZM199.741 38V28.22H202.181V29.74C202.515 29.18 202.961 28.7533 203.521 28.46C204.095 28.1667 204.735 28.02 205.441 28.02C207.748 28.02 208.901 29.36 208.901 32.04V38H206.401V32.16C206.401 31.4 206.255 30.8467 205.961 30.5C205.681 30.1533 205.241 29.98 204.641 29.98C203.908 29.98 203.321 30.2133 202.881 30.68C202.455 31.1333 202.241 31.74 202.241 32.5V38H199.741ZM215.921 38.2C213.334 38.2 212.041 36.92 212.041 34.36V30.1H210.161V28.22H212.041V25.3H214.541V28.22H217.501V30.1H214.541V34.22C214.541 34.86 214.681 35.34 214.961 35.66C215.241 35.98 215.694 36.14 216.321 36.14C216.507 36.14 216.701 36.12 216.901 36.08C217.101 36.0267 217.307 35.9733 217.521 35.92L217.901 37.76C217.661 37.8933 217.354 38 216.981 38.08C216.621 38.16 216.267 38.2 215.921 38.2ZM224.807 38V36.1L229.367 31.24C229.98 30.5733 230.42 29.9867 230.687 29.48C230.954 28.96 231.087 28.4333 231.087 27.9C231.087 26.54 230.267 25.86 228.627 25.86C227.347 25.86 226.167 26.34 225.087 27.3L224.227 25.38C224.787 24.8733 225.487 24.4667 226.327 24.16C227.167 23.8533 228.04 23.7 228.947 23.7C230.454 23.7 231.607 24.04 232.407 24.72C233.22 25.4 233.627 26.3733 233.627 27.64C233.627 28.4933 233.42 29.3133 233.007 30.1C232.607 30.8867 231.974 31.7333 231.107 32.64L228.007 35.88H234.167V38H224.807ZM241.199 38.2C239.533 38.2 238.259 37.5733 237.379 36.32C236.499 35.0533 236.059 33.2533 236.059 30.92C236.059 28.56 236.499 26.7667 237.379 25.54C238.259 24.3133 239.533 23.7 241.199 23.7C242.879 23.7 244.153 24.3133 245.019 25.54C245.899 26.7667 246.339 28.5533 246.339 30.9C246.339 33.2467 245.899 35.0533 245.019 36.32C244.139 37.5733 242.866 38.2 241.199 38.2ZM241.199 36.1C242.106 36.1 242.773 35.6867 243.199 34.86C243.639 34.02 243.859 32.7 243.859 30.9C243.859 29.1133 243.639 27.82 243.199 27.02C242.773 26.2067 242.106 25.8 241.199 25.8C240.306 25.8 239.639 26.2067 239.199 27.02C238.759 27.82 238.539 29.1133 238.539 30.9C238.539 32.7 238.759 34.02 239.199 34.86C239.639 35.6867 240.306 36.1 241.199 36.1ZM253.351 38.56L251.711 37.6L259.951 23.34L261.571 24.3L253.351 38.56ZM251.631 32.32C250.511 32.32 249.638 31.9333 249.011 31.16C248.385 30.3867 248.071 29.3333 248.071 28C248.071 26.6667 248.385 25.62 249.011 24.86C249.638 24.0867 250.511 23.7 251.631 23.7C252.751 23.7 253.625 24.0867 254.251 24.86C254.878 25.62 255.191 26.6667 255.191 28C255.191 29.3333 254.878 30.3867 254.251 31.16C253.625 31.9333 252.751 32.32 251.631 32.32ZM251.631 30.64C252.111 30.64 252.485 30.4267 252.751 30C253.018 29.56 253.151 28.8933 253.151 28C253.151 27.1067 253.018 26.4467 252.751 26.02C252.485 25.5933 252.111 25.38 251.631 25.38C251.151 25.38 250.778 25.5933 250.511 26.02C250.245 26.4333 250.111 27.0933 250.111 28C250.111 28.9067 250.245 29.5733 250.511 30C250.778 30.4267 251.151 30.64 251.631 30.64ZM261.671 38.2C260.551 38.2 259.678 37.8133 259.051 37.04C258.425 36.2667 258.111 35.2133 258.111 33.88C258.111 32.5467 258.425 31.5 259.051 30.74C259.678 29.9667 260.551 29.58 261.671 29.58C262.791 29.58 263.665 29.9667 264.291 30.74C264.918 31.5 265.231 32.5467 265.231 33.88C265.231 35.2133 264.918 36.2667 264.291 37.04C263.665 37.8133 262.791 38.2 261.671 38.2ZM261.671 36.52C262.151 36.52 262.525 36.3067 262.791 35.88C263.058 35.44 263.191 34.7733 263.191 33.88C263.191 32.9867 263.058 32.3267 262.791 31.9C262.525 31.4733 262.151 31.26 261.671 31.26C261.191 31.26 260.818 31.4733 260.551 31.9C260.285 32.3133 260.151 32.9733 260.151 33.88C260.151 34.7867 260.285 35.4533 260.551 35.88C260.818 36.3067 261.191 36.52 261.671 36.52Z" fill="white"/>
<defs>
<linearGradient id="paint0_linear_237_102" x1="140.487" y1="-27.2651" x2="146.77" y2="189.016" gradientUnits="userSpaceOnUse">
<stop/>
<stop offset="0.734375" stop-color="#0D3B6F"/>
</linearGradient>
<linearGradient id="paint1_linear_237_102" x1="75.2593" y1="126.302" x2="155.948" y2="126.302" gradientUnits="userSpaceOnUse">
<stop stop-color="#FFCA06"/>
<stop offset="0.330844" stop-color="#FBAA18"/>
<stop offset="0.694742" stop-color="#FFC907"/>
<stop offset="1" stop-color="#FAA619"/>
</linearGradient>
</defs>
</svg>
