<svg width="280" height="169" viewBox="0 0 280 169" fill="none" xmlns="http://www.w3.org/2000/svg">
<rect y="0.916992" width="279.05" height="167.54" rx="10" fill="url(#paint0_linear_237_123)"/>
<mask id="mask0_237_123" style="mask-type:alpha" maskUnits="userSpaceOnUse" x="0" y="0" width="280" height="169">
<rect y="0.916992" width="279.05" height="167.54" rx="10" fill="#ED713C"/>
</mask>
<g mask="url(#mask0_237_123)">
<ellipse opacity="0.1" cx="21.7031" cy="125.69" rx="142.183" ry="100.103" fill="black"/>
<ellipse opacity="0.08" cx="257.346" cy="-88.6902" rx="142.183" ry="100.103" fill="black"/>
</g>
<path fill-rule="evenodd" clip-rule="evenodd" d="M132.818 109.382C128.983 105.908 123.711 104.285 118.639 104.781C117.372 104.9 116.115 105.131 114.895 105.501C110.426 106.82 106.506 109.962 104.166 114.082C101.019 119.514 100.643 126.487 103.071 132.28C104.875 136.644 108.322 140.266 112.549 142.187C117.349 144.368 123.03 144.434 127.873 142.354C130.342 141.288 132.581 139.66 134.376 137.621C137.653 133.948 139.397 128.935 139.286 123.972C139.257 118.468 136.903 112.981 132.818 109.382ZM110.86 116.273C112.662 113.516 115.634 111.594 118.852 111.184C121.403 110.828 124.079 111.35 126.289 112.721C128.413 114.014 130.072 116.042 131.064 118.353C133.023 122.965 132.584 128.68 129.626 132.747C128.223 134.673 126.254 136.176 124.018 136.916C121.209 137.855 118.047 137.653 115.387 136.331C113.29 135.296 111.536 133.58 110.373 131.516C107.773 126.881 107.923 120.712 110.86 116.273ZM50.4123 106.811C46.9519 104.971 42.9251 104.356 39.0752 104.88C35.3636 105.37 31.7962 107.022 29.028 109.613C26.1883 112.219 24.1949 115.754 23.333 119.556C22.2927 124.07 22.7722 128.958 24.7628 133.132C26.5907 137.031 29.7671 140.247 33.5956 142.064C37.3871 143.873 41.7578 144.307 45.8389 143.427C49.7602 142.589 53.3818 140.382 55.9917 137.266C58.4803 134.324 60.03 130.586 60.4652 126.723C60.8862 123.12 60.3653 119.4 58.9341 116.078C57.2374 112.112 54.1823 108.767 50.4123 106.811ZM35.0196 113.264C36.5465 112.133 38.3573 111.421 40.2223 111.175C42.4555 110.879 44.78 111.242 46.7991 112.277C49.1764 113.468 51.0843 115.551 52.2073 117.999C53.483 120.728 53.8297 123.874 53.3489 126.848C52.9051 129.563 51.6964 132.182 49.7643 134.114C48.1034 135.834 45.8944 136.981 43.5642 137.351C40.7103 137.812 37.6809 137.178 35.2893 135.498C32.8192 133.807 31.0855 131.109 30.3363 128.179C29.5972 125.286 29.6899 122.159 30.656 119.334C31.4779 116.927 32.9876 114.749 35.0196 113.264ZM62.1875 105.754L62.1861 105.754C62.1852 107.152 62.1855 108.55 62.1858 109.949C62.186 110.648 62.1861 111.347 62.1861 112.047C63.1107 112.049 64.0346 112.048 64.9588 112.048C65.2669 112.048 65.5751 112.048 65.8834 112.048C68.1703 117.445 70.4543 122.844 72.7383 128.243C74.3962 132.162 76.054 136.08 77.7128 139.998C78.4848 141.817 80.1073 143.235 81.9951 143.685C82.682 143.869 83.3904 143.861 84.0964 143.854C84.3159 143.852 84.5351 143.849 84.7534 143.853C86.9199 138.618 89.0934 133.385 91.2669 128.153C93.8578 121.916 96.4487 115.679 99.0273 109.438C99.093 108.678 99.083 107.912 99.0729 107.145C99.0668 106.68 99.0607 106.216 99.0715 105.753H87.0879V105.754C87.0865 107.853 87.0851 109.951 87.0879 112.048C87.6096 112.049 88.1312 112.048 88.6528 112.048C89.3484 112.048 90.0439 112.048 90.7395 112.049C89.7854 114.447 88.8337 116.846 87.882 119.245C86.0366 123.897 84.1912 128.548 82.329 133.192C80.8786 129.669 79.4286 126.145 77.9785 122.622C76.5283 119.098 75.078 115.574 73.6274 112.049C74.241 112.047 74.855 112.048 75.4691 112.048C76.0832 112.048 76.6975 112.049 77.3118 112.047V105.754C72.2709 105.751 67.2299 105.753 62.1875 105.754Z" fill="white"/>
<path d="M134.54 33V18.9H139.78C142.14 18.9 143.96 19.5067 145.24 20.72C146.533 21.9333 147.18 23.6733 147.18 25.94C147.18 28.1933 146.533 29.9333 145.24 31.16C143.96 32.3867 142.14 33 139.78 33H134.54ZM137.1 30.88H139.62C142.873 30.88 144.5 29.2333 144.5 25.94C144.5 22.66 142.873 21.02 139.62 21.02H137.1V30.88ZM149.374 21.12V18.68H152.174V21.12H149.374ZM149.534 33V23.22H152.034V33H149.534ZM158.212 33.2C157.385 33.2 156.612 33.1 155.892 32.9C155.172 32.7 154.572 32.4133 154.092 32.04L154.732 30.4C155.225 30.7333 155.779 30.9933 156.392 31.18C157.005 31.3533 157.619 31.44 158.232 31.44C158.872 31.44 159.345 31.3333 159.652 31.12C159.972 30.8933 160.132 30.6 160.132 30.24C160.132 29.68 159.719 29.32 158.892 29.16L156.892 28.78C155.199 28.46 154.352 27.58 154.352 26.14C154.352 25.5 154.525 24.9467 154.872 24.48C155.232 24.0133 155.725 23.6533 156.352 23.4C156.979 23.1467 157.699 23.02 158.512 23.02C159.205 23.02 159.872 23.12 160.512 23.32C161.152 23.5067 161.699 23.7933 162.152 24.18L161.472 25.82C161.085 25.5 160.619 25.2467 160.072 25.06C159.539 24.8733 159.025 24.78 158.532 24.78C157.879 24.78 157.392 24.8933 157.072 25.12C156.765 25.3467 156.612 25.6467 156.612 26.02C156.612 26.6067 156.992 26.9667 157.752 27.1L159.752 27.48C160.619 27.64 161.272 27.9333 161.712 28.36C162.165 28.7867 162.392 29.36 162.392 30.08C162.392 31.0533 162.012 31.82 161.252 32.38C160.492 32.9267 159.479 33.2 158.212 33.2ZM168.918 33.2C167.891 33.2 166.998 32.9933 166.238 32.58C165.478 32.1533 164.891 31.5533 164.478 30.78C164.064 30.0067 163.858 29.1 163.858 28.06C163.858 27.02 164.064 26.1267 164.478 25.38C164.891 24.62 165.478 24.04 166.238 23.64C166.998 23.2267 167.891 23.02 168.918 23.02C169.544 23.02 170.164 23.12 170.778 23.32C171.391 23.52 171.898 23.8 172.298 24.16L171.558 25.9C171.211 25.5933 170.818 25.36 170.378 25.2C169.951 25.04 169.538 24.96 169.138 24.96C168.271 24.96 167.598 25.2333 167.118 25.78C166.651 26.3133 166.418 27.08 166.418 28.08C166.418 29.0667 166.651 29.8467 167.118 30.42C167.598 30.98 168.271 31.26 169.138 31.26C169.524 31.26 169.938 31.18 170.378 31.02C170.818 30.86 171.211 30.62 171.558 30.3L172.298 32.06C171.898 32.4067 171.384 32.6867 170.758 32.9C170.144 33.1 169.531 33.2 168.918 33.2ZM178.096 33.2C177.083 33.2 176.203 32.9933 175.456 32.58C174.709 32.1667 174.129 31.58 173.716 30.82C173.303 30.0467 173.096 29.14 173.096 28.1C173.096 27.06 173.303 26.16 173.716 25.4C174.129 24.64 174.709 24.0533 175.456 23.64C176.203 23.2267 177.083 23.02 178.096 23.02C179.109 23.02 179.989 23.2267 180.736 23.64C181.483 24.0533 182.063 24.64 182.476 25.4C182.889 26.16 183.096 27.06 183.096 28.1C183.096 29.14 182.889 30.0467 182.476 30.82C182.063 31.58 181.483 32.1667 180.736 32.58C179.989 32.9933 179.109 33.2 178.096 33.2ZM178.096 31.3C178.843 31.3 179.443 31.0333 179.896 30.5C180.349 29.9533 180.576 29.1533 180.576 28.1C180.576 27.0333 180.349 26.24 179.896 25.72C179.443 25.1867 178.843 24.92 178.096 24.92C177.349 24.92 176.749 25.1867 176.296 25.72C175.843 26.24 175.616 27.0333 175.616 28.1C175.616 29.1533 175.843 29.9533 176.296 30.5C176.749 31.0333 177.349 31.3 178.096 31.3ZM188.699 33.2C186.299 33.2 185.099 31.8533 185.099 29.16V23.22H187.599V29.2C187.599 29.8933 187.739 30.4067 188.019 30.74C188.299 31.0733 188.746 31.24 189.359 31.24C190.026 31.24 190.573 31.0133 190.999 30.56C191.426 30.0933 191.639 29.48 191.639 28.72V23.22H194.139V33H191.699V31.54C191.046 32.6467 190.046 33.2 188.699 33.2ZM196.741 33V23.22H199.181V24.74C199.515 24.18 199.961 23.7533 200.521 23.46C201.095 23.1667 201.735 23.02 202.441 23.02C204.748 23.02 205.901 24.36 205.901 27.04V33H203.401V27.16C203.401 26.4 203.255 25.8467 202.961 25.5C202.681 25.1533 202.241 24.98 201.641 24.98C200.908 24.98 200.321 25.2133 199.881 25.68C199.455 26.1333 199.241 26.74 199.241 27.5V33H196.741ZM212.921 33.2C210.334 33.2 209.041 31.92 209.041 29.36V25.1H207.161V23.22H209.041V20.3H211.541V23.22H214.501V25.1H211.541V29.22C211.541 29.86 211.681 30.34 211.961 30.66C212.241 30.98 212.694 31.14 213.321 31.14C213.507 31.14 213.701 31.12 213.901 31.08C214.101 31.0267 214.307 30.9733 214.521 30.92L214.901 32.76C214.661 32.8933 214.354 33 213.981 33.08C213.621 33.16 213.267 33.2 212.921 33.2ZM221.807 33V31.1L226.367 26.24C226.98 25.5733 227.42 24.9867 227.687 24.48C227.954 23.96 228.087 23.4333 228.087 22.9C228.087 21.54 227.267 20.86 225.627 20.86C224.347 20.86 223.167 21.34 222.087 22.3L221.227 20.38C221.787 19.8733 222.487 19.4667 223.327 19.16C224.167 18.8533 225.04 18.7 225.947 18.7C227.454 18.7 228.607 19.04 229.407 19.72C230.22 20.4 230.627 21.3733 230.627 22.64C230.627 23.4933 230.42 24.3133 230.007 25.1C229.607 25.8867 228.974 26.7333 228.107 27.64L225.007 30.88H231.167V33H221.807ZM238.319 33.2C237.399 33.2 236.506 33.06 235.639 32.78C234.773 32.4867 234.066 32.0933 233.519 31.6L234.359 29.64C235.573 30.5733 236.879 31.04 238.279 31.04C239.119 31.04 239.773 30.8267 240.239 30.4C240.719 29.96 240.959 29.3733 240.959 28.64C240.959 27.8933 240.733 27.2933 240.279 26.84C239.826 26.3733 239.206 26.14 238.419 26.14C237.299 26.14 236.373 26.5867 235.639 27.48H233.919V18.9H242.579V21.02H236.419V24.84C237.126 24.3067 237.993 24.04 239.019 24.04C239.913 24.04 240.686 24.2333 241.339 24.62C242.006 24.9933 242.519 25.52 242.879 26.2C243.253 26.8667 243.439 27.6467 243.439 28.54C243.439 29.46 243.233 30.2733 242.819 30.98C242.406 31.6733 241.813 32.22 241.039 32.62C240.279 33.0067 239.373 33.2 238.319 33.2ZM250.351 33.56L248.711 32.6L256.951 18.34L258.571 19.3L250.351 33.56ZM248.631 27.32C247.511 27.32 246.638 26.9333 246.011 26.16C245.385 25.3867 245.071 24.3333 245.071 23C245.071 21.6667 245.385 20.62 246.011 19.86C246.638 19.0867 247.511 18.7 248.631 18.7C249.751 18.7 250.625 19.0867 251.251 19.86C251.878 20.62 252.191 21.6667 252.191 23C252.191 24.3333 251.878 25.3867 251.251 26.16C250.625 26.9333 249.751 27.32 248.631 27.32ZM248.631 25.64C249.111 25.64 249.485 25.4267 249.751 25C250.018 24.56 250.151 23.8933 250.151 23C250.151 22.1067 250.018 21.4467 249.751 21.02C249.485 20.5933 249.111 20.38 248.631 20.38C248.151 20.38 247.778 20.5933 247.511 21.02C247.245 21.4333 247.111 22.0933 247.111 23C247.111 23.9067 247.245 24.5733 247.511 25C247.778 25.4267 248.151 25.64 248.631 25.64ZM258.671 33.2C257.551 33.2 256.678 32.8133 256.051 32.04C255.425 31.2667 255.111 30.2133 255.111 28.88C255.111 27.5467 255.425 26.5 256.051 25.74C256.678 24.9667 257.551 24.58 258.671 24.58C259.791 24.58 260.665 24.9667 261.291 25.74C261.918 26.5 262.231 27.5467 262.231 28.88C262.231 30.2133 261.918 31.2667 261.291 32.04C260.665 32.8133 259.791 33.2 258.671 33.2ZM258.671 31.52C259.151 31.52 259.525 31.3067 259.791 30.88C260.058 30.44 260.191 29.7733 260.191 28.88C260.191 27.9867 260.058 27.3267 259.791 26.9C259.525 26.4733 259.151 26.26 258.671 26.26C258.191 26.26 257.818 26.4733 257.551 26.9C257.285 27.3133 257.151 27.9733 257.151 28.88C257.151 29.7867 257.285 30.4533 257.551 30.88C257.818 31.3067 258.191 31.52 258.671 31.52Z" fill="white"/>
<defs>
<linearGradient id="paint0_linear_237_123" x1="140.487" y1="-26.8593" x2="146.77" y2="189.422" gradientUnits="userSpaceOnUse">
<stop/>
<stop offset="0.885417" stop-color="#4D3394"/>
</linearGradient>
</defs>
</svg>
