<svg width="39" height="45" viewBox="0 0 39 45" fill="none" xmlns="http://www.w3.org/2000/svg">
<path d="M22.2857 0H27.8014C28.2026 2.01094 29.3057 4.54781 31.2418 7.065C33.1361 9.53156 35.6488 11.25 39 11.25V16.875C34.1166 16.875 30.4479 14.5856 27.8571 11.7309V30.9375C27.8571 33.7188 27.0402 36.4376 25.5098 38.7502C23.9793 41.0628 21.8039 42.8652 19.2588 43.9296C16.7137 44.9939 13.9131 45.2724 11.2112 44.7298C8.50937 44.1872 6.02754 42.8479 4.07959 40.8812C2.13164 38.9145 0.805077 36.4088 0.26764 33.681C-0.269797 30.9531 0.00603503 28.1256 1.06026 25.556C2.11448 22.9864 3.89974 20.7902 6.19028 19.245C8.48082 17.6997 11.1738 16.875 13.9286 16.875V22.5C12.2757 22.5 10.6599 22.9949 9.2856 23.922C7.91127 24.8491 6.84012 26.1669 6.20758 27.7086C5.57505 29.2504 5.40955 30.9469 5.73201 32.5836C6.05448 34.2203 6.85042 35.7237 8.01918 36.9037C9.18795 38.0837 10.6771 38.8873 12.2982 39.2129C13.9193 39.5384 15.5996 39.3713 17.1267 38.7327C18.6538 38.0941 19.959 37.0127 20.8773 35.6251C21.7956 34.2376 22.2857 32.6063 22.2857 30.9375V0Z" fill="#FEF5ED"/>
</svg>
