<svg width="47" height="48" viewBox="0 0 47 48" fill="none" xmlns="http://www.w3.org/2000/svg">
<path d="M26.7138 10.7613C22.6197 7.37271 6.60144 8.133 6.60144 8.133L6.03687 46.323C6.03687 46.323 27.3488 46.4797 33.9112 46.323C40.4737 46.1663 45.0608 41.0501 45.1312 37.1083C45.2016 33.1665 45.1312 8.82545 45.1312 8.82545C36.9454 7.85579 30.8771 8.61725 26.7138 10.7613V10.7613Z" stroke="#FEF5ED" stroke-width="2" stroke-linecap="round" stroke-linejoin="round"/>
<path d="M17.7475 32.0568C22.3462 32.0568 26.0742 28.4035 26.0742 23.897C26.0742 19.3905 22.3462 15.7373 17.7475 15.7373C13.1489 15.7373 9.4209 19.3905 9.4209 23.897C9.4209 28.4035 13.1489 32.0568 17.7475 32.0568Z" stroke="#FEF5ED" stroke-width="2" stroke-linecap="round" stroke-linejoin="round"/>
<path d="M34.6538 8.60103C34.2929 6.50593 33.1968 4.6001 31.5547 3.21264C29.9126 1.82518 27.8276 1.0432 25.6598 1.00174C23.4921 0.960272 21.3775 1.66192 19.6814 2.98553C17.9854 4.30913 16.8142 6.17159 16.3701 8.25129M32.682 29.9302C34.3518 30.6726 36.2416 30.7886 37.9929 30.256C39.7442 29.7235 41.2351 28.5796 42.1827 27.0412C43.1304 25.5028 43.4688 23.6771 43.1338 21.9105C42.7988 20.1438 41.8137 18.5591 40.3654 17.457C38.9172 16.3549 37.1064 15.8121 35.2768 15.9317C33.4472 16.0512 31.726 16.8247 30.4398 18.1054C29.1536 19.3861 28.3919 21.0849 28.2991 22.8795C28.2064 24.6741 28.7891 26.4396 29.9367 27.8411L32.682 29.9302ZM6.60161 8.13315L1.23753 11.937L1 41.6726L6.03703 46.3244L6.60161 8.13315Z" stroke="#FEF5ED" stroke-width="2" stroke-linecap="round" stroke-linejoin="round"/>
<path d="M35.4905 18.6221C35.7728 19.2193 35.828 19.8958 35.6462 20.5295C35.4644 21.1631 35.0575 21.7122 34.4989 22.0778C33.9404 22.4434 33.2669 22.6013 32.5999 22.5232C31.933 22.445 31.3165 22.1359 30.8617 21.6515C30.451 22.6238 30.3702 23.6997 30.6313 24.7203C30.8923 25.741 31.4814 26.6524 32.3114 27.3199C33.1414 27.9874 34.1685 28.3757 35.241 28.4274C36.3134 28.4791 37.3745 28.1916 38.2674 27.6072C39.1603 27.0228 39.8378 26.1725 40.1999 25.1819C40.562 24.1913 40.5894 23.1128 40.2782 22.1058C39.9669 21.0987 39.3335 20.2164 38.4714 19.5891C37.6093 18.9618 36.5642 18.6228 35.4905 18.6221V18.6221ZM18.9328 19.0256C19.1547 19.667 19.135 20.365 18.8773 20.9934C18.6196 21.6218 18.1409 22.1391 17.5278 22.4516C16.9146 22.7641 16.2076 22.8512 15.5346 22.6971C14.8617 22.5431 14.2672 22.1581 13.8587 21.6118C13.3277 22.5598 13.1217 23.65 13.2714 24.7215C13.4211 25.793 13.9184 26.7889 14.6899 27.5622C15.4614 28.3354 16.4662 28.8451 17.556 29.0159C18.6457 29.1866 19.7626 29.0095 20.7417 28.5105C21.7209 28.0116 22.5103 27.2173 22.9935 26.245C23.4767 25.2727 23.628 24.1739 23.4251 23.1109C23.2222 22.0479 22.6758 21.077 21.8667 20.3415C21.0575 19.6061 20.0285 19.1452 18.9316 19.0268L18.9328 19.0256ZM23.5126 32.3728C23.5126 29.0778 25.9368 27.7386 29.1477 27.7386C32.0063 27.7386 33.6297 31.5423 33.6297 31.5423C30.8201 32.7137 27.79 33.2909 24.7373 33.236C26.497 34.8365 28.7123 35.8741 31.0885 36.2105C31.0885 36.2105 30.1013 36.9357 26.7139 36.9357C23.9614 36.9369 23.5126 34.0665 23.5126 32.3717V32.3728Z" stroke="#FEF5ED" stroke-width="2" stroke-linecap="round" stroke-linejoin="round"/>
<path d="M30.6217 32.5493C30.6944 33.7305 30.5906 34.9158 30.3137 36.0677" stroke="#FEF5ED" stroke-width="2" stroke-linecap="round" stroke-linejoin="round"/>
</svg>
