<svg width="48" height="44" viewBox="0 0 48 44" fill="none" xmlns="http://www.w3.org/2000/svg">
<path d="M41.576 2.192C41.896 1.552 42.152 1.424 42.728 1.36C44.328 1.232 45.544 1.168 47.08 1.168L47.208 1.04V0.463997C44.52 0.528 43.752 0.528 41 0.528C38.248 0.528 37.544 0.528 34.856 0.463997V1.04L34.984 1.168C36.52 1.168 37.736 1.232 39.336 1.36C39.912 1.424 40.168 1.488 40.04 1.936C39.4 4.048 37.992 7.568 36.712 10.576L26.28 35.856H26.088L12.136 2C12.008 1.616 12.136 1.424 12.712 1.36C14.12 1.232 15.528 1.168 17.064 1.168L17.192 1.04V0.463997C14.504 0.528 11.432 0.528 8.68 0.528C5.928 0.528 3.176 0.528 0.488 0.463997V1.04L0.616 1.168C2.152 1.168 3.624 1.168 5.096 1.36C5.672 1.424 6.184 1.616 6.44 2.192L23.848 43.536H24.04L35.432 16.208C38.056 10.128 39.848 5.968 41.576 2.192Z" fill="#ADC2A9"/>
<path d="M41.576 2.192L41.397 2.1025L41.3941 2.10877L41.576 2.192ZM42.728 1.36L42.712 1.16054L42.7059 1.16122L42.728 1.36ZM47.08 1.168V1.368H47.1628L47.2214 1.30942L47.08 1.168ZM47.208 1.04L47.3494 1.18142L47.408 1.12284V1.04H47.208ZM47.208 0.463997H47.408V0.259178L47.2032 0.264054L47.208 0.463997ZM34.856 0.463997L34.8608 0.264054L34.656 0.259178V0.463997H34.856ZM34.856 1.04H34.656V1.12284L34.7146 1.18142L34.856 1.04ZM34.984 1.168L34.8426 1.30942L34.9012 1.368H34.984V1.168ZM39.336 1.36L39.3581 1.16113L39.352 1.16063L39.336 1.36ZM40.04 1.936L40.2314 1.99401L40.2323 1.99094L40.04 1.936ZM36.712 10.576L36.528 10.4977L36.5271 10.4997L36.712 10.576ZM26.28 35.856V36.056H26.4138L26.4649 35.9323L26.28 35.856ZM26.088 35.856L25.9031 35.9322L25.9541 36.056H26.088V35.856ZM12.136 2L11.9458 2.0634L11.9511 2.0762L12.136 2ZM12.712 1.36L12.6939 1.16078L12.6899 1.16122L12.712 1.36ZM17.064 1.168V1.368H17.1468L17.2054 1.30942L17.064 1.168ZM17.192 1.04L17.3334 1.18142L17.392 1.12284V1.04H17.192ZM17.192 0.463997H17.392V0.259178L17.1872 0.264054L17.192 0.463997ZM0.488 0.463997L0.492761 0.264054L0.288 0.259178V0.463997H0.488ZM0.488 1.04H0.288V1.12284L0.346577 1.18142L0.488 1.04ZM0.616 1.168L0.474577 1.30942L0.533156 1.368H0.616V1.168ZM5.096 1.36L5.07013 1.55835L5.07391 1.55877L5.096 1.36ZM6.44 2.192L6.62436 2.11437L6.62276 2.11077L6.44 2.192ZM23.848 43.536L23.6637 43.6136L23.7152 43.736H23.848V43.536ZM24.04 43.536V43.736H24.1733L24.2246 43.613L24.04 43.536ZM35.432 16.208L35.2484 16.1287L35.2474 16.131L35.432 16.208ZM41.7549 2.28144C41.9094 1.97242 42.0346 1.81666 42.1687 1.72524C42.3025 1.63402 42.4693 1.58998 42.7501 1.55877L42.7059 1.16122C42.4107 1.19402 42.1615 1.24598 41.9433 1.39475C41.7254 1.54334 41.5626 1.77157 41.3971 2.10255L41.7549 2.28144ZM42.7439 1.55936C44.3404 1.43165 45.5508 1.368 47.08 1.368V0.967999C45.5372 0.967999 44.3156 1.03235 42.7121 1.16063L42.7439 1.55936ZM47.2214 1.30942L47.3494 1.18142L47.0666 0.898576L46.9386 1.02658L47.2214 1.30942ZM47.408 1.04V0.463997H47.008V1.04H47.408ZM47.2032 0.264054C44.5175 0.328003 43.7512 0.328 41 0.328V0.728C43.7528 0.728 44.5225 0.727996 47.2128 0.66394L47.2032 0.264054ZM41 0.328C38.2488 0.328 37.5466 0.328004 34.8608 0.264054L34.8512 0.66394C37.5414 0.727995 38.2472 0.728 41 0.728V0.328ZM34.656 0.463997V1.04H35.056V0.463997H34.656ZM34.7146 1.18142L34.8426 1.30942L35.1254 1.02658L34.9974 0.898578L34.7146 1.18142ZM34.984 1.368C36.5132 1.368 37.7236 1.43165 39.3201 1.55936L39.352 1.16063C37.7484 1.03235 36.5268 0.967999 34.984 0.967999V1.368ZM39.3139 1.55877C39.4577 1.57475 39.5729 1.58987 39.6652 1.60959C39.7595 1.62973 39.8124 1.65127 39.8411 1.67041C39.862 1.68437 39.8664 1.69367 39.8694 1.7079C39.8746 1.73201 39.8756 1.78338 39.8477 1.88105L40.2323 1.99094C40.2684 1.86462 40.2854 1.73999 40.2606 1.62409C40.2336 1.49833 40.162 1.40363 40.0629 1.33759C39.9716 1.27672 39.8605 1.24227 39.7488 1.21841C39.6351 1.19413 39.5023 1.17725 39.3581 1.16122L39.3139 1.55877ZM39.8486 1.878C39.2121 3.97845 37.8081 7.48942 36.528 10.4977L36.896 10.6543C38.1759 7.64657 39.5879 4.11754 40.2314 1.994L39.8486 1.878ZM36.5271 10.4997L26.0951 35.7797L26.4649 35.9323L36.8969 10.6523L36.5271 10.4997ZM26.28 35.656H26.088V36.056H26.28V35.656ZM26.2729 35.7798L12.3209 1.9238L11.9511 2.0762L25.9031 35.9322L26.2729 35.7798ZM12.3257 1.93675C12.2675 1.7621 12.2952 1.70981 12.3127 1.68919C12.3461 1.64966 12.4494 1.5904 12.7341 1.55877L12.6899 1.16122C12.3986 1.19359 12.1499 1.26234 12.0073 1.43081C11.8488 1.61819 11.8765 1.85389 11.9463 2.06325L12.3257 1.93675ZM12.7301 1.55918C14.1318 1.43175 15.5338 1.368 17.064 1.368V0.967999C15.5222 0.967999 14.1082 1.03225 12.6939 1.16082L12.7301 1.55918ZM17.2054 1.30942L17.3334 1.18142L17.0506 0.898577L16.9226 1.02658L17.2054 1.30942ZM17.392 1.04V0.463997H16.992V1.04H17.392ZM17.1872 0.264054C14.5021 0.327989 11.4326 0.328 8.68 0.328V0.728C11.4314 0.728 14.5059 0.728011 17.1968 0.66394L17.1872 0.264054ZM8.68 0.328C5.92756 0.328 3.17797 0.32799 0.492761 0.264054L0.483239 0.66394C3.17403 0.72801 5.92844 0.728 8.68 0.728V0.328ZM0.288 0.463997V1.04H0.688V0.463997H0.288ZM0.346577 1.18142L0.474577 1.30942L0.757423 1.02658L0.629423 0.898577L0.346577 1.18142ZM0.616 1.368C2.15425 1.368 3.61318 1.36828 5.07013 1.55832L5.12187 1.16168C3.63482 0.967717 2.14975 0.967999 0.616 0.967999V1.368ZM5.07391 1.55877C5.62243 1.61972 6.04421 1.79391 6.25724 2.27323L6.62276 2.11077C6.32379 1.43808 5.72157 1.22828 5.11809 1.16122L5.07391 1.55877ZM6.25567 2.26961L23.6637 43.6136L24.0323 43.4584L6.62433 2.11439L6.25567 2.26961ZM23.848 43.736H24.04V43.336H23.848V43.736ZM24.2246 43.613L35.6166 16.285L35.2474 16.131L23.8554 43.459L24.2246 43.613ZM35.6156 16.2872C38.24 10.2065 40.031 6.04879 41.7579 2.27522L41.3941 2.10877C39.665 5.88721 37.872 10.0495 35.2484 16.1287L35.6156 16.2872Z" fill="#FEF5ED"/>
</svg>
