<svg width="350" height="67" viewBox="0 0 350 67" fill="none" xmlns="http://www.w3.org/2000/svg">
<path d="M58.06 8.02C58.51 7.12 58.87 6.94 59.68 6.85C61.93 6.67 63.64 6.58 65.8 6.58L65.98 6.4V5.59C62.2 5.68 61.12 5.68 57.25 5.68C53.38 5.68 52.39 5.68 48.61 5.59V6.4L48.79 6.58C50.95 6.58 52.66 6.67 54.91 6.85C55.72 6.94 56.08 7.03 55.9 7.66C55 10.63 53.02 15.58 51.22 19.81L36.55 55.36H36.28L16.66 7.75C16.48 7.21 16.66 6.94 17.47 6.85C19.45 6.67 21.43 6.58 23.59 6.58L23.77 6.4V5.59C19.99 5.68 15.67 5.68 11.8 5.68C7.93 5.68 4.06 5.68 0.28 5.59V6.4L0.46 6.58C2.62 6.58 4.69 6.58 6.76 6.85C7.57 6.94 8.29 7.21 8.65 8.02L33.13 66.16H33.4L49.42 27.73C53.11 19.18 55.63 13.33 58.06 8.02ZM96.663 3.7C80.013 3.7 65.433 16.66 65.433 34.75C65.433 53.56 78.933 65.17 96.663 65.17C113.673 65.17 128.343 52.3 128.343 34.12C128.343 16.3 114.843 3.7 96.663 3.7ZM97.743 63.91C83.793 63.91 73.803 52.57 73.803 33.22C73.803 15.4 84.243 4.96 95.853 4.96C109.353 4.96 119.973 15.4 119.973 35.74C119.973 53.83 109.623 63.91 97.743 63.91ZM149.224 34.57C149.224 32.95 149.314 29.71 149.404 28L149.224 27.82C145.624 28 139.234 28 135.364 28V28.72L135.544 28.9C137.704 28.9 139.954 28.99 141.664 29.17C142.294 29.26 142.564 29.53 142.564 30.25V61.75C142.564 62.47 142.294 62.74 141.664 62.83C139.684 63.1 137.434 63.1 135.274 63.1L135.094 63.28V64.09C137.794 64 142.744 64 145.894 64C149.044 64 153.994 64 156.694 64.09V63.28L156.514 63.1C154.354 63.1 152.104 63.1 150.124 62.83C149.494 62.74 149.224 62.47 149.224 61.75V39.07C149.224 36.37 149.584 35.38 151.654 33.49C153.004 32.32 154.534 31.6 156.604 31.6C159.844 31.6 162.004 33.22 162.544 36.19C162.904 38.17 162.994 39.43 162.994 41.59L163.174 41.77H163.804C163.804 38.8 164.074 33.67 164.344 30.25L164.254 29.89C163.444 28.45 161.734 27.28 159.304 27.28C157.684 27.28 156.514 27.82 155.074 28.9C153.004 30.52 151.744 31.6 149.224 34.57ZM183.05 63.82C177.02 63.82 174.32 61.39 172.88 58.24C172.34 57.07 171.98 55.09 171.98 53.2L171.8 53.02H171.17C171.17 55.36 171.17 60.67 170.99 62.38L171.08 62.74C173.78 64.09 178.46 64.9 181.7 64.9C190.43 64.9 196.19 59.86 196.19 53.47C196.19 47.62 192.95 45.1 184.76 42.04C178.73 39.79 177.02 37.99 177.02 33.85C177.02 29.8 180.35 27.73 183.95 27.73C188.72 27.73 190.97 30.34 192.23 33.4C192.68 34.57 193.13 36.64 193.13 38.53L193.31 38.71H193.94C193.94 36.37 193.94 31.33 194.12 29.62L194.03 29.26C192.14 27.73 188.09 26.56 184.85 26.56C177.83 26.56 172.34 31.15 172.34 37.63C172.34 43.57 175.4 46.9 181.52 49.15C189.53 52.03 191.33 53.83 191.33 57.79C191.33 61.57 187.37 63.82 183.05 63.82ZM231.302 30.16L222.662 40.69C219.422 44.56 218.072 45.19 216.812 45.19H216.362V6.94C216.362 5.32 216.452 2.8 216.542 1.08999L216.362 0.909997C212.762 1.08999 206.372 1.08999 202.502 1.08999V1.81L202.682 1.99C204.842 1.99 207.092 2.08 208.802 2.26C209.432 2.34999 209.702 2.62 209.702 3.34V61.75C209.702 62.47 209.432 62.74 208.802 62.83C206.822 63.1 204.572 63.1 202.412 63.1L202.232 63.28V64.09C204.932 64 209.882 64 213.032 64C216.182 64 221.132 64 223.832 64.09V63.28L223.652 63.1C221.492 63.1 219.242 63.1 217.262 62.83C216.632 62.74 216.362 62.47 216.362 61.75V46.27H216.992C217.712 46.27 218.342 46.63 218.972 47.26C223.922 52.75 229.232 59.68 232.202 64L232.382 64.18C237.332 64 245.342 64 248.042 64V63.28L247.862 63.1C246.062 63.1 244.712 63.01 242.372 62.74C241.292 62.65 240.302 62.38 239.222 61.12C233.822 55.18 225.452 45.82 222.662 42.4L232.472 30.7C233.372 29.62 233.912 29.26 234.632 29.17C236.612 28.9 237.962 28.9 240.122 28.9L240.302 28.72V27.91C237.602 28 236.252 28 233.102 28C229.952 28 227.342 28 224.642 27.91V28.72L224.822 28.9C226.982 28.9 228.962 28.99 230.762 29.17C231.392 29.26 231.752 29.53 231.302 30.16ZM262.015 15.94C262.015 13.42 260.035 11.44 257.515 11.44C254.995 11.44 253.015 13.42 253.015 15.94C253.015 18.46 254.995 20.44 257.515 20.44C260.035 20.44 262.015 18.46 262.015 15.94ZM260.845 33.85C260.845 32.23 260.935 29.71 261.025 28L260.845 27.82C257.245 28 250.855 28 246.985 28V28.72L247.165 28.9C249.325 28.9 251.575 28.99 253.285 29.17C253.915 29.26 254.185 29.53 254.185 30.25V61.75C254.185 62.47 253.915 62.74 253.285 62.83C251.305 63.1 249.055 63.1 246.895 63.1L246.715 63.28V64.09C249.415 64 254.365 64 257.515 64C260.665 64 265.615 64 268.315 64.09V63.28L268.135 63.1C265.975 63.1 263.725 63.1 261.745 62.83C261.115 62.74 260.845 62.47 260.845 61.75V33.85ZM286.773 34.21C286.773 32.59 286.863 29.71 286.953 28L286.773 27.82C283.173 28 276.783 28 272.913 28V28.72L273.093 28.9C275.253 28.9 277.503 28.99 279.213 29.17C279.843 29.26 280.113 29.53 280.113 30.25V61.75C280.113 62.47 279.843 62.74 279.213 62.83C277.233 63.1 274.983 63.1 272.823 63.1L272.643 63.28V64.09C275.343 64 280.293 64 283.443 64C286.593 64 291.543 64 294.243 64.09V63.28L294.063 63.1C291.903 63.1 289.653 63.1 287.673 62.83C287.043 62.74 286.773 62.47 286.773 61.75V38.8C286.773 35.83 287.853 34.75 290.103 33.22C292.173 31.78 294.063 31.15 296.223 31.15C301.713 31.15 304.593 34.75 304.593 41.14V58.15C304.593 60.13 304.503 62.38 304.413 64L304.593 64.18C309.543 64 316.653 64 319.353 64V63.28L319.173 63.1C317.373 63.1 314.763 63.01 312.153 62.83C311.523 62.83 311.253 62.47 311.253 61.75V39.88C311.253 32.14 307.923 27.28 300.003 27.28C298.023 27.28 296.043 27.82 294.243 28.81C292.083 29.98 289.653 31.69 286.773 34.21ZM336.243 63.82C330.213 63.82 327.513 61.39 326.073 58.24C325.533 57.07 325.173 55.09 325.173 53.2L324.993 53.02H324.363C324.363 55.36 324.363 60.67 324.183 62.38L324.273 62.74C326.973 64.09 331.653 64.9 334.893 64.9C343.623 64.9 349.383 59.86 349.383 53.47C349.383 47.62 346.143 45.1 337.953 42.04C331.923 39.79 330.213 37.99 330.213 33.85C330.213 29.8 333.543 27.73 337.143 27.73C341.913 27.73 344.163 30.34 345.423 33.4C345.873 34.57 346.323 36.64 346.323 38.53L346.503 38.71H347.133C347.133 36.37 347.133 31.33 347.313 29.62L347.223 29.26C345.333 27.73 341.283 26.56 338.043 26.56C331.023 26.56 325.533 31.15 325.533 37.63C325.533 43.57 328.593 46.9 334.713 49.15C342.723 52.03 344.523 53.83 344.523 57.79C344.523 61.57 340.563 63.82 336.243 63.82Z" fill="#798777"/>
<path d="M58.06 8.02L57.881 7.9305L57.8781 7.93677L58.06 8.02ZM59.68 6.84999L59.664 6.65054L59.6579 6.65122L59.68 6.84999ZM65.8 6.58V6.78H65.8828L65.9414 6.72142L65.8 6.58ZM65.98 6.4L66.1214 6.54142L66.18 6.48284V6.4H65.98ZM65.98 5.59H66.18V5.38518L65.9752 5.39005L65.98 5.59ZM48.61 5.59L48.6148 5.39005L48.41 5.38518V5.59H48.61ZM48.61 6.4H48.41V6.48284L48.4686 6.54141L48.61 6.4ZM48.79 6.58L48.6486 6.72142L48.7072 6.78H48.79V6.58ZM54.91 6.84999L54.9321 6.65112L54.926 6.65063L54.91 6.84999ZM55.9 7.66L56.0914 7.718L56.0923 7.71494L55.9 7.66ZM51.22 19.81L51.036 19.7317L51.0351 19.7337L51.22 19.81ZM36.55 55.36V55.56H36.6838L36.7349 55.4363L36.55 55.36ZM36.28 55.36L36.0951 55.4362L36.1461 55.56H36.28V55.36ZM16.66 7.75L16.4698 7.8134L16.4751 7.8262L16.66 7.75ZM17.47 6.84999L17.4519 6.65078L17.4479 6.65122L17.47 6.84999ZM23.59 6.58V6.78H23.6728L23.7314 6.72142L23.59 6.58ZM23.77 6.4L23.9114 6.54142L23.97 6.48284V6.4H23.77ZM23.77 5.59H23.97V5.38518L23.7652 5.39005L23.77 5.59ZM0.28 5.59L0.284761 5.39005L0.08 5.38518V5.59H0.28ZM0.28 6.4H0.08V6.48284L0.138577 6.54142L0.28 6.4ZM0.46 6.58L0.318577 6.72142L0.377156 6.78H0.46V6.58ZM6.76 6.84999L6.73413 7.04835L6.73791 7.04877L6.76 6.84999ZM8.65 8.02L8.83436 7.94237L8.83276 7.93877L8.65 8.02ZM33.13 66.16L32.9457 66.2376L32.9972 66.36H33.13V66.16ZM33.4 66.16V66.36H33.5333L33.5846 66.237L33.4 66.16ZM49.42 27.73L49.2364 27.6507L49.2354 27.653L49.42 27.73ZM58.2389 8.10944C58.4584 7.67042 58.6421 7.43666 58.8477 7.29649C59.053 7.15652 59.3043 7.09297 59.7021 7.04877L59.6579 6.65122C59.2457 6.69702 58.912 6.76848 58.6223 6.966C58.3329 7.16334 58.1116 7.46957 57.8811 7.93055L58.2389 8.10944ZM59.6959 7.04936C61.9424 6.86965 63.6468 6.78 65.8 6.78V6.38C63.6332 6.38 61.9176 6.47035 59.6641 6.65063L59.6959 7.04936ZM65.9414 6.72142L66.1214 6.54142L65.8386 6.25858L65.6586 6.43858L65.9414 6.72142ZM66.18 6.4V5.59H65.78V6.4H66.18ZM65.9752 5.39005C62.1975 5.48 61.1192 5.48 57.25 5.48V5.88C61.1208 5.88 62.2025 5.88 65.9848 5.78994L65.9752 5.39005ZM57.25 5.48C53.3808 5.48 52.3926 5.48 48.6148 5.39005L48.6052 5.78994C52.3874 5.88 53.3792 5.88 57.25 5.88V5.48ZM48.41 5.59V6.4H48.81V5.59H48.41ZM48.4686 6.54141L48.6486 6.72142L48.9314 6.43858L48.7514 6.25858L48.4686 6.54141ZM48.79 6.78C50.9432 6.78 52.6476 6.86965 54.8941 7.04936L54.926 6.65063C52.6724 6.47035 50.9568 6.38 48.79 6.38V6.78ZM54.8879 7.04877C55.0902 7.07125 55.2558 7.09287 55.3899 7.12152C55.5261 7.1506 55.6122 7.18352 55.6653 7.21891C55.7106 7.24912 55.7305 7.27954 55.7396 7.32222C55.7509 7.37476 55.7486 7.46188 55.7077 7.60505L56.0923 7.71494C56.1414 7.54312 56.1616 7.38274 56.1307 7.23841C56.0977 7.0842 56.0106 6.96837 55.8872 6.88609C55.7715 6.80897 55.627 6.76315 55.4735 6.73035C55.318 6.69713 55.1348 6.67374 54.9321 6.65122L54.8879 7.04877ZM55.7086 7.60199C54.8121 10.5604 52.8361 15.5014 51.036 19.7317L51.404 19.8883C53.2039 15.6586 55.1879 10.6995 56.0914 7.718L55.7086 7.60199ZM51.0351 19.7337L36.3651 55.2837L36.7349 55.4363L51.4049 19.8863L51.0351 19.7337ZM36.55 55.16H36.28V55.56H36.55V55.16ZM36.4649 55.2838L16.8449 7.6738L16.4751 7.8262L36.0951 55.4362L36.4649 55.2838ZM16.8497 7.68675C16.7655 7.4341 16.7932 7.32331 16.8464 7.26044C16.9156 7.17866 17.0904 7.0934 17.4921 7.04877L17.4479 6.65122C17.0396 6.69659 16.7194 6.79134 16.5411 7.00206C16.3468 7.23169 16.3745 7.52589 16.4703 7.81325L16.8497 7.68675ZM17.4881 7.04917C19.4618 6.86975 21.4358 6.78 23.59 6.78V6.38C21.4242 6.38 19.4382 6.47025 17.4519 6.65082L17.4881 7.04917ZM23.7314 6.72142L23.9114 6.54142L23.6286 6.25858L23.4486 6.43858L23.7314 6.72142ZM23.97 6.4V5.59H23.57V6.4H23.97ZM23.7652 5.39005C19.9881 5.47999 15.6706 5.48 11.8 5.48V5.88C15.6694 5.88 19.9919 5.88001 23.7748 5.78994L23.7652 5.39005ZM11.8 5.48C7.92956 5.48 4.06197 5.47999 0.284761 5.39005L0.275239 5.78994C4.05803 5.88001 7.93044 5.88 11.8 5.88V5.48ZM0.08 5.59V6.4H0.48V5.59H0.08ZM0.138577 6.54142L0.318577 6.72142L0.601423 6.43858L0.421422 6.25858L0.138577 6.54142ZM0.46 6.78C2.62225 6.78 4.67918 6.78028 6.73413 7.04832L6.78587 6.65168C4.70082 6.37972 2.61775 6.38 0.46 6.38V6.78ZM6.73791 7.04877C7.52043 7.13572 8.15021 7.38791 8.46724 8.10122L8.83276 7.93877C8.42979 7.03208 7.61957 6.74428 6.78209 6.65122L6.73791 7.04877ZM8.46567 8.09761L32.9457 66.2376L33.3143 66.0824L8.83433 7.94238L8.46567 8.09761ZM33.13 66.36H33.4V65.96H33.13V66.36ZM33.5846 66.237L49.6046 27.8069L49.2354 27.653L33.2154 66.083L33.5846 66.237ZM49.6036 27.8092C53.294 19.2585 55.813 13.4108 58.2419 8.10322L57.8781 7.93677C55.447 13.2492 52.926 19.1015 49.2364 27.6507L49.6036 27.8092ZM96.663 3.5C79.9101 3.5 65.233 16.5421 65.233 34.75H65.633C65.633 16.7779 80.1158 3.9 96.663 3.9V3.5ZM65.233 34.75C65.233 44.2053 68.6274 51.8647 74.2623 57.1595C79.8956 62.4528 87.7544 65.37 96.663 65.37V64.97C87.8415 64.97 80.0853 62.0822 74.5362 56.868C68.9886 51.6553 65.633 44.1047 65.633 34.75H65.233ZM96.663 65.37C113.773 65.37 128.543 52.4205 128.543 34.12H128.143C128.143 52.1795 113.573 64.97 96.663 64.97V65.37ZM128.543 34.12C128.543 16.1804 114.944 3.5 96.663 3.5V3.9C114.742 3.9 128.143 16.4196 128.143 34.12H128.543ZM97.743 63.71C90.8268 63.71 84.8996 60.9011 80.6973 55.6956C76.4921 50.4864 74.003 42.8623 74.003 33.22H73.603C73.603 42.9277 76.1089 50.6486 80.3861 55.9469C84.6663 61.2489 90.7092 64.11 97.743 64.11V63.71ZM74.003 33.22C74.003 15.4763 84.3848 5.16 95.853 5.16V4.76C84.1012 4.76 73.603 15.3237 73.603 33.22H74.003ZM95.853 5.16C102.548 5.16 108.521 7.74709 112.823 12.8514C117.127 17.9585 119.773 25.6034 119.773 35.74H120.173C120.173 25.5366 117.509 17.7915 113.128 12.5936C108.745 7.39291 102.658 4.76 95.853 4.76V5.16ZM119.773 35.74C119.773 44.7472 117.197 51.7408 113.161 56.4791C109.126 61.2163 103.624 63.71 97.743 63.71V64.11C103.742 64.11 109.355 61.5637 113.465 56.7384C117.574 51.9142 120.173 44.8228 120.173 35.74H119.773ZM149.224 34.57H149.024V35.1148L149.377 34.6994L149.224 34.57ZM149.404 28L149.604 28.0105L149.609 27.9216L149.546 27.8586L149.404 28ZM149.224 27.82L149.366 27.6786L149.303 27.6158L149.214 27.6202L149.224 27.82ZM135.364 28V27.8H135.164V28H135.364ZM135.364 28.72H135.164V28.8028L135.223 28.8614L135.364 28.72ZM135.544 28.9L135.403 29.0414L135.462 29.1H135.544V28.9ZM141.664 29.17L141.693 28.9719L141.685 28.9711L141.664 29.17ZM141.664 62.83L141.691 63.0282L141.693 63.028L141.664 62.83ZM135.274 63.1V62.9H135.192L135.133 62.9586L135.274 63.1ZM135.094 63.28L134.953 63.1386L134.894 63.1972V63.28H135.094ZM135.094 64.09H134.894V64.2968L135.101 64.2899L135.094 64.09ZM156.694 64.09L156.688 64.2899L156.894 64.2968V64.09H156.694ZM156.694 63.28H156.894V63.1972L156.836 63.1386L156.694 63.28ZM156.514 63.1L156.656 62.9586L156.597 62.9H156.514V63.1ZM150.124 62.83L150.096 63.028L150.097 63.0282L150.124 62.83ZM151.654 33.49L151.523 33.3388L151.52 33.3423L151.654 33.49ZM162.544 36.19L162.741 36.1542L162.544 36.19ZM162.994 41.59H162.794V41.6728L162.853 41.7314L162.994 41.59ZM163.174 41.77L163.033 41.9114L163.092 41.97H163.174V41.77ZM163.804 41.77V41.97H164.004V41.77H163.804ZM164.344 30.25L164.544 30.2657L164.546 30.2332L164.538 30.2015L164.344 30.25ZM164.254 29.89L164.448 29.8415L164.442 29.8154L164.429 29.7919L164.254 29.89ZM155.074 28.9L154.954 28.74L154.951 28.7425L155.074 28.9ZM149.424 34.57C149.424 32.9538 149.514 29.7173 149.604 28.0105L149.205 27.9895C149.114 29.7027 149.024 32.9462 149.024 34.57H149.424ZM149.546 27.8586L149.366 27.6786L149.083 27.9614L149.263 28.1414L149.546 27.8586ZM149.214 27.6202C145.621 27.7999 139.237 27.8 135.364 27.8V28.2C139.232 28.2 145.628 28.2001 149.234 28.0197L149.214 27.6202ZM135.164 28V28.72H135.564V28H135.164ZM135.223 28.8614L135.403 29.0414L135.686 28.7586L135.506 28.5786L135.223 28.8614ZM135.544 29.1C137.7 29.1 139.943 29.1899 141.643 29.3689L141.685 28.9711C139.966 28.7901 137.709 28.7 135.544 28.7V29.1ZM141.636 29.368C141.932 29.4103 142.1 29.4896 142.199 29.6047C142.3 29.7203 142.364 29.9098 142.364 30.25H142.764C142.764 29.8702 142.694 29.5647 142.502 29.3428C142.309 29.1204 142.026 29.0197 141.693 28.972L141.636 29.368ZM142.364 30.25V61.75H142.764V30.25H142.364ZM142.364 61.75C142.364 62.0902 142.3 62.2797 142.199 62.3953C142.1 62.5104 141.932 62.5897 141.636 62.632L141.693 63.028C142.026 62.9803 142.309 62.8796 142.502 62.6572C142.694 62.4353 142.764 62.1298 142.764 61.75H142.364ZM141.637 62.6318C139.673 62.8997 137.438 62.9 135.274 62.9V63.3C137.431 63.3 139.695 63.3004 141.691 63.0282L141.637 62.6318ZM135.133 62.9586L134.953 63.1386L135.236 63.4214L135.416 63.2414L135.133 62.9586ZM134.894 63.28V64.09H135.294V63.28H134.894ZM135.101 64.2899C137.797 64.2 142.743 64.2 145.894 64.2V63.8C142.746 63.8 137.792 63.8 135.088 63.8901L135.101 64.2899ZM145.894 64.2C149.046 64.2 153.992 64.2 156.688 64.2899L156.701 63.8901C153.997 63.8 149.043 63.8 145.894 63.8V64.2ZM156.894 64.09V63.28H156.494V64.09H156.894ZM156.836 63.1386L156.656 62.9586L156.373 63.2414L156.553 63.4214L156.836 63.1386ZM156.514 62.9C154.351 62.9 152.115 62.8997 150.151 62.6318L150.097 63.0282C152.093 63.3004 154.358 63.3 156.514 63.3V62.9ZM150.153 62.632C149.856 62.5897 149.689 62.5104 149.589 62.3953C149.489 62.2797 149.424 62.0902 149.424 61.75H149.024C149.024 62.1298 149.095 62.4353 149.287 62.6572C149.48 62.8796 149.762 62.9803 150.096 63.028L150.153 62.632ZM149.424 61.75V39.07H149.024V61.75H149.424ZM149.424 39.07C149.424 37.7246 149.515 36.8365 149.847 36.0544C150.179 35.2735 150.76 34.577 151.789 33.6377L151.52 33.3423C150.478 34.293 149.845 35.0365 149.479 35.8981C149.114 36.7585 149.024 37.7154 149.024 39.07H149.424ZM151.785 33.6411C153.105 32.4977 154.59 31.8 156.604 31.8V31.4C154.479 31.4 152.904 32.1423 151.523 33.3389L151.785 33.6411ZM156.604 31.8C158.192 31.8 159.496 32.1966 160.465 32.94C161.433 33.6819 162.085 34.7826 162.348 36.2258L162.741 36.1542C162.464 34.6274 161.766 33.4331 160.709 32.6225C159.653 31.8134 158.257 31.4 156.604 31.4V31.8ZM162.348 36.2258C162.705 38.1917 162.794 39.4395 162.794 41.59H163.194C163.194 39.4205 163.104 38.1483 162.741 36.1542L162.348 36.2258ZM162.853 41.7314L163.033 41.9114L163.316 41.6286L163.136 41.4486L162.853 41.7314ZM163.174 41.97H163.804V41.57H163.174V41.97ZM164.004 41.77C164.004 38.8074 164.274 33.6832 164.544 30.2657L164.145 30.2343C163.875 33.6568 163.604 38.7926 163.604 41.77H164.004ZM164.538 30.2015L164.448 29.8415L164.06 29.9385L164.15 30.2985L164.538 30.2015ZM164.429 29.7919C163.581 28.2855 161.803 27.08 159.304 27.08V27.48C161.666 27.48 163.307 28.6145 164.08 29.9881L164.429 29.7919ZM159.304 27.08C157.626 27.08 156.415 27.6448 154.954 28.74L155.194 29.06C156.614 27.9952 157.743 27.48 159.304 27.48V27.08ZM154.951 28.7425C152.872 30.3698 151.602 31.459 149.072 34.4406L149.377 34.6994C151.887 31.741 153.137 30.6702 155.198 29.0575L154.951 28.7425ZM172.88 58.24L173.062 58.1568L173.061 58.1562L172.88 58.24ZM171.98 53.2H172.18V53.1172L172.121 53.0586L171.98 53.2ZM171.8 53.02L171.941 52.8786L171.882 52.82H171.8V53.02ZM171.17 53.02V52.82H170.97V53.02H171.17ZM170.99 62.38L170.791 62.3591L170.787 62.3942L170.796 62.4285L170.99 62.38ZM171.08 62.74L170.886 62.7885L170.908 62.8777L170.99 62.9189L171.08 62.74ZM184.76 42.04L184.83 41.8526L184.83 41.8526L184.76 42.04ZM192.23 33.4L192.416 33.3282L192.415 33.3238L192.23 33.4ZM193.13 38.53H192.93V38.6128L192.988 38.6714L193.13 38.53ZM193.31 38.71L193.168 38.8514L193.227 38.91H193.31V38.71ZM193.94 38.71V38.91H194.14V38.71H193.94ZM194.12 29.62L194.319 29.6409L194.322 29.6058L194.314 29.5715L194.12 29.62ZM194.03 29.26L194.224 29.2115L194.207 29.1466L194.155 29.1045L194.03 29.26ZM181.52 49.15L181.451 49.3377L181.452 49.3382L181.52 49.15ZM183.05 63.62C180.061 63.62 177.918 63.0179 176.349 62.0415C174.781 61.0658 173.769 59.7054 173.062 58.1568L172.698 58.3232C173.43 59.9246 174.488 61.3542 176.138 62.3811C177.786 63.4071 180.008 64.02 183.05 64.02V63.62ZM173.061 58.1562C172.537 57.0212 172.18 55.0725 172.18 53.2H171.78C171.78 55.1075 172.142 57.1188 172.698 58.3238L173.061 58.1562ZM172.121 53.0586L171.941 52.8786L171.658 53.1614L171.838 53.3414L172.121 53.0586ZM171.8 52.82H171.17V53.22H171.8V52.82ZM170.97 53.02C170.97 55.3678 170.969 60.6626 170.791 62.3591L171.189 62.4009C171.37 60.6774 171.37 55.3522 171.37 53.02H170.97ZM170.796 62.4285L170.886 62.7885L171.274 62.6915L171.184 62.3315L170.796 62.4285ZM170.99 62.9189C173.727 64.2873 178.44 65.1 181.7 65.1V64.7C178.479 64.7 173.832 63.8927 171.169 62.5611L170.99 62.9189ZM181.7 65.1C190.499 65.1 196.39 60.0071 196.39 53.47H195.99C195.99 59.7129 190.36 64.7 181.7 64.7V65.1ZM196.39 53.47C196.39 50.5003 195.564 48.3517 193.684 46.5638C191.818 44.7896 188.926 43.3831 184.83 41.8526L184.69 42.2273C188.783 43.7569 191.606 45.1404 193.408 46.8537C195.195 48.5533 195.99 50.5897 195.99 53.47H196.39ZM184.83 41.8526C181.817 40.7286 179.921 39.729 178.774 38.5163C177.639 37.3173 177.22 35.8893 177.22 33.85H176.82C176.82 35.9507 177.255 37.4927 178.483 38.7912C179.698 40.076 181.672 41.1014 184.69 42.2274L184.83 41.8526ZM177.22 33.85C177.22 31.8861 178.024 30.4135 179.259 29.4276C180.5 28.4375 182.185 27.93 183.95 27.93V27.53C182.114 27.53 180.335 28.0575 179.01 29.1149C177.68 30.1765 176.82 31.7639 176.82 33.85H177.22ZM183.95 27.93C186.295 27.93 188.005 28.5707 189.282 29.5747C190.562 30.5812 191.422 31.9651 192.045 33.4762L192.415 33.3238C191.777 31.7749 190.882 30.3238 189.529 29.2603C188.174 28.1943 186.374 27.53 183.95 27.53V27.93ZM192.043 33.4718C192.484 34.6193 192.93 36.665 192.93 38.53H193.33C193.33 36.615 192.875 34.5207 192.416 33.3282L192.043 33.4718ZM192.988 38.6714L193.168 38.8514L193.451 38.5686L193.271 38.3886L192.988 38.6714ZM193.31 38.91H193.94V38.51H193.31V38.91ZM194.14 38.71C194.14 36.3624 194.14 31.3374 194.319 29.6409L193.921 29.5991C193.739 31.3226 193.74 36.3776 193.74 38.71H194.14ZM194.314 29.5715L194.224 29.2115L193.836 29.3085L193.926 29.6685L194.314 29.5715ZM194.155 29.1045C193.181 28.3159 191.668 27.6316 190.002 27.1443C188.333 26.6561 186.491 26.36 184.85 26.36V26.76C186.448 26.76 188.251 27.0489 189.89 27.5282C191.531 28.0084 192.988 28.6741 193.904 29.4154L194.155 29.1045ZM184.85 26.36C177.746 26.36 172.14 31.0143 172.14 37.63H172.54C172.54 31.2857 177.913 26.76 184.85 26.76V26.36ZM172.14 37.63C172.14 40.637 172.915 43.0022 174.48 44.901C176.042 46.7952 178.373 48.2063 181.451 49.3377L181.589 48.9623C178.546 47.8437 176.288 46.4648 174.789 44.6465C173.294 42.8328 172.54 40.563 172.54 37.63H172.14ZM181.452 49.3382C185.458 50.7786 187.876 51.9379 189.295 53.2137C189.999 53.8473 190.455 54.5078 190.736 55.2456C191.019 55.9857 191.13 56.8144 191.13 57.79H191.53C191.53 56.7856 191.416 55.9043 191.11 55.1031C190.804 54.2997 190.309 53.5877 189.562 52.9163C188.078 51.5821 185.591 50.4014 181.587 48.9618L181.452 49.3382ZM191.13 57.79C191.13 59.6004 190.184 61.051 188.698 62.0568C187.207 63.0653 185.178 63.62 183.05 63.62V64.02C185.241 64.02 187.352 63.4497 188.922 62.3882C190.495 61.324 191.53 59.7596 191.53 57.79H191.13ZM231.302 30.16L231.457 30.2871L231.465 30.2762L231.302 30.16ZM222.662 40.69L222.816 40.8184L222.817 40.8169L222.662 40.69ZM216.362 45.19H216.162V45.39H216.362V45.19ZM216.542 1.08999L216.742 1.10051L216.747 1.01156L216.684 0.948572L216.542 1.08999ZM216.362 0.909997L216.504 0.768575L216.441 0.705814L216.352 0.710246L216.362 0.909997ZM202.502 1.08999V0.889995H202.302V1.08999H202.502ZM202.502 1.81H202.302V1.89284L202.361 1.95142L202.502 1.81ZM202.682 1.99L202.541 2.13142L202.599 2.19H202.682V1.99ZM208.802 2.26L208.831 2.06187L208.823 2.06109L208.802 2.26ZM208.802 62.83L208.829 63.0282L208.831 63.028L208.802 62.83ZM202.412 63.1V62.9H202.329L202.271 62.9586L202.412 63.1ZM202.232 63.28L202.091 63.1386L202.032 63.1972V63.28H202.232ZM202.232 64.09H202.032V64.2968L202.239 64.2899L202.232 64.09ZM223.832 64.09L223.826 64.2899L224.032 64.2968V64.09H223.832ZM223.832 63.28H224.032V63.1972L223.974 63.1386L223.832 63.28ZM223.652 63.1L223.794 62.9586L223.735 62.9H223.652V63.1ZM217.262 62.83L217.234 63.028L217.235 63.0282L217.262 62.83ZM216.362 46.27V46.07H216.162V46.27H216.362ZM218.972 47.26L219.121 47.1259L219.114 47.1186L218.972 47.26ZM232.202 64L232.037 64.1133L232.048 64.1284L232.061 64.1414L232.202 64ZM232.382 64.18L232.241 64.3214L232.302 64.383L232.39 64.3799L232.382 64.18ZM248.042 64V64.2H248.242V64H248.042ZM248.042 63.28H248.242V63.1972L248.184 63.1386L248.042 63.28ZM247.862 63.1L248.004 62.9586L247.945 62.9H247.862V63.1ZM242.372 62.74L242.395 62.5412L242.389 62.5407L242.372 62.74ZM239.222 61.12L239.374 60.9898L239.37 60.9855L239.222 61.12ZM222.662 42.4L222.509 42.2715L222.403 42.3983L222.507 42.5264L222.662 42.4ZM232.472 30.7L232.626 30.8285L232.626 30.828L232.472 30.7ZM234.632 29.17L234.657 29.3685L234.659 29.3682L234.632 29.17ZM240.122 28.9V29.1H240.205L240.264 29.0414L240.122 28.9ZM240.302 28.72L240.444 28.8614L240.502 28.8028V28.72H240.302ZM240.302 27.91H240.502V27.7032L240.296 27.7101L240.302 27.91ZM224.642 27.91L224.649 27.7101L224.442 27.7032V27.91H224.642ZM224.642 28.72H224.442V28.8028L224.501 28.8614L224.642 28.72ZM224.822 28.9L224.681 29.0414L224.739 29.1H224.822V28.9ZM230.762 29.17L230.791 28.9718L230.782 28.971L230.762 29.17ZM231.148 30.0331L222.508 40.5631L222.817 40.8169L231.457 30.2869L231.148 30.0331ZM222.509 40.5616C219.266 44.4351 217.97 44.99 216.812 44.99V45.39C218.174 45.39 219.579 44.6849 222.816 40.8184L222.509 40.5616ZM216.812 44.99H216.362V45.39H216.812V44.99ZM216.562 45.19V6.94H216.162V45.19H216.562ZM216.562 6.94C216.562 5.32491 216.652 2.80878 216.742 1.10051L216.343 1.07948C216.252 2.79122 216.162 5.31508 216.162 6.94H216.562ZM216.684 0.948572L216.504 0.768575L216.221 1.05142L216.401 1.23142L216.684 0.948572ZM216.352 0.710246C212.759 0.889933 206.375 0.889995 202.502 0.889995V1.28999C206.37 1.28999 212.766 1.29006 216.372 1.10975L216.352 0.710246ZM202.302 1.08999V1.81H202.702V1.08999H202.302ZM202.361 1.95142L202.541 2.13142L202.824 1.84858L202.644 1.66858L202.361 1.95142ZM202.682 2.19C204.838 2.19 207.081 2.27987 208.781 2.4589L208.823 2.06109C207.104 1.88012 204.847 1.79 202.682 1.79V2.19ZM208.774 2.45799C209.07 2.5003 209.238 2.57962 209.337 2.69473C209.438 2.8103 209.502 2.99982 209.502 3.34H209.902C209.902 2.96017 209.832 2.6547 209.64 2.43276C209.447 2.21037 209.164 2.10969 208.831 2.06201L208.774 2.45799ZM209.502 3.34V61.75H209.902V3.34H209.502ZM209.502 61.75C209.502 62.0902 209.438 62.2797 209.337 62.3953C209.238 62.5104 209.07 62.5897 208.774 62.632L208.831 63.028C209.164 62.9803 209.447 62.8796 209.64 62.6572C209.832 62.4353 209.902 62.1298 209.902 61.75H209.502ZM208.775 62.6318C206.811 62.8997 204.576 62.9 202.412 62.9V63.3C204.569 63.3 206.833 63.3004 208.829 63.0282L208.775 62.6318ZM202.271 62.9586L202.091 63.1386L202.374 63.4214L202.554 63.2414L202.271 62.9586ZM202.032 63.28V64.09H202.432V63.28H202.032ZM202.239 64.2899C204.935 64.2 209.881 64.2 213.032 64.2V63.8C209.884 63.8 204.93 63.8 202.226 63.8901L202.239 64.2899ZM213.032 64.2C216.184 64.2 221.13 64.2 223.826 64.2899L223.839 63.8901C221.135 63.8 216.181 63.8 213.032 63.8V64.2ZM224.032 64.09V63.28H223.632V64.09H224.032ZM223.974 63.1386L223.794 62.9586L223.511 63.2414L223.691 63.4214L223.974 63.1386ZM223.652 62.9C221.489 62.9 219.253 62.8997 217.289 62.6318L217.235 63.0282C219.231 63.3004 221.496 63.3 223.652 63.3V62.9ZM217.291 62.632C216.994 62.5897 216.827 62.5104 216.727 62.3953C216.627 62.2797 216.562 62.0902 216.562 61.75H216.162C216.162 62.1298 216.233 62.4353 216.425 62.6572C216.618 62.8796 216.9 62.9803 217.234 63.028L217.291 62.632ZM216.562 61.75V46.27H216.162V61.75H216.562ZM216.362 46.47H216.992V46.07H216.362V46.47ZM216.992 46.47C217.637 46.47 218.219 46.7899 218.831 47.4014L219.114 47.1186C218.465 46.4701 217.787 46.07 216.992 46.07V46.47ZM218.824 47.3939C223.767 52.8767 229.072 59.7997 232.037 64.1133L232.367 63.8867C229.393 59.5603 224.077 52.6233 219.121 47.1261L218.824 47.3939ZM232.061 64.1414L232.241 64.3214L232.524 64.0386L232.344 63.8586L232.061 64.1414ZM232.39 64.3799C237.335 64.2 245.341 64.2 248.042 64.2V63.8C245.343 63.8 237.329 63.8 232.375 63.9801L232.39 64.3799ZM248.242 64V63.28H247.842V64H248.242ZM248.184 63.1386L248.004 62.9586L247.721 63.2414L247.901 63.4214L248.184 63.1386ZM247.862 62.9C246.072 62.9 244.73 62.8107 242.395 62.5413L242.349 62.9387C244.695 63.2093 246.053 63.3 247.862 63.3V62.9ZM242.389 62.5407C241.86 62.4966 241.368 62.4096 240.88 62.1868C240.393 61.9645 239.898 61.6014 239.374 60.9898L239.07 61.2502C239.626 61.8986 240.166 62.3005 240.714 62.5507C241.261 62.8004 241.804 62.8934 242.356 62.9393L242.389 62.5407ZM239.37 60.9855C233.969 55.0443 225.603 45.6886 222.817 42.2736L222.507 42.5264C225.301 45.9514 233.675 55.3157 239.074 61.2545L239.37 60.9855ZM222.816 42.5285L232.626 30.8285L232.319 30.5715L222.509 42.2715L222.816 42.5285ZM232.626 30.828C233.517 29.7593 234.014 29.4488 234.657 29.3685L234.607 28.9715C233.81 29.0712 233.228 29.4807 232.319 30.572L232.626 30.828ZM234.659 29.3682C236.624 29.1002 237.962 29.1 240.122 29.1V28.7C237.962 28.7 236.6 28.6998 234.605 28.9718L234.659 29.3682ZM240.264 29.0414L240.444 28.8614L240.161 28.5786L239.981 28.7586L240.264 29.0414ZM240.502 28.72V27.91H240.102V28.72H240.502ZM240.296 27.7101C237.599 27.8 236.252 27.8 233.102 27.8V28.2C236.253 28.2 237.605 28.2 240.309 28.1099L240.296 27.7101ZM233.102 27.8C229.952 27.8 227.345 27.8 224.649 27.7101L224.636 28.1099C227.34 28.2 229.953 28.2 233.102 28.2V27.8ZM224.442 27.91V28.72H224.842V27.91H224.442ZM224.501 28.8614L224.681 29.0414L224.964 28.7586L224.784 28.5786L224.501 28.8614ZM224.822 29.1C226.977 29.1 228.95 29.1898 230.742 29.369L230.782 28.971C228.974 28.7902 226.988 28.7 224.822 28.7V29.1ZM230.734 29.368C230.882 29.3891 231.005 29.4196 231.099 29.4588C231.195 29.4985 231.248 29.5413 231.275 29.5787C231.309 29.6272 231.351 29.7481 231.14 30.0438L231.465 30.2762C231.704 29.9419 231.79 29.6128 231.6 29.3463C231.514 29.2262 231.387 29.1453 231.252 29.0893C231.116 29.0329 230.958 28.9959 230.791 28.972L230.734 29.368ZM261.025 28L261.225 28.0105L261.23 27.9216L261.167 27.8586L261.025 28ZM260.845 27.82L260.987 27.6786L260.924 27.6158L260.835 27.6202L260.845 27.82ZM246.985 28V27.8H246.785V28H246.985ZM246.985 28.72H246.785V28.8028L246.844 28.8614L246.985 28.72ZM247.165 28.9L247.024 29.0414L247.083 29.1H247.165V28.9ZM253.285 29.17L253.314 28.9719L253.306 28.9711L253.285 29.17ZM253.285 62.83L253.312 63.0282L253.314 63.028L253.285 62.83ZM246.895 63.1V62.9H246.813L246.754 62.9586L246.895 63.1ZM246.715 63.28L246.574 63.1386L246.515 63.1972V63.28H246.715ZM246.715 64.09H246.515V64.2968L246.722 64.2899L246.715 64.09ZM268.315 64.09L268.309 64.2899L268.515 64.2968V64.09H268.315ZM268.315 63.28H268.515V63.1972L268.457 63.1386L268.315 63.28ZM268.135 63.1L268.277 62.9586L268.218 62.9H268.135V63.1ZM261.745 62.83L261.717 63.028L261.718 63.0282L261.745 62.83ZM262.215 15.94C262.215 13.3095 260.146 11.24 257.515 11.24V11.64C259.925 11.64 261.815 13.5305 261.815 15.94H262.215ZM257.515 11.24C254.885 11.24 252.815 13.3095 252.815 15.94H253.215C253.215 13.5305 255.106 11.64 257.515 11.64V11.24ZM252.815 15.94C252.815 18.5705 254.885 20.64 257.515 20.64V20.24C255.106 20.24 253.215 18.3495 253.215 15.94H252.815ZM257.515 20.64C260.146 20.64 262.215 18.5705 262.215 15.94H261.815C261.815 18.3495 259.925 20.24 257.515 20.24V20.64ZM261.045 33.85C261.045 32.2349 261.135 29.7188 261.225 28.0105L260.826 27.9895C260.736 29.7012 260.645 32.2251 260.645 33.85H261.045ZM261.167 27.8586L260.987 27.6786L260.704 27.9614L260.884 28.1414L261.167 27.8586ZM260.835 27.6202C257.242 27.7999 250.858 27.8 246.985 27.8V28.2C250.853 28.2 257.249 28.2001 260.855 28.0197L260.835 27.6202ZM246.785 28V28.72H247.185V28H246.785ZM246.844 28.8614L247.024 29.0414L247.307 28.7586L247.127 28.5786L246.844 28.8614ZM247.165 29.1C249.321 29.1 251.564 29.1899 253.265 29.3689L253.306 28.9711C251.587 28.7901 249.33 28.7 247.165 28.7V29.1ZM253.257 29.368C253.553 29.4103 253.721 29.4896 253.821 29.6047C253.921 29.7203 253.985 29.9098 253.985 30.25H254.385C254.385 29.8702 254.315 29.5647 254.123 29.3428C253.93 29.1204 253.648 29.0197 253.314 28.972L253.257 29.368ZM253.985 30.25V61.75H254.385V30.25H253.985ZM253.985 61.75C253.985 62.0902 253.921 62.2797 253.821 62.3953C253.721 62.5104 253.553 62.5897 253.257 62.632L253.314 63.028C253.648 62.9803 253.93 62.8796 254.123 62.6572C254.315 62.4353 254.385 62.1298 254.385 61.75H253.985ZM253.258 62.6318C251.294 62.8997 249.059 62.9 246.895 62.9V63.3C249.052 63.3 251.316 63.3004 253.312 63.0282L253.258 62.6318ZM246.754 62.9586L246.574 63.1386L246.857 63.4214L247.037 63.2414L246.754 62.9586ZM246.515 63.28V64.09H246.915V63.28H246.515ZM246.722 64.2899C249.418 64.2 254.364 64.2 257.515 64.2V63.8C254.367 63.8 249.413 63.8 246.709 63.8901L246.722 64.2899ZM257.515 64.2C260.667 64.2 265.613 64.2 268.309 64.2899L268.322 63.8901C265.618 63.8 260.664 63.8 257.515 63.8V64.2ZM268.515 64.09V63.28H268.115V64.09H268.515ZM268.457 63.1386L268.277 62.9586L267.994 63.2414L268.174 63.4214L268.457 63.1386ZM268.135 62.9C265.972 62.9 263.736 62.8997 261.772 62.6318L261.718 63.0282C263.714 63.3004 265.979 63.3 268.135 63.3V62.9ZM261.774 62.632C261.478 62.5897 261.31 62.5104 261.21 62.3953C261.11 62.2797 261.045 62.0902 261.045 61.75H260.645C260.645 62.1298 260.716 62.4353 260.908 62.6572C261.101 62.8796 261.383 62.9803 261.717 63.028L261.774 62.632ZM261.045 61.75V33.85H260.645V61.75H261.045ZM286.773 34.21H286.573V34.6507L286.905 34.3605L286.773 34.21ZM286.953 28L287.153 28.0105L287.158 27.9216L287.095 27.8586L286.953 28ZM286.773 27.82L286.915 27.6786L286.852 27.6158L286.763 27.6202L286.773 27.82ZM272.913 28V27.8H272.713V28H272.913ZM272.913 28.72H272.713V28.8028L272.772 28.8614L272.913 28.72ZM273.093 28.9L272.952 29.0414L273.01 29.1H273.093V28.9ZM279.213 29.17L279.242 28.9719L279.234 28.9711L279.213 29.17ZM279.213 62.83L279.24 63.0282L279.241 63.028L279.213 62.83ZM272.823 63.1V62.9H272.74L272.682 62.9586L272.823 63.1ZM272.643 63.28L272.502 63.1386L272.443 63.1972V63.28H272.643ZM272.643 64.09H272.443V64.2968L272.65 64.2899L272.643 64.09ZM294.243 64.09L294.237 64.2899L294.443 64.2968V64.09H294.243ZM294.243 63.28H294.443V63.1972L294.385 63.1386L294.243 63.28ZM294.063 63.1L294.205 62.9586L294.146 62.9H294.063V63.1ZM287.673 62.83L287.645 63.028L287.646 63.0282L287.673 62.83ZM290.103 33.22L290.216 33.3854L290.217 33.3842L290.103 33.22ZM304.413 64L304.214 63.9889L304.209 64.0782L304.272 64.1414L304.413 64ZM304.593 64.18L304.452 64.3214L304.513 64.383L304.6 64.3799L304.593 64.18ZM319.353 64V64.2H319.553V64H319.353ZM319.353 63.28H319.553V63.1972L319.495 63.1386L319.353 63.28ZM319.173 63.1L319.315 62.9586L319.256 62.9H319.173V63.1ZM312.153 62.83L312.167 62.63H312.153V62.83ZM294.243 28.81L294.338 28.9859L294.34 28.9852L294.243 28.81ZM286.973 34.21C286.973 32.5944 287.063 29.718 287.153 28.0105L286.753 27.9895C286.663 29.702 286.573 32.5856 286.573 34.21H286.973ZM287.095 27.8586L286.915 27.6786L286.632 27.9614L286.812 28.1414L287.095 27.8586ZM286.763 27.6202C283.169 27.7999 276.786 27.8 272.913 27.8V28.2C276.781 28.2 283.177 28.2001 286.783 28.0197L286.763 27.6202ZM272.713 28V28.72H273.113V28H272.713ZM272.772 28.8614L272.952 29.0414L273.235 28.7586L273.055 28.5786L272.772 28.8614ZM273.093 29.1C275.249 29.1 277.492 29.1899 279.192 29.3689L279.234 28.9711C277.515 28.7901 275.257 28.7 273.093 28.7V29.1ZM279.185 29.368C279.481 29.4103 279.649 29.4896 279.748 29.6047C279.848 29.7203 279.913 29.9098 279.913 30.25H280.313C280.313 29.8702 280.243 29.5647 280.051 29.3428C279.858 29.1204 279.575 29.0197 279.241 28.972L279.185 29.368ZM279.913 30.25V61.75H280.313V30.25H279.913ZM279.913 61.75C279.913 62.0902 279.848 62.2797 279.748 62.3953C279.649 62.5104 279.481 62.5897 279.185 62.632L279.241 63.028C279.575 62.9803 279.858 62.8796 280.051 62.6572C280.243 62.4353 280.313 62.1298 280.313 61.75H279.913ZM279.186 62.6318C277.222 62.8997 274.987 62.9 272.823 62.9V63.3C274.98 63.3 277.244 63.3004 279.24 63.0282L279.186 62.6318ZM272.682 62.9586L272.502 63.1386L272.785 63.4214L272.965 63.2414L272.682 62.9586ZM272.443 63.28V64.09H272.843V63.28H272.443ZM272.65 64.2899C275.346 64.2 280.292 64.2 283.443 64.2V63.8C280.295 63.8 275.341 63.8 272.637 63.8901L272.65 64.2899ZM283.443 64.2C286.595 64.2 291.541 64.2 294.237 64.2899L294.25 63.8901C291.546 63.8 286.592 63.8 283.443 63.8V64.2ZM294.443 64.09V63.28H294.043V64.09H294.443ZM294.385 63.1386L294.205 62.9586L293.922 63.2414L294.102 63.4214L294.385 63.1386ZM294.063 62.9C291.9 62.9 289.664 62.8997 287.7 62.6318L287.646 63.0282C289.642 63.3004 291.907 63.3 294.063 63.3V62.9ZM287.701 62.632C287.405 62.5897 287.238 62.5104 287.138 62.3953C287.038 62.2797 286.973 62.0902 286.973 61.75H286.573C286.573 62.1298 286.643 62.4353 286.836 62.6572C287.029 62.8796 287.311 62.9803 287.645 63.028L287.701 62.632ZM286.973 61.75V38.8H286.573V61.75H286.973ZM286.973 38.8C286.973 37.3404 287.238 36.3703 287.761 35.5804C288.289 34.7835 289.092 34.1497 290.216 33.3854L289.991 33.0546C288.865 33.8203 288.003 34.4915 287.428 35.3596C286.848 36.2347 286.573 37.2896 286.573 38.8H286.973ZM290.217 33.3842C292.259 31.964 294.11 31.35 296.223 31.35V30.95C294.017 30.95 292.087 31.596 289.989 33.0558L290.217 33.3842ZM296.223 31.35C298.922 31.35 300.952 32.2326 302.313 33.8763C303.679 35.5262 304.393 37.9713 304.393 41.14H304.793C304.793 37.9187 304.068 35.3688 302.621 33.6212C301.169 31.8674 299.015 30.95 296.223 30.95V31.35ZM304.393 41.14V58.15H304.793V41.14H304.393ZM304.393 58.15C304.393 60.125 304.303 62.371 304.214 63.9889L304.613 64.0111C304.703 62.389 304.793 60.135 304.793 58.15H304.393ZM304.272 64.1414L304.452 64.3214L304.735 64.0386L304.555 63.8586L304.272 64.1414ZM304.6 64.3799C309.546 64.2 316.652 64.2 319.353 64.2V63.8C316.654 63.8 309.54 63.8 304.586 63.9801L304.6 64.3799ZM319.553 64V63.28H319.153V64H319.553ZM319.495 63.1386L319.315 62.9586L319.032 63.2414L319.212 63.4214L319.495 63.1386ZM319.173 62.9C317.379 62.9 314.773 62.8102 312.167 62.6305L312.139 63.0295C314.753 63.2098 317.368 63.3 319.173 63.3V62.9ZM312.153 62.63C311.877 62.63 311.719 62.5527 311.622 62.4339C311.518 62.3062 311.453 62.0915 311.453 61.75H311.053C311.053 62.1285 311.123 62.4538 311.312 62.6861C311.508 62.9273 311.799 63.03 312.153 63.03V62.63ZM311.453 61.75V39.88H311.053V61.75H311.453ZM311.453 39.88C311.453 35.9858 310.616 32.782 308.752 30.5493C306.882 28.31 304.006 27.08 300.003 27.08V27.48C303.921 27.48 306.67 28.68 308.445 30.8057C310.225 32.938 311.053 36.0342 311.053 39.88H311.453ZM300.003 27.08C297.987 27.08 295.974 27.6299 294.147 28.6348L294.34 28.9852C296.112 28.0101 298.06 27.48 300.003 27.48V27.08ZM294.148 28.6341C291.972 29.813 289.529 31.5326 286.642 34.0595L286.905 34.3605C289.777 31.8474 292.195 30.147 294.338 28.9859L294.148 28.6341ZM326.073 58.24L326.255 58.1568L326.255 58.1562L326.073 58.24ZM325.173 53.2H325.373V53.1172L325.314 53.0586L325.173 53.2ZM324.993 53.02L325.134 52.8786L325.076 52.82H324.993V53.02ZM324.363 53.02V52.82H324.163V53.02H324.363ZM324.183 62.38L323.984 62.3591L323.98 62.3942L323.989 62.4285L324.183 62.38ZM324.273 62.74L324.079 62.7885L324.101 62.8777L324.184 62.9189L324.273 62.74ZM337.953 42.04L338.023 41.8526L338.023 41.8526L337.953 42.04ZM345.423 33.4L345.61 33.3282L345.608 33.3238L345.423 33.4ZM346.323 38.53H346.123V38.6128L346.182 38.6714L346.323 38.53ZM346.503 38.71L346.362 38.8514L346.42 38.91H346.503V38.71ZM347.133 38.71V38.91H347.333V38.71H347.133ZM347.313 29.62L347.512 29.6409L347.516 29.6058L347.507 29.5715L347.313 29.62ZM347.223 29.26L347.417 29.2115L347.401 29.1466L347.349 29.1045L347.223 29.26ZM334.713 49.15L334.644 49.3377L334.645 49.3382L334.713 49.15ZM336.243 63.62C333.255 63.62 331.111 63.0179 329.542 62.0415C327.975 61.0658 326.963 59.7054 326.255 58.1568L325.891 58.3232C326.623 59.9246 327.681 61.3542 329.331 62.3811C330.98 63.4071 333.201 64.02 336.243 64.02V63.62ZM326.255 58.1562C325.731 57.0212 325.373 55.0725 325.373 53.2H324.973C324.973 55.1075 325.335 57.1188 325.891 58.3238L326.255 58.1562ZM325.314 53.0586L325.134 52.8786L324.852 53.1614L325.032 53.3414L325.314 53.0586ZM324.993 52.82H324.363V53.22H324.993V52.82ZM324.163 53.02C324.163 55.3678 324.163 60.6626 323.984 62.3591L324.382 62.4009C324.563 60.6774 324.563 55.3522 324.563 53.02H324.163ZM323.989 62.4285L324.079 62.7885L324.467 62.6915L324.377 62.3315L323.989 62.4285ZM324.184 62.9189C326.92 64.2873 331.634 65.1 334.893 65.1V64.7C331.672 64.7 327.026 63.8927 324.362 62.5611L324.184 62.9189ZM334.893 65.1C343.693 65.1 349.583 60.0071 349.583 53.47H349.183C349.183 59.7129 343.553 64.7 334.893 64.7V65.1ZM349.583 53.47C349.583 50.5003 348.757 48.3517 346.877 46.5638C345.011 44.7896 342.119 43.3831 338.023 41.8526L337.883 42.2273C341.977 43.7569 344.8 45.1404 346.601 46.8537C348.389 48.5533 349.183 50.5897 349.183 53.47H349.583ZM338.023 41.8526C335.01 40.7286 333.114 39.729 331.967 38.5163C330.833 37.3173 330.413 35.8893 330.413 33.85H330.013C330.013 35.9507 330.448 37.4927 331.676 38.7912C332.892 40.076 334.866 41.1014 337.883 42.2274L338.023 41.8526ZM330.413 33.85C330.413 31.8861 331.218 30.4135 332.453 29.4276C333.693 28.4375 335.379 27.93 337.143 27.93V27.53C335.307 27.53 333.528 28.0575 332.203 29.1149C330.873 30.1765 330.013 31.7639 330.013 33.85H330.413ZM337.143 27.93C339.489 27.93 341.199 28.5707 342.476 29.5747C343.756 30.5812 344.616 31.9651 345.238 33.4762L345.608 33.3238C344.97 31.7749 344.075 30.3238 342.723 29.2603C341.367 28.1943 339.567 27.53 337.143 27.53V27.93ZM345.236 33.4718C345.678 34.6193 346.123 36.665 346.123 38.53H346.523C346.523 36.615 346.068 34.5207 345.61 33.3282L345.236 33.4718ZM346.182 38.6714L346.362 38.8514L346.644 38.5686L346.464 38.3886L346.182 38.6714ZM346.503 38.91H347.133V38.51H346.503V38.91ZM347.333 38.71C347.333 36.3624 347.333 31.3374 347.512 29.6409L347.114 29.5991C346.933 31.3226 346.933 36.3776 346.933 38.71H347.333ZM347.507 29.5715L347.417 29.2115L347.029 29.3085L347.119 29.6685L347.507 29.5715ZM347.349 29.1045C346.375 28.3159 344.861 27.6316 343.195 27.1443C341.526 26.6561 339.685 26.36 338.043 26.36V26.76C339.641 26.76 341.445 27.0489 343.083 27.5282C344.725 28.0084 346.181 28.6741 347.097 29.4154L347.349 29.1045ZM338.043 26.36C330.94 26.36 325.333 31.0143 325.333 37.63H325.733C325.733 31.2857 331.106 26.76 338.043 26.76V26.36ZM325.333 37.63C325.333 40.637 326.109 43.0022 327.674 44.901C329.235 46.7952 331.567 48.2063 334.644 49.3377L334.782 48.9623C331.739 47.8437 329.481 46.4648 327.982 44.6465C326.487 42.8328 325.733 40.563 325.733 37.63H325.333ZM334.645 49.3382C338.651 50.7786 341.069 51.9379 342.488 53.2137C343.193 53.8473 343.648 54.5078 343.93 55.2456C344.212 55.9857 344.323 56.8144 344.323 57.79H344.723C344.723 56.7856 344.609 55.9043 344.303 55.1031C343.997 54.2997 343.502 53.5877 342.755 52.9163C341.272 51.5821 338.784 50.4014 334.781 48.9618L334.645 49.3382ZM344.323 57.79C344.323 59.6004 343.378 61.051 341.891 62.0568C340.4 63.0653 338.371 63.62 336.243 63.62V64.02C338.435 64.02 340.546 63.4497 342.115 62.3882C343.688 61.324 344.723 59.7596 344.723 57.79H344.323Z" fill="#798777"/>
</svg>
