<svg width="195" height="38" viewBox="0 0 195 38" fill="none" xmlns="http://www.w3.org/2000/svg">
<path d="M32.7 4.9C32.95 4.4 33.15 4.3 33.6 4.25C34.85 4.15 35.8 4.1 37 4.1L37.1 4V3.55C35 3.6 34.4 3.6 32.25 3.6C30.1 3.6 29.55 3.6 27.45 3.55V4L27.55 4.1C28.75 4.1 29.7 4.15 30.95 4.25C31.4 4.3 31.6 4.35 31.5 4.7C31 6.35 29.9 9.1 28.9 11.45L20.75 31.2H20.6L9.7 4.75C9.6 4.45 9.7 4.3 10.15 4.25C11.25 4.15 12.35 4.1 13.55 4.1L13.65 4V3.55C11.55 3.6 9.15 3.6 7 3.6C4.85 3.6 2.7 3.6 0.6 3.55V4L0.7 4.1C1.9 4.1 3.05 4.1 4.2 4.25C4.65 4.3 5.05 4.45 5.25 4.9L18.85 37.2H19L27.9 15.85C29.95 11.1 31.35 7.85 32.7 4.9ZM54.1461 2.5C44.8961 2.5 36.7961 9.7 36.7961 19.75C36.7961 30.2 44.2961 36.65 54.1461 36.65C63.5961 36.65 71.7461 29.5 71.7461 19.4C71.7461 9.5 64.2461 2.5 54.1461 2.5ZM54.7461 35.95C46.9961 35.95 41.4461 29.65 41.4461 18.9C41.4461 9 47.2461 3.2 53.6961 3.2C61.1961 3.2 67.0961 9 67.0961 20.3C67.0961 30.35 61.3461 35.95 54.7461 35.95ZM83.3469 19.65C83.3469 18.75 83.3969 16.95 83.4469 16L83.3469 15.9C81.3469 16 77.7969 16 75.6469 16V16.4L75.7469 16.5C76.9469 16.5 78.1969 16.55 79.1469 16.65C79.4969 16.7 79.6469 16.85 79.6469 17.25V34.75C79.6469 35.15 79.4969 35.3 79.1469 35.35C78.0469 35.5 76.7969 35.5 75.5969 35.5L75.4969 35.6V36.05C76.9969 36 79.7469 36 81.4969 36C83.2469 36 85.9969 36 87.4969 36.05V35.6L87.3969 35.5C86.1969 35.5 84.9469 35.5 83.8469 35.35C83.4969 35.3 83.3469 35.15 83.3469 34.75V22.15C83.3469 20.65 83.5469 20.1 84.6969 19.05C85.4469 18.4 86.2969 18 87.4469 18C89.2469 18 90.4469 18.9 90.7469 20.55C90.9469 21.65 90.9969 22.35 90.9969 23.55L91.0969 23.65H91.4469C91.4469 22 91.5969 19.15 91.7469 17.25L91.6969 17.05C91.2469 16.25 90.2969 15.6 88.9469 15.6C88.0469 15.6 87.3969 15.9 86.5969 16.5C85.4469 17.4 84.7469 18 83.3469 19.65ZM102.139 35.9C98.7887 35.9 97.2887 34.55 96.4887 32.8C96.1887 32.15 95.9887 31.05 95.9887 30L95.8887 29.9H95.5387C95.5387 31.2 95.5387 34.15 95.4387 35.1L95.4887 35.3C96.9887 36.05 99.5887 36.5 101.389 36.5C106.239 36.5 109.439 33.7 109.439 30.15C109.439 26.9 107.639 25.5 103.089 23.8C99.7387 22.55 98.7887 21.55 98.7887 19.25C98.7887 17 100.639 15.85 102.639 15.85C105.289 15.85 106.539 17.3 107.239 19C107.489 19.65 107.739 20.8 107.739 21.85L107.839 21.95H108.189C108.189 20.65 108.189 17.85 108.289 16.9L108.239 16.7C107.189 15.85 104.939 15.2 103.139 15.2C99.2387 15.2 96.1887 17.75 96.1887 21.35C96.1887 24.65 97.8887 26.5 101.289 27.75C105.739 29.35 106.739 30.35 106.739 32.55C106.739 34.65 104.539 35.9 102.139 35.9ZM128.946 17.2L124.146 23.05C122.346 25.2 121.596 25.55 120.896 25.55H120.646V4.3C120.646 3.4 120.696 2 120.746 1.05L120.646 0.949998C118.646 1.05 115.096 1.05 112.946 1.05V1.45L113.046 1.55C114.246 1.55 115.496 1.6 116.446 1.7C116.796 1.75 116.946 1.9 116.946 2.3V34.75C116.946 35.15 116.796 35.3 116.446 35.35C115.346 35.5 114.096 35.5 112.896 35.5L112.796 35.6V36.05C114.296 36 117.046 36 118.796 36C120.546 36 123.296 36 124.796 36.05V35.6L124.696 35.5C123.496 35.5 122.246 35.5 121.146 35.35C120.796 35.3 120.646 35.15 120.646 34.75V26.15H120.996C121.396 26.15 121.746 26.35 122.096 26.7C124.846 29.75 127.796 33.6 129.446 36L129.546 36.1C132.296 36 136.746 36 138.246 36V35.6L138.146 35.5C137.146 35.5 136.396 35.45 135.096 35.3C134.496 35.25 133.946 35.1 133.346 34.4C130.346 31.1 125.696 25.9 124.146 24L129.596 17.5C130.096 16.9 130.396 16.7 130.796 16.65C131.896 16.5 132.646 16.5 133.846 16.5L133.946 16.4V15.95C132.446 16 131.696 16 129.946 16C128.196 16 126.746 16 125.246 15.95V16.4L125.346 16.5C126.546 16.5 127.646 16.55 128.646 16.65C128.996 16.7 129.196 16.85 128.946 17.2ZM146.009 9.3C146.009 7.9 144.909 6.8 143.509 6.8C142.109 6.8 141.009 7.9 141.009 9.3C141.009 10.7 142.109 11.8 143.509 11.8C144.909 11.8 146.009 10.7 146.009 9.3ZM145.359 19.25C145.359 18.35 145.409 16.95 145.459 16L145.359 15.9C143.359 16 139.809 16 137.659 16V16.4L137.759 16.5C138.959 16.5 140.209 16.55 141.159 16.65C141.509 16.7 141.659 16.85 141.659 17.25V34.75C141.659 35.15 141.509 35.3 141.159 35.35C140.059 35.5 138.809 35.5 137.609 35.5L137.509 35.6V36.05C139.009 36 141.759 36 143.509 36C145.259 36 148.009 36 149.509 36.05V35.6L149.409 35.5C148.209 35.5 146.959 35.5 145.859 35.35C145.509 35.3 145.359 35.15 145.359 34.75V19.25ZM159.763 19.45C159.763 18.55 159.813 16.95 159.863 16L159.763 15.9C157.763 16 154.213 16 152.063 16V16.4L152.163 16.5C153.363 16.5 154.613 16.55 155.563 16.65C155.913 16.7 156.063 16.85 156.063 17.25V34.75C156.063 35.15 155.913 35.3 155.563 35.35C154.463 35.5 153.213 35.5 152.013 35.5L151.913 35.6V36.05C153.413 36 156.163 36 157.913 36C159.663 36 162.413 36 163.913 36.05V35.6L163.813 35.5C162.613 35.5 161.363 35.5 160.263 35.35C159.913 35.3 159.763 35.15 159.763 34.75V22C159.763 20.35 160.363 19.75 161.613 18.9C162.763 18.1 163.813 17.75 165.013 17.75C168.063 17.75 169.663 19.75 169.663 23.3V32.75C169.663 33.85 169.613 35.1 169.563 36L169.663 36.1C172.413 36 176.363 36 177.863 36V35.6L177.763 35.5C176.763 35.5 175.313 35.45 173.863 35.35C173.513 35.35 173.363 35.15 173.363 34.75V22.6C173.363 18.3 171.513 15.6 167.113 15.6C166.013 15.6 164.913 15.9 163.913 16.45C162.713 17.1 161.363 18.05 159.763 19.45ZM187.246 35.9C183.896 35.9 182.396 34.55 181.596 32.8C181.296 32.15 181.096 31.05 181.096 30L180.996 29.9H180.646C180.646 31.2 180.646 34.15 180.546 35.1L180.596 35.3C182.096 36.05 184.696 36.5 186.496 36.5C191.346 36.5 194.546 33.7 194.546 30.15C194.546 26.9 192.746 25.5 188.196 23.8C184.846 22.55 183.896 21.55 183.896 19.25C183.896 17 185.746 15.85 187.746 15.85C190.396 15.85 191.646 17.3 192.346 19C192.596 19.65 192.846 20.8 192.846 21.85L192.946 21.95H193.296C193.296 20.65 193.296 17.85 193.396 16.9L193.346 16.7C192.296 15.85 190.046 15.2 188.246 15.2C184.346 15.2 181.296 17.75 181.296 21.35C181.296 24.65 182.996 26.5 186.396 27.75C190.846 29.35 191.846 30.35 191.846 32.55C191.846 34.65 189.646 35.9 187.246 35.9Z" fill="#FEF5ED"/>
<path d="M32.7 4.9L32.521 4.8105L32.5181 4.81677L32.7 4.9ZM33.6 4.25L33.584 4.05054L33.5779 4.05122L33.6 4.25ZM37 4.1V4.3H37.0828L37.1414 4.24142L37 4.1ZM37.1 4L37.2414 4.14142L37.3 4.08284V4H37.1ZM37.1 3.55H37.3V3.34518L37.0952 3.35005L37.1 3.55ZM27.45 3.55L27.4548 3.35005L27.25 3.34518V3.55H27.45ZM27.45 4H27.25V4.08284L27.3086 4.14142L27.45 4ZM27.55 4.1L27.4086 4.24142L27.4672 4.3H27.55V4.1ZM30.95 4.25L30.9721 4.05113L30.966 4.05063L30.95 4.25ZM31.5 4.7L31.6914 4.75801L31.6923 4.75494L31.5 4.7ZM28.9 11.45L28.716 11.3717L28.7151 11.3737L28.9 11.45ZM20.75 31.2V31.4H20.8838L20.9349 31.2763L20.75 31.2ZM20.6 31.2L20.4151 31.2762L20.4661 31.4H20.6V31.2ZM9.7 4.75L9.50981 4.8134L9.51509 4.8262L9.7 4.75ZM10.15 4.25L10.1319 4.05078L10.1279 4.05122L10.15 4.25ZM13.55 4.1V4.3H13.6328L13.6914 4.24142L13.55 4.1ZM13.65 4L13.7914 4.14142L13.85 4.08284V4H13.65ZM13.65 3.55H13.85V3.34518L13.6452 3.35005L13.65 3.55ZM0.6 3.55L0.604761 3.35005L0.4 3.34518V3.55H0.6ZM0.6 4H0.4V4.08284L0.458577 4.14142L0.6 4ZM0.7 4.1L0.558577 4.24142L0.617156 4.3H0.7V4.1ZM4.2 4.25L4.17413 4.44835L4.17791 4.44877L4.2 4.25ZM5.25 4.9L5.43436 4.82237L5.43276 4.81877L5.25 4.9ZM18.85 37.2L18.6657 37.2776L18.7172 37.4H18.85V37.2ZM19 37.2V37.4H19.1333L19.1846 37.277L19 37.2ZM27.9 15.85L27.7164 15.7707L27.7154 15.773L27.9 15.85ZM32.8789 4.98944C32.9984 4.75042 33.0921 4.63666 33.1877 4.57149C33.283 4.50652 33.4043 4.47298 33.6221 4.44877L33.5779 4.05122C33.3457 4.07702 33.142 4.11848 32.9623 4.241C32.7829 4.36334 32.6516 4.54957 32.5211 4.81055L32.8789 4.98944ZM33.6159 4.44936C34.8624 4.34965 35.8068 4.3 37 4.3V3.9C35.7932 3.9 34.8376 3.95035 33.5841 4.05063L33.6159 4.44936ZM37.1414 4.24142L37.2414 4.14142L36.9586 3.85858L36.8586 3.95858L37.1414 4.24142ZM37.3 4V3.55H36.9V4H37.3ZM37.0952 3.35005C34.9975 3.4 34.3992 3.4 32.25 3.4V3.8C34.4008 3.8 35.0025 3.8 37.1048 3.74994L37.0952 3.35005ZM32.25 3.4C30.1008 3.4 29.5526 3.4 27.4548 3.35005L27.4452 3.74994C29.5474 3.8 30.0992 3.8 32.25 3.8V3.4ZM27.25 3.55V4H27.65V3.55H27.25ZM27.3086 4.14142L27.4086 4.24142L27.6914 3.95858L27.5914 3.85858L27.3086 4.14142ZM27.55 4.3C28.7432 4.3 29.6876 4.34965 30.9341 4.44936L30.966 4.05063C29.7124 3.95035 28.7568 3.9 27.55 3.9V4.3ZM30.9279 4.44877C31.0402 4.46125 31.1283 4.47287 31.1981 4.48777C31.2698 4.5031 31.3047 4.51852 31.3203 4.52891C31.3265 4.533 31.3267 4.53443 31.3252 4.5323C31.3234 4.52982 31.3234 4.52837 31.324 4.53097C31.3259 4.53976 31.3286 4.57188 31.3077 4.64505L31.6923 4.75494C31.7214 4.65312 31.7366 4.54774 31.7151 4.44716C31.6914 4.3367 31.6281 4.25338 31.5422 4.19609C31.464 4.14397 31.3708 4.11565 31.2816 4.0966C31.1905 4.07713 31.0848 4.06375 30.9721 4.05122L30.9279 4.44877ZM31.3086 4.642C30.8121 6.28045 29.7161 9.02142 28.716 11.3717L29.084 11.5283C30.0839 9.17857 31.1879 6.41954 31.6914 4.758L31.3086 4.642ZM28.7151 11.3737L20.5651 31.1237L20.9349 31.2763L29.0849 11.5263L28.7151 11.3737ZM20.75 31H20.6V31.4H20.75V31ZM20.7849 31.1238L9.88491 4.6738L9.51509 4.8262L20.4151 31.2762L20.7849 31.1238ZM9.88974 4.68676C9.86874 4.62375 9.86371 4.58397 9.86468 4.56056C9.86545 4.54179 9.86954 4.53767 9.87143 4.53544C9.88563 4.51866 9.95044 4.4734 10.1721 4.44877L10.1279 4.05122C9.89956 4.07659 9.68937 4.13134 9.56607 4.27706C9.42677 4.44169 9.45448 4.64589 9.51026 4.81324L9.88974 4.68676ZM10.1681 4.44918C11.2618 4.34975 12.3558 4.3 13.55 4.3V3.9C12.3442 3.9 11.2382 3.95025 10.1319 4.05082L10.1681 4.44918ZM13.6914 4.24142L13.7914 4.14142L13.5086 3.85858L13.4086 3.95858L13.6914 4.24142ZM13.85 4V3.55H13.45V4H13.85ZM13.6452 3.35005C11.5481 3.39999 9.15057 3.4 7 3.4V3.8C9.14943 3.8 11.5519 3.80001 13.6548 3.74994L13.6452 3.35005ZM7 3.4C4.84956 3.4 2.70197 3.39999 0.604761 3.35005L0.595239 3.74994C2.69803 3.80001 4.85044 3.8 7 3.8V3.4ZM0.4 3.55V4H0.8V3.55H0.4ZM0.458577 4.14142L0.558577 4.24142L0.841423 3.95858L0.741423 3.85858L0.458577 4.14142ZM0.7 4.3C1.90225 4.3 3.03918 4.30028 4.17413 4.44832L4.22587 4.05168C3.06082 3.89972 1.89775 3.9 0.7 3.9V4.3ZM4.17791 4.44877C4.60043 4.49572 4.91021 4.62792 5.06724 4.98123L5.43276 4.81877C5.18979 4.27208 4.69957 4.10428 4.22209 4.05122L4.17791 4.44877ZM5.06567 4.97761L18.6657 37.2776L19.0343 37.1224L5.43433 4.82239L5.06567 4.97761ZM18.85 37.4H19V37H18.85V37.4ZM19.1846 37.277L28.0846 15.927L27.7154 15.773L18.8154 37.123L19.1846 37.277ZM28.0836 15.9292C30.134 11.1785 31.533 7.93079 32.8819 4.98322L32.5181 4.81677C31.167 7.76921 29.766 11.0215 27.7164 15.7707L28.0836 15.9292ZM54.1461 2.3C44.7933 2.3 36.5961 9.58206 36.5961 19.75H36.9961C36.9961 9.81794 44.9989 2.7 54.1461 2.7V2.3ZM36.5961 19.75C36.5961 25.0253 38.4905 29.3047 41.6404 32.2645C44.7887 35.2228 49.1775 36.85 54.1461 36.85V36.45C49.2647 36.45 44.9785 34.8522 41.9143 31.973C38.8517 29.0953 36.9961 24.9247 36.9961 19.75H36.5961ZM54.1461 36.85C63.6963 36.85 71.9461 29.6205 71.9461 19.4H71.5461C71.5461 29.3795 63.4959 36.45 54.1461 36.45V36.85ZM71.9461 19.4C71.9461 9.38042 64.3472 2.3 54.1461 2.3V2.7C64.145 2.7 71.5461 9.61958 71.5461 19.4H71.9461ZM54.7461 35.75C50.9299 35.75 47.6627 34.2011 45.3455 31.3306C43.0252 28.4564 41.6461 24.2423 41.6461 18.9H41.2461C41.2461 24.3077 42.642 28.6186 45.0342 31.5819C47.4295 34.5489 50.8123 36.15 54.7461 36.15V35.75ZM41.6461 18.9C41.6461 9.07626 47.3879 3.4 53.6961 3.4V3C47.1043 3 41.2461 8.92374 41.2461 18.9H41.6461ZM53.6961 3.4C57.3913 3.4 60.6838 4.82709 63.0557 7.64139C65.4299 10.4585 66.8961 14.6834 66.8961 20.3H67.2961C67.2961 14.6166 65.8122 10.2915 63.3615 7.38361C60.9084 4.47291 57.5009 3 53.6961 3V3.4ZM66.8961 20.3C66.8961 25.2872 65.4697 29.1508 63.2438 31.7641C61.0189 34.3763 57.9868 35.75 54.7461 35.75V36.15C58.1054 36.15 61.2483 34.7237 63.5484 32.0234C65.8474 29.3242 67.2961 25.3628 67.2961 20.3H66.8961ZM83.3469 19.65H83.1469V20.1948L83.4994 19.7794L83.3469 19.65ZM83.4469 16L83.6466 16.0105L83.6513 15.9216L83.5883 15.8586L83.4469 16ZM83.3469 15.9L83.4883 15.7586L83.4255 15.6958L83.3369 15.7002L83.3469 15.9ZM75.6469 16V15.8H75.4469V16H75.6469ZM75.6469 16.4H75.4469V16.4828L75.5055 16.5414L75.6469 16.4ZM75.7469 16.5L75.6055 16.6414L75.664 16.7H75.7469V16.5ZM79.1469 16.65L79.1752 16.4519L79.1678 16.4511L79.1469 16.65ZM79.1469 35.35L79.1739 35.5482L79.1752 35.548L79.1469 35.35ZM75.5969 35.5V35.3H75.514L75.4555 35.3586L75.5969 35.5ZM75.4969 35.6L75.3555 35.4586L75.2969 35.5172V35.6H75.4969ZM75.4969 36.05H75.2969V36.2568L75.5035 36.2499L75.4969 36.05ZM87.4969 36.05L87.4902 36.2499L87.6969 36.2568V36.05H87.4969ZM87.4969 35.6H87.6969V35.5172L87.6383 35.4586L87.4969 35.6ZM87.3969 35.5L87.5383 35.3586L87.4797 35.3H87.3969V35.5ZM83.8469 35.35L83.8186 35.548L83.8199 35.5482L83.8469 35.35ZM84.6969 19.05L84.5658 18.8988L84.562 18.9023L84.6969 19.05ZM90.7469 20.55L90.9436 20.5142L90.7469 20.55ZM90.9969 23.55H90.7969V23.6328L90.8555 23.6914L90.9969 23.55ZM91.0969 23.65L90.9555 23.7914L91.014 23.85H91.0969V23.65ZM91.4469 23.65V23.85H91.6469V23.65H91.4469ZM91.7469 17.25L91.9463 17.2657L91.9488 17.2332L91.9409 17.2015L91.7469 17.25ZM91.6969 17.05L91.8909 17.0015L91.8844 16.9754L91.8712 16.9519L91.6969 17.05ZM86.5969 16.5L86.4769 16.34L86.4736 16.3425L86.5969 16.5ZM83.5469 19.65C83.5469 18.7538 83.5968 16.9573 83.6466 16.0105L83.2472 15.9895C83.197 16.9427 83.1469 18.7462 83.1469 19.65H83.5469ZM83.5883 15.8586L83.4883 15.7586L83.2055 16.0414L83.3055 16.1414L83.5883 15.8586ZM83.3369 15.7002C81.3431 15.7999 77.7992 15.8 75.6469 15.8V16.2C77.7945 16.2 81.3506 16.2001 83.3569 16.0998L83.3369 15.7002ZM75.4469 16V16.4H75.8469V16H75.4469ZM75.5055 16.5414L75.6055 16.6414L75.8883 16.3586L75.7883 16.2586L75.5055 16.5414ZM75.7469 16.7C76.9426 16.7 78.1852 16.7499 79.1259 16.8489L79.1678 16.4511C78.2086 16.3501 76.9511 16.3 75.7469 16.3V16.7ZM79.1186 16.848C79.2748 16.8703 79.3422 16.9096 79.377 16.9497C79.4121 16.9903 79.4469 17.0698 79.4469 17.25H79.8469C79.8469 17.0302 79.8066 16.8347 79.6793 16.6878C79.5515 16.5404 79.369 16.4797 79.1752 16.452L79.1186 16.848ZM79.4469 17.25V34.75H79.8469V17.25H79.4469ZM79.4469 34.75C79.4469 34.9302 79.4121 35.0097 79.377 35.0503C79.3422 35.0904 79.2748 35.1297 79.1186 35.152L79.1752 35.548C79.369 35.5203 79.5515 35.4596 79.6793 35.3122C79.8066 35.1653 79.8469 34.9698 79.8469 34.75H79.4469ZM79.1199 35.1518C78.0359 35.2996 76.8002 35.3 75.5969 35.3V35.7C76.7935 35.7 78.0579 35.7004 79.1739 35.5482L79.1199 35.1518ZM75.4555 35.3586L75.3555 35.4586L75.6383 35.7414L75.7383 35.6414L75.4555 35.3586ZM75.2969 35.6V36.05H75.6969V35.6H75.2969ZM75.5035 36.2499C76.9994 36.2 79.7452 36.2 81.4969 36.2V35.8C79.7485 35.8 76.9944 35.8 75.4902 35.8501L75.5035 36.2499ZM81.4969 36.2C83.2485 36.2 85.9944 36.2 87.4902 36.2499L87.5035 35.8501C85.9994 35.8 83.2452 35.8 81.4969 35.8V36.2ZM87.6969 36.05V35.6H87.2969V36.05H87.6969ZM87.6383 35.4586L87.5383 35.3586L87.2555 35.6414L87.3555 35.7414L87.6383 35.4586ZM87.3969 35.3C86.1935 35.3 84.9579 35.2996 83.8739 35.1518L83.8199 35.5482C84.9359 35.7004 86.2002 35.7 87.3969 35.7V35.3ZM83.8752 35.152C83.719 35.1297 83.6515 35.0904 83.6168 35.0503C83.5816 35.0097 83.5469 34.9302 83.5469 34.75H83.1469C83.1469 34.9698 83.1871 35.1653 83.3145 35.3122C83.4422 35.4596 83.6248 35.5203 83.8186 35.548L83.8752 35.152ZM83.5469 34.75V22.15H83.1469V34.75H83.5469ZM83.5469 22.15C83.5469 21.4046 83.5976 20.9265 83.7747 20.5094C83.9513 20.0935 84.2629 19.717 84.8317 19.1977L84.562 18.9023C83.9808 19.433 83.6174 19.8565 83.4065 20.3531C83.1961 20.8485 83.1469 21.3954 83.1469 22.15H83.5469ZM84.8279 19.2011C85.5472 18.5777 86.3521 18.2 87.4469 18.2V17.8C86.2417 17.8 85.3465 18.2223 84.5659 18.8989L84.8279 19.2011ZM87.4469 18.2C88.3141 18.2 89.0181 18.4166 89.5377 18.815C90.0554 19.2119 90.4077 19.8026 90.5501 20.5858L90.9436 20.5142C90.786 19.6474 90.3883 18.9631 89.7811 18.4975C89.1757 18.0334 88.3796 17.8 87.4469 17.8V18.2ZM90.5501 20.5858C90.7475 21.6717 90.7969 22.3595 90.7969 23.55H91.1969C91.1969 22.3405 91.1462 21.6283 90.9436 20.5142L90.5501 20.5858ZM90.8555 23.6914L90.9555 23.7914L91.2383 23.5086L91.1383 23.4086L90.8555 23.6914ZM91.0969 23.85H91.4469V23.45H91.0969V23.85ZM91.6469 23.65C91.6469 22.0074 91.7965 19.1632 91.9463 17.2657L91.5475 17.2343C91.3973 19.1368 91.2469 21.9926 91.2469 23.65H91.6469ZM91.9409 17.2015L91.8909 17.0015L91.5028 17.0985L91.5528 17.2985L91.9409 17.2015ZM91.8712 16.9519C91.3838 16.0855 90.3651 15.4 88.9469 15.4V15.8C90.2287 15.8 91.1099 16.4145 91.5226 17.1481L91.8712 16.9519ZM88.9469 15.4C87.9885 15.4 87.2971 15.7248 86.4769 16.34L86.7169 16.66C87.4966 16.0752 88.1052 15.8 88.9469 15.8V15.4ZM86.4736 16.3425C85.3143 17.2498 84.6042 17.859 83.1944 19.5206L83.4994 19.7794C84.8896 18.141 85.5795 17.5502 86.7201 16.6575L86.4736 16.3425ZM96.4887 32.8L96.6706 32.7168L96.6703 32.7162L96.4887 32.8ZM95.9887 30H96.1887V29.9172L96.1301 29.8586L95.9887 30ZM95.8887 29.9L96.0301 29.7586L95.9715 29.7H95.8887V29.9ZM95.5387 29.9V29.7H95.3387V29.9H95.5387ZM95.4387 35.1L95.2398 35.0791L95.2361 35.1142L95.2446 35.1485L95.4387 35.1ZM95.4887 35.3L95.2946 35.3485L95.317 35.4377L95.3992 35.4789L95.4887 35.3ZM103.089 23.8L103.159 23.6126L103.159 23.6126L103.089 23.8ZM107.239 19L107.425 18.9282L107.424 18.9238L107.239 19ZM107.739 21.85H107.539V21.9328L107.597 21.9914L107.739 21.85ZM107.839 21.95L107.697 22.0914L107.756 22.15H107.839V21.95ZM108.189 21.95V22.15H108.389V21.95H108.189ZM108.289 16.9L108.488 16.9209L108.491 16.8858L108.483 16.8515L108.289 16.9ZM108.239 16.7L108.433 16.6515L108.416 16.5866L108.365 16.5445L108.239 16.7ZM101.289 27.75L101.22 27.9377L101.221 27.9382L101.289 27.75ZM102.139 35.7C100.49 35.7 99.3171 35.3679 98.4631 34.8364C97.6105 34.3058 97.0585 33.5654 96.6706 32.7168L96.3068 32.8832C96.7189 33.7846 97.3169 34.5942 98.2517 35.176C99.1853 35.7571 100.437 36.1 102.139 36.1V35.7ZM96.6703 32.7162C96.3864 32.1012 96.1887 31.0325 96.1887 30H95.7887C95.7887 31.0675 95.9909 32.1988 96.3071 32.8838L96.6703 32.7162ZM96.1301 29.8586L96.0301 29.7586L95.7473 30.0414L95.8473 30.1414L96.1301 29.8586ZM95.8887 29.7H95.5387V30.1H95.8887V29.7ZM95.3387 29.9C95.3387 31.2078 95.3383 34.1426 95.2398 35.0791L95.6376 35.1209C95.739 34.1574 95.7387 31.1922 95.7387 29.9H95.3387ZM95.2446 35.1485L95.2946 35.3485L95.6827 35.2515L95.6327 35.0515L95.2446 35.1485ZM95.3992 35.4789C96.936 36.2473 99.5695 36.7 101.389 36.7V36.3C99.6078 36.3 97.0414 35.8527 95.5781 35.1211L95.3992 35.4789ZM101.389 36.7C106.309 36.7 109.639 33.8471 109.639 30.15H109.239C109.239 33.5529 106.169 36.3 101.389 36.3V36.7ZM109.639 30.15C109.639 28.4803 109.173 27.2617 108.108 26.2488C107.057 25.2496 105.435 24.4631 103.159 23.6126L103.019 23.9873C105.292 24.8369 106.845 25.6004 107.832 26.5387C108.804 27.4633 109.239 28.5697 109.239 30.15H109.639ZM103.159 23.6126C101.486 22.9886 100.45 22.439 99.8277 21.7813C99.2185 21.1373 98.9887 20.3693 98.9887 19.25H98.5887C98.5887 20.4307 98.8339 21.3127 99.5371 22.0562C100.228 22.786 101.341 23.3614 103.019 23.9874L103.159 23.6126ZM98.9887 19.25C98.9887 18.1861 99.4233 17.3935 100.088 16.8626C100.759 16.3275 101.674 16.05 102.639 16.05V15.65C101.603 15.65 100.594 15.9475 99.8389 16.5499C99.0791 17.1565 98.5887 18.0639 98.5887 19.25H98.9887ZM102.639 16.05C103.924 16.05 104.854 16.4007 105.546 16.9447C106.241 17.4912 106.712 18.2451 107.054 19.0761L107.424 18.9238C107.066 18.0549 106.561 17.2338 105.794 16.6303C105.023 16.0243 104.003 15.65 102.639 15.65V16.05ZM107.052 19.0718C107.293 19.6993 107.539 20.825 107.539 21.85H107.939C107.939 20.775 107.684 19.6007 107.425 18.9282L107.052 19.0718ZM107.597 21.9914L107.697 22.0914L107.98 21.8086L107.88 21.7086L107.597 21.9914ZM107.839 22.15H108.189V21.75H107.839V22.15ZM108.389 21.95C108.389 20.6424 108.389 17.8574 108.488 16.9209L108.09 16.8791C107.988 17.8426 107.989 20.6576 107.989 21.95H108.389ZM108.483 16.8515L108.433 16.6515L108.045 16.7485L108.095 16.9485L108.483 16.8515ZM108.365 16.5445C107.81 16.0959 106.957 15.7116 106.026 15.4393C105.092 15.1661 104.061 15 103.139 15V15.4C104.017 15.4 105.01 15.5589 105.914 15.8232C106.82 16.0884 107.617 16.4541 108.113 16.8554L108.365 16.5445ZM103.139 15C99.1553 15 95.9887 17.6143 95.9887 21.35H96.3887C96.3887 17.8857 99.3221 15.4 103.139 15.4V15ZM95.9887 21.35C95.9887 23.037 96.4243 24.3722 97.3093 25.446C98.1907 26.5152 99.5023 27.3063 101.22 27.9377L101.358 27.5623C99.6751 26.9437 98.4367 26.1848 97.618 25.1915C96.803 24.2028 96.3887 22.963 96.3887 21.35H95.9887ZM101.221 27.9382C103.447 28.7386 104.775 29.3779 105.549 30.0737C105.931 30.4173 106.175 30.7728 106.326 31.1681C106.478 31.5657 106.539 32.0144 106.539 32.55H106.939C106.939 31.9856 106.875 31.4843 106.7 31.0256C106.524 30.5647 106.24 30.1577 105.816 29.7763C104.977 29.0221 103.58 28.3614 101.356 27.5618L101.221 27.9382ZM106.539 32.55C106.539 33.5204 106.034 34.301 105.227 34.8468C104.416 35.3953 103.307 35.7 102.139 35.7V36.1C103.37 36.1 104.561 35.7797 105.451 35.1782C106.344 34.574 106.939 33.6796 106.939 32.55H106.539ZM128.946 17.2L129.101 17.3271L129.108 17.3162L128.946 17.2ZM124.146 23.05L124.299 23.1784L124.3 23.1769L124.146 23.05ZM120.646 25.55H120.446V25.75H120.646V25.55ZM120.746 1.05L120.945 1.06051L120.95 0.971559L120.887 0.908575L120.746 1.05ZM120.646 0.949998L120.787 0.808576L120.724 0.745816L120.636 0.750248L120.646 0.949998ZM112.946 1.05V0.849997H112.746V1.05H112.946ZM112.946 1.45H112.746V1.53284L112.804 1.59142L112.946 1.45ZM113.046 1.55L112.904 1.69142L112.963 1.75H113.046V1.55ZM116.446 1.7L116.474 1.50187L116.467 1.5011L116.446 1.7ZM116.446 35.35L116.473 35.5482L116.474 35.548L116.446 35.35ZM112.896 35.5V35.3H112.813L112.754 35.3586L112.896 35.5ZM112.796 35.6L112.654 35.4586L112.596 35.5172V35.6H112.796ZM112.796 36.05H112.596V36.2568L112.802 36.2499L112.796 36.05ZM124.796 36.05L124.789 36.2499L124.996 36.2568V36.05H124.796ZM124.796 35.6H124.996V35.5172L124.937 35.4586L124.796 35.6ZM124.696 35.5L124.837 35.3586L124.779 35.3H124.696V35.5ZM121.146 35.35L121.117 35.548L121.119 35.5482L121.146 35.35ZM120.646 26.15V25.95H120.446V26.15H120.646ZM122.096 26.7L122.244 26.5659L122.237 26.5586L122.096 26.7ZM129.446 36L129.281 36.1133L129.291 36.1284L129.304 36.1414L129.446 36ZM129.546 36.1L129.404 36.2414L129.466 36.303L129.553 36.2999L129.546 36.1ZM138.246 36V36.2H138.446V36H138.246ZM138.246 35.6H138.446V35.5172L138.387 35.4586L138.246 35.6ZM138.146 35.5L138.287 35.3586L138.229 35.3H138.146V35.5ZM135.096 35.3L135.119 35.1012L135.112 35.1007L135.096 35.3ZM133.346 34.4L133.498 34.2698L133.494 34.2655L133.346 34.4ZM124.146 24L123.992 23.8715L123.886 23.9983L123.991 24.1264L124.146 24ZM129.596 17.5L129.749 17.6285L129.749 17.628L129.596 17.5ZM130.796 16.65L130.821 16.8485L130.823 16.8482L130.796 16.65ZM133.846 16.5V16.7H133.929L133.987 16.6414L133.846 16.5ZM133.946 16.4L134.087 16.5414L134.146 16.4828V16.4H133.946ZM133.946 15.95H134.146V15.7432L133.939 15.7501L133.946 15.95ZM125.246 15.95L125.252 15.7501L125.046 15.7432V15.95H125.246ZM125.246 16.4H125.046V16.4828L125.104 16.5414L125.246 16.4ZM125.346 16.5L125.204 16.6414L125.263 16.7H125.346V16.5ZM128.646 16.65L128.674 16.4518L128.666 16.451L128.646 16.65ZM128.791 17.0731L123.991 22.9231L124.3 23.1769L129.1 17.3269L128.791 17.0731ZM123.992 22.9216C122.189 25.0751 121.494 25.35 120.896 25.35V25.75C121.698 25.75 122.502 25.3249 124.299 23.1784L123.992 22.9216ZM120.896 25.35H120.646V25.75H120.896V25.35ZM120.846 25.55V4.3H120.446V25.55H120.846ZM120.846 4.3C120.846 3.40491 120.896 2.00878 120.945 1.06051L120.546 1.03948C120.496 1.99122 120.446 3.39509 120.446 4.3H120.846ZM120.887 0.908575L120.787 0.808576L120.504 1.09142L120.604 1.19142L120.887 0.908575ZM120.636 0.750248C118.642 0.849935 115.098 0.849997 112.946 0.849997V1.25C115.093 1.25 118.649 1.25006 120.656 1.14975L120.636 0.750248ZM112.746 1.05V1.45H113.146V1.05H112.746ZM112.804 1.59142L112.904 1.69142L113.187 1.40858L113.087 1.30858L112.804 1.59142ZM113.046 1.75C114.241 1.75 115.484 1.79987 116.425 1.8989L116.467 1.5011C115.507 1.40013 114.25 1.35 113.046 1.35V1.75ZM116.417 1.89799C116.574 1.9203 116.641 1.95962 116.676 1.99973C116.711 2.0403 116.746 2.11982 116.746 2.3H117.146C117.146 2.08017 117.105 1.8847 116.978 1.73776C116.85 1.59038 116.668 1.52969 116.474 1.50201L116.417 1.89799ZM116.746 2.3V34.75H117.146V2.3H116.746ZM116.746 34.75C116.746 34.9302 116.711 35.0097 116.676 35.0503C116.641 35.0904 116.574 35.1297 116.417 35.152L116.474 35.548C116.668 35.5203 116.85 35.4596 116.978 35.3122C117.105 35.1653 117.146 34.9698 117.146 34.75H116.746ZM116.419 35.1518C115.335 35.2996 114.099 35.3 112.896 35.3V35.7C114.092 35.7 115.357 35.7004 116.473 35.5482L116.419 35.1518ZM112.754 35.3586L112.654 35.4586L112.937 35.7414L113.037 35.6414L112.754 35.3586ZM112.596 35.6V36.05H112.996V35.6H112.596ZM112.802 36.2499C114.298 36.2 117.044 36.2 118.796 36.2V35.8C117.047 35.8 114.293 35.8 112.789 35.8501L112.802 36.2499ZM118.796 36.2C120.547 36.2 123.293 36.2 124.789 36.2499L124.802 35.8501C123.298 35.8 120.544 35.8 118.796 35.8V36.2ZM124.996 36.05V35.6H124.596V36.05H124.996ZM124.937 35.4586L124.837 35.3586L124.554 35.6414L124.654 35.7414L124.937 35.4586ZM124.696 35.3C123.492 35.3 122.257 35.2996 121.173 35.1518L121.119 35.5482C122.235 35.7004 123.499 35.7 124.696 35.7V35.3ZM121.174 35.152C121.018 35.1297 120.95 35.0904 120.916 35.0503C120.88 35.0097 120.846 34.9302 120.846 34.75H120.446C120.446 34.9698 120.486 35.1653 120.613 35.3122C120.741 35.4596 120.924 35.5203 121.117 35.548L121.174 35.152ZM120.846 34.75V26.15H120.446V34.75H120.846ZM120.646 26.35H120.996V25.95H120.646V26.35ZM120.996 26.35C121.321 26.35 121.623 26.5099 121.954 26.8414L122.237 26.5586C121.869 26.1901 121.471 25.95 120.996 25.95V26.35ZM121.947 26.8339C124.691 29.8767 127.635 33.7197 129.281 36.1133L129.611 35.8867C127.956 33.4803 125.001 29.6233 122.244 26.5661L121.947 26.8339ZM129.304 36.1414L129.404 36.2414L129.687 35.9586L129.587 35.8586L129.304 36.1414ZM129.553 36.2999C132.299 36.2 136.744 36.2 138.246 36.2V35.8C136.747 35.8 132.293 35.8 129.538 35.9001L129.553 36.2999ZM138.446 36V35.6H138.046V36H138.446ZM138.387 35.4586L138.287 35.3586L138.004 35.6414L138.104 35.7414L138.387 35.4586ZM138.146 35.3C137.155 35.3 136.413 35.2507 135.119 35.1013L135.073 35.4987C136.378 35.6493 137.136 35.7 138.146 35.7V35.3ZM135.112 35.1007C134.824 35.0766 134.562 35.0296 134.304 34.9118C134.047 34.7945 133.782 34.6014 133.498 34.2698L133.194 34.5302C133.51 34.8986 133.82 35.1305 134.138 35.2757C134.455 35.4204 134.768 35.4734 135.079 35.4993L135.112 35.1007ZM133.494 34.2655C130.493 30.9643 125.847 25.7686 124.301 23.8736L123.991 24.1264C125.545 26.0314 130.199 31.2357 133.198 34.5345L133.494 34.2655ZM124.299 24.1285L129.749 17.6285L129.442 17.3715L123.992 23.8715L124.299 24.1285ZM129.749 17.628C130.24 17.0393 130.498 16.8888 130.821 16.8485L130.771 16.4515C130.294 16.5112 129.951 16.7607 129.442 17.372L129.749 17.628ZM130.823 16.8482C131.908 16.7002 132.646 16.7 133.846 16.7V16.3C132.646 16.3 131.884 16.2998 130.769 16.4518L130.823 16.8482ZM133.987 16.6414L134.087 16.5414L133.804 16.2586L133.704 16.3586L133.987 16.6414ZM134.146 16.4V15.95H133.746V16.4H134.146ZM133.939 15.7501C132.443 15.8 131.695 15.8 129.946 15.8V16.2C131.696 16.2 132.449 16.2 133.952 16.1499L133.939 15.7501ZM129.946 15.8C128.195 15.8 126.748 15.8 125.252 15.7501L125.239 16.1499C126.743 16.2 128.196 16.2 129.946 16.2V15.8ZM125.046 15.95V16.4H125.446V15.95H125.046ZM125.104 16.5414L125.204 16.6414L125.487 16.3586L125.387 16.2586L125.104 16.5414ZM125.346 16.7C126.54 16.7 127.634 16.7498 128.626 16.849L128.666 16.451C127.658 16.3502 126.551 16.3 125.346 16.3V16.7ZM128.617 16.848C128.695 16.8591 128.756 16.8746 128.799 16.8926C128.843 16.911 128.856 16.9263 128.858 16.9287C128.858 16.9291 128.858 16.928 128.857 16.9268C128.857 16.9259 128.858 16.9295 128.856 16.9398C128.852 16.9629 128.836 17.0096 128.783 17.0838L129.108 17.3162C129.247 17.1219 129.324 16.8928 129.183 16.6963C129.123 16.6112 129.036 16.5578 128.952 16.5231C128.867 16.4879 128.771 16.4659 128.674 16.452L128.617 16.848ZM145.459 16L145.658 16.0105L145.663 15.9216L145.6 15.8586L145.459 16ZM145.359 15.9L145.5 15.7586L145.437 15.6958L145.349 15.7002L145.359 15.9ZM137.659 16V15.8H137.459V16H137.659ZM137.659 16.4H137.459V16.4828L137.517 16.5414L137.659 16.4ZM137.759 16.5L137.617 16.6414L137.676 16.7H137.759V16.5ZM141.159 16.65L141.187 16.4519L141.18 16.4511L141.159 16.65ZM141.159 35.35L141.186 35.5482L141.187 35.548L141.159 35.35ZM137.609 35.5V35.3H137.526L137.467 35.3586L137.609 35.5ZM137.509 35.6L137.367 35.4586L137.309 35.5172V35.6H137.509ZM137.509 36.05H137.309V36.2568L137.515 36.2499L137.509 36.05ZM149.509 36.05L149.502 36.2499L149.709 36.2568V36.05H149.509ZM149.509 35.6H149.709V35.5172L149.65 35.4586L149.509 35.6ZM149.409 35.5L149.55 35.3586L149.491 35.3H149.409V35.5ZM145.859 35.35L145.83 35.548L145.832 35.5482L145.859 35.35ZM146.209 9.3C146.209 7.78954 145.019 6.6 143.509 6.6V7C144.798 7 145.809 8.01046 145.809 9.3H146.209ZM143.509 6.6C141.998 6.6 140.809 7.78954 140.809 9.3H141.209C141.209 8.01046 142.219 7 143.509 7V6.6ZM140.809 9.3C140.809 10.8105 141.998 12 143.509 12V11.6C142.219 11.6 141.209 10.5895 141.209 9.3H140.809ZM143.509 12C145.019 12 146.209 10.8105 146.209 9.3H145.809C145.809 10.5895 144.798 11.6 143.509 11.6V12ZM145.559 19.25C145.559 18.3549 145.608 16.9588 145.658 16.0105L145.259 15.9895C145.209 16.9412 145.159 18.3451 145.159 19.25H145.559ZM145.6 15.8586L145.5 15.7586L145.217 16.0414L145.317 16.1414L145.6 15.8586ZM145.349 15.7002C143.355 15.7999 139.811 15.8 137.659 15.8V16.2C139.806 16.2 143.362 16.2001 145.369 16.0998L145.349 15.7002ZM137.459 16V16.4H137.859V16H137.459ZM137.517 16.5414L137.617 16.6414L137.9 16.3586L137.8 16.2586L137.517 16.5414ZM137.759 16.7C138.954 16.7 140.197 16.7499 141.138 16.8489L141.18 16.4511C140.22 16.3501 138.963 16.3 137.759 16.3V16.7ZM141.13 16.848C141.287 16.8703 141.354 16.9096 141.389 16.9497C141.424 16.9903 141.459 17.0698 141.459 17.25H141.859C141.859 17.0302 141.818 16.8347 141.691 16.6878C141.563 16.5404 141.381 16.4797 141.187 16.452L141.13 16.848ZM141.459 17.25V34.75H141.859V17.25H141.459ZM141.459 34.75C141.459 34.9302 141.424 35.0097 141.389 35.0503C141.354 35.0904 141.287 35.1297 141.13 35.152L141.187 35.548C141.381 35.5203 141.563 35.4596 141.691 35.3122C141.818 35.1653 141.859 34.9698 141.859 34.75H141.459ZM141.132 35.1518C140.048 35.2996 138.812 35.3 137.609 35.3V35.7C138.805 35.7 140.07 35.7004 141.186 35.5482L141.132 35.1518ZM137.467 35.3586L137.367 35.4586L137.65 35.7414L137.75 35.6414L137.467 35.3586ZM137.309 35.6V36.05H137.709V35.6H137.309ZM137.515 36.2499C139.011 36.2 141.757 36.2 143.509 36.2V35.8C141.76 35.8 139.006 35.8 137.502 35.8501L137.515 36.2499ZM143.509 36.2C145.26 36.2 148.006 36.2 149.502 36.2499L149.515 35.8501C148.011 35.8 145.257 35.8 143.509 35.8V36.2ZM149.709 36.05V35.6H149.309V36.05H149.709ZM149.65 35.4586L149.55 35.3586L149.267 35.6414L149.367 35.7414L149.65 35.4586ZM149.409 35.3C148.205 35.3 146.97 35.2996 145.886 35.1518L145.832 35.5482C146.948 35.7004 148.212 35.7 149.409 35.7V35.3ZM145.887 35.152C145.731 35.1297 145.663 35.0904 145.628 35.0503C145.593 35.0097 145.559 34.9302 145.559 34.75H145.159C145.159 34.9698 145.199 35.1653 145.326 35.3122C145.454 35.4596 145.637 35.5203 145.83 35.548L145.887 35.152ZM145.559 34.75V19.25H145.159V34.75H145.559ZM159.763 19.45H159.563V19.8908L159.895 19.6005L159.763 19.45ZM159.863 16L160.063 16.0105L160.067 15.9216L160.004 15.8586L159.863 16ZM159.763 15.9L159.904 15.7586L159.842 15.6958L159.753 15.7002L159.763 15.9ZM152.063 16V15.8H151.863V16H152.063ZM152.063 16.4H151.863V16.4828L151.921 16.5414L152.063 16.4ZM152.163 16.5L152.021 16.6414L152.08 16.7H152.163V16.5ZM155.563 16.65L155.591 16.4519L155.584 16.4511L155.563 16.65ZM155.563 35.35L155.59 35.5482L155.591 35.548L155.563 35.35ZM152.013 35.5V35.3H151.93L151.871 35.3586L152.013 35.5ZM151.913 35.6L151.771 35.4586L151.713 35.5172V35.6H151.913ZM151.913 36.05H151.713V36.2568L151.92 36.2499L151.913 36.05ZM163.913 36.05L163.906 36.2499L164.113 36.2568V36.05H163.913ZM163.913 35.6H164.113V35.5172L164.054 35.4586L163.913 35.6ZM163.813 35.5L163.954 35.3586L163.896 35.3H163.813V35.5ZM160.263 35.35L160.235 35.548L160.236 35.5482L160.263 35.35ZM161.613 18.9L161.725 19.0654L161.727 19.0642L161.613 18.9ZM169.563 36L169.363 35.9889L169.358 36.0782L169.421 36.1414L169.563 36ZM169.663 36.1L169.521 36.2414L169.583 36.303L169.67 36.2999L169.663 36.1ZM177.863 36V36.2H178.063V36H177.863ZM177.863 35.6H178.063V35.5172L178.004 35.4586L177.863 35.6ZM177.763 35.5L177.904 35.3586L177.846 35.3H177.763V35.5ZM173.863 35.35L173.877 35.15H173.863V35.35ZM163.913 16.45L164.008 16.6259L164.009 16.6252L163.913 16.45ZM159.963 19.45C159.963 18.5544 160.013 16.958 160.063 16.0105L159.663 15.9895C159.613 16.942 159.563 18.5456 159.563 19.45H159.963ZM160.004 15.8586L159.904 15.7586L159.621 16.0414L159.721 16.1414L160.004 15.8586ZM159.753 15.7002C157.759 15.7999 154.215 15.8 152.063 15.8V16.2C154.211 16.2 157.767 16.2001 159.773 16.0998L159.753 15.7002ZM151.863 16V16.4H152.263V16H151.863ZM151.921 16.5414L152.021 16.6414L152.304 16.3586L152.204 16.2586L151.921 16.5414ZM152.163 16.7C153.359 16.7 154.601 16.7499 155.542 16.8489L155.584 16.4511C154.625 16.3501 153.367 16.3 152.163 16.3V16.7ZM155.535 16.848C155.691 16.8703 155.758 16.9096 155.793 16.9497C155.828 16.9903 155.863 17.0698 155.863 17.25H156.263C156.263 17.0302 156.223 16.8347 156.095 16.6878C155.968 16.5404 155.785 16.4797 155.591 16.452L155.535 16.848ZM155.863 17.25V34.75H156.263V17.25H155.863ZM155.863 34.75C155.863 34.9302 155.828 35.0097 155.793 35.0503C155.758 35.0904 155.691 35.1297 155.535 35.152L155.591 35.548C155.785 35.5203 155.968 35.4596 156.095 35.3122C156.223 35.1653 156.263 34.9698 156.263 34.75H155.863ZM155.536 35.1518C154.452 35.2996 153.216 35.3 152.013 35.3V35.7C153.21 35.7 154.474 35.7004 155.59 35.5482L155.536 35.1518ZM151.871 35.3586L151.771 35.4586L152.054 35.7414L152.154 35.6414L151.871 35.3586ZM151.713 35.6V36.05H152.113V35.6H151.713ZM151.92 36.2499C153.415 36.2 156.161 36.2 157.913 36.2V35.8C156.165 35.8 153.41 35.8 151.906 35.8501L151.92 36.2499ZM157.913 36.2C159.665 36.2 162.41 36.2 163.906 36.2499L163.92 35.8501C162.415 35.8 159.661 35.8 157.913 35.8V36.2ZM164.113 36.05V35.6H163.713V36.05H164.113ZM164.054 35.4586L163.954 35.3586L163.671 35.6414L163.771 35.7414L164.054 35.4586ZM163.813 35.3C162.61 35.3 161.374 35.2996 160.29 35.1518L160.236 35.5482C161.352 35.7004 162.616 35.7 163.813 35.7V35.3ZM160.291 35.152C160.135 35.1297 160.068 35.0904 160.033 35.0503C159.998 35.0097 159.963 34.9302 159.963 34.75H159.563C159.563 34.9698 159.603 35.1653 159.73 35.3122C159.858 35.4596 160.041 35.5203 160.235 35.548L160.291 35.152ZM159.963 34.75V22H159.563V34.75H159.963ZM159.963 22C159.963 21.2004 160.108 20.6803 160.386 20.2604C160.669 19.8335 161.101 19.4897 161.725 19.0654L161.5 18.7346C160.874 19.1603 160.382 19.5415 160.052 20.0396C159.718 20.5447 159.563 21.1496 159.563 22H159.963ZM161.727 19.0642C162.849 18.284 163.859 17.95 165.013 17.95V17.55C163.766 17.55 162.677 17.916 161.499 18.7358L161.727 19.0642ZM165.013 17.95C166.491 17.95 167.592 18.4326 168.328 19.3213C169.068 20.2162 169.463 21.5513 169.463 23.3H169.863C169.863 21.4987 169.457 20.0588 168.636 19.0662C167.809 18.0674 166.584 17.55 165.013 17.55V17.95ZM169.463 23.3V32.75H169.863V23.3H169.463ZM169.463 32.75C169.463 33.845 169.413 35.091 169.363 35.9889L169.763 36.0111C169.813 35.109 169.863 33.855 169.863 32.75H169.463ZM169.421 36.1414L169.521 36.2414L169.804 35.9586L169.704 35.8586L169.421 36.1414ZM169.67 36.2999C172.416 36.2 176.362 36.2 177.863 36.2V35.8C176.364 35.8 172.41 35.8 169.656 35.9001L169.67 36.2999ZM178.063 36V35.6H177.663V36H178.063ZM178.004 35.4586L177.904 35.3586L177.621 35.6414L177.721 35.7414L178.004 35.4586ZM177.763 35.3C176.768 35.3 175.323 35.2502 173.877 35.1505L173.849 35.5495C175.303 35.6498 176.758 35.7 177.763 35.7V35.3ZM173.863 35.15C173.727 35.15 173.668 35.1127 173.637 35.0739C173.598 35.0262 173.563 34.9315 173.563 34.75H173.163C173.163 34.9685 173.203 35.1738 173.326 35.3261C173.457 35.4873 173.649 35.55 173.863 35.55V35.15ZM173.563 34.75V22.6H173.163V34.75H173.563ZM173.563 22.6C173.563 20.4258 173.096 18.622 172.041 17.3593C170.981 16.09 169.356 15.4 167.113 15.4V15.8C169.27 15.8 170.769 16.46 171.734 17.6157C172.705 18.778 173.163 20.4742 173.163 22.6H173.563ZM167.113 15.4C165.977 15.4 164.844 15.7099 163.817 16.2748L164.009 16.6252C164.982 16.0901 166.049 15.8 167.113 15.8V15.4ZM163.818 16.2741C162.601 16.933 161.239 17.8926 159.631 19.2995L159.895 19.6005C161.487 18.2074 162.825 17.267 164.008 16.6259L163.818 16.2741ZM181.596 32.8L181.778 32.7168L181.778 32.7162L181.596 32.8ZM181.096 30H181.296V29.9172L181.238 29.8586L181.096 30ZM180.996 29.9L181.138 29.7586L181.079 29.7H180.996V29.9ZM180.646 29.9V29.7H180.446V29.9H180.646ZM180.546 35.1L180.347 35.0791L180.343 35.1142L180.352 35.1485L180.546 35.1ZM180.596 35.3L180.402 35.3485L180.424 35.4377L180.507 35.4789L180.596 35.3ZM188.196 23.8L188.266 23.6126L188.266 23.6126L188.196 23.8ZM192.346 19L192.533 18.9282L192.531 18.9238L192.346 19ZM192.846 21.85H192.646V21.9328L192.705 21.9914L192.846 21.85ZM192.946 21.95L192.805 22.0914L192.863 22.15H192.946V21.95ZM193.296 21.95V22.15H193.496V21.95H193.296ZM193.396 16.9L193.595 16.9209L193.599 16.8858L193.59 16.8515L193.396 16.9ZM193.346 16.7L193.54 16.6515L193.524 16.5866L193.472 16.5445L193.346 16.7ZM186.396 27.75L186.327 27.9377L186.328 27.9382L186.396 27.75ZM187.246 35.7C185.598 35.7 184.424 35.3679 183.571 34.8364C182.718 34.3058 182.166 33.5654 181.778 32.7168L181.414 32.8832C181.826 33.7846 182.424 34.5942 183.359 35.176C184.293 35.7571 185.545 36.1 187.246 36.1V35.7ZM181.778 32.7162C181.494 32.1012 181.296 31.0325 181.296 30H180.896C180.896 31.0675 181.098 32.1988 181.415 32.8838L181.778 32.7162ZM181.238 29.8586L181.138 29.7586L180.855 30.0414L180.955 30.1414L181.238 29.8586ZM180.996 29.7H180.646V30.1H180.996V29.7ZM180.446 29.9C180.446 31.2078 180.446 34.1426 180.347 35.0791L180.745 35.1209C180.846 34.1574 180.846 31.1922 180.846 29.9H180.446ZM180.352 35.1485L180.402 35.3485L180.79 35.2515L180.74 35.0515L180.352 35.1485ZM180.507 35.4789C182.043 36.2473 184.677 36.7 186.496 36.7V36.3C184.715 36.3 182.149 35.8527 180.686 35.1211L180.507 35.4789ZM186.496 36.7C191.416 36.7 194.746 33.8471 194.746 30.15H194.346C194.346 33.5529 191.276 36.3 186.496 36.3V36.7ZM194.746 30.15C194.746 28.4803 194.28 27.2617 193.215 26.2488C192.164 25.2496 190.542 24.4631 188.266 23.6126L188.126 23.9873C190.4 24.8369 191.953 25.6004 192.94 26.5387C193.912 27.4633 194.346 28.5697 194.346 30.15H194.746ZM188.266 23.6126C186.594 22.9886 185.557 22.439 184.935 21.7813C184.326 21.1373 184.096 20.3693 184.096 19.25H183.696C183.696 20.4307 183.941 21.3127 184.645 22.0562C185.335 22.786 186.449 23.3614 188.126 23.9874L188.266 23.6126ZM184.096 19.25C184.096 18.1861 184.531 17.3935 185.196 16.8626C185.866 16.3275 186.782 16.05 187.746 16.05V15.65C186.71 15.65 185.701 15.9475 184.946 16.5499C184.187 17.1565 183.696 18.0639 183.696 19.25H184.096ZM187.746 16.05C189.032 16.05 189.962 16.4007 190.654 16.9447C191.349 17.4912 191.819 18.2451 192.161 19.0761L192.531 18.9238C192.173 18.0549 191.669 17.2338 190.901 16.6303C190.13 16.0243 189.11 15.65 187.746 15.65V16.05ZM192.159 19.0718C192.401 19.6993 192.646 20.825 192.646 21.85H193.046C193.046 20.775 192.791 19.6007 192.533 18.9282L192.159 19.0718ZM192.705 21.9914L192.805 22.0914L193.088 21.8086L192.988 21.7086L192.705 21.9914ZM192.946 22.15H193.296V21.75H192.946V22.15ZM193.496 21.95C193.496 20.6424 193.496 17.8574 193.595 16.9209L193.197 16.8791C193.096 17.8426 193.096 20.6576 193.096 21.95H193.496ZM193.59 16.8515L193.54 16.6515L193.152 16.7485L193.202 16.9485L193.59 16.8515ZM193.472 16.5445C192.918 16.0959 192.064 15.7116 191.133 15.4393C190.199 15.1661 189.168 15 188.246 15V15.4C189.124 15.4 190.118 15.5589 191.021 15.8232C191.928 16.0884 192.724 16.4541 193.22 16.8554L193.472 16.5445ZM188.246 15C184.263 15 181.096 17.6143 181.096 21.35H181.496C181.496 17.8857 184.429 15.4 188.246 15.4V15ZM181.096 21.35C181.096 23.037 181.532 24.3722 182.417 25.446C183.298 26.5152 184.61 27.3063 186.327 27.9377L186.465 27.5623C184.783 26.9437 183.544 26.1848 182.725 25.1915C181.91 24.2028 181.496 22.963 181.496 21.35H181.096ZM186.328 27.9382C188.555 28.7386 189.882 29.3779 190.656 30.0737C191.038 30.4173 191.283 30.7728 191.433 31.1681C191.585 31.5657 191.646 32.0144 191.646 32.55H192.046C192.046 31.9856 191.982 31.4843 191.807 31.0256C191.631 30.5647 191.348 30.1577 190.924 29.7763C190.085 29.0221 188.688 28.3614 186.464 27.5618L186.328 27.9382ZM191.646 32.55C191.646 33.5204 191.141 34.301 190.334 34.8468C189.523 35.3953 188.414 35.7 187.246 35.7V36.1C188.478 36.1 189.669 35.7797 190.558 35.1782C191.451 34.574 192.046 33.6796 192.046 32.55H191.646Z" fill="#FEF5ED"/>
</svg>
