<svg width="234" height="45" viewBox="0 0 234 45" fill="none" xmlns="http://www.w3.org/2000/svg">
<path d="M39.04 5.68C39.34 5.08 39.58 4.96 40.12 4.9C41.62 4.78 42.76 4.72 44.2 4.72L44.32 4.6V4.06C41.8 4.12 41.08 4.12 38.5 4.12C35.92 4.12 35.26 4.12 32.74 4.06V4.6L32.86 4.72C34.3 4.72 35.44 4.78 36.94 4.9C37.48 4.96 37.72 5.02 37.6 5.44C37 7.42 35.68 10.72 34.48 13.54L24.7 37.24H24.52L11.44 5.5C11.32 5.14 11.44 4.96 11.98 4.9C13.3 4.78 14.62 4.72 16.06 4.72L16.18 4.6V4.06C13.66 4.12 10.78 4.12 8.2 4.12C5.62 4.12 3.04 4.12 0.52 4.06V4.6L0.64 4.72C2.08 4.72 3.46 4.72 4.84 4.9C5.38 4.96 5.86 5.14 6.1 5.68L22.42 44.44H22.6L33.28 18.82C35.74 13.12 37.42 9.22 39.04 5.68ZM64.7753 2.8C53.6753 2.8 43.9553 11.44 43.9553 23.5C43.9553 36.04 52.9553 43.78 64.7753 43.78C76.1153 43.78 85.8953 35.2 85.8953 23.08C85.8953 11.2 76.8953 2.8 64.7753 2.8ZM65.4953 42.94C56.1953 42.94 49.5353 35.38 49.5353 22.48C49.5353 10.6 56.4953 3.64 64.2353 3.64C73.2353 3.64 80.3153 10.6 80.3153 24.16C80.3153 36.22 73.4153 42.94 65.4953 42.94ZM99.8163 23.38C99.8163 22.3 99.8763 20.14 99.9363 19L99.8163 18.88C97.4163 19 93.1563 19 90.5763 19V19.48L90.6963 19.6C92.1363 19.6 93.6363 19.66 94.7763 19.78C95.1963 19.84 95.3763 20.02 95.3763 20.5V41.5C95.3763 41.98 95.1963 42.16 94.7763 42.22C93.4563 42.4 91.9563 42.4 90.5163 42.4L90.3963 42.52V43.06C92.1963 43 95.4963 43 97.5963 43C99.6963 43 102.996 43 104.796 43.06V42.52L104.676 42.4C103.236 42.4 101.736 42.4 100.416 42.22C99.9963 42.16 99.8163 41.98 99.8163 41.5V26.38C99.8163 24.58 100.056 23.92 101.436 22.66C102.336 21.88 103.356 21.4 104.736 21.4C106.896 21.4 108.336 22.48 108.696 24.46C108.936 25.78 108.996 26.62 108.996 28.06L109.116 28.18H109.536C109.536 26.2 109.716 22.78 109.896 20.5L109.836 20.26C109.296 19.3 108.156 18.52 106.536 18.52C105.456 18.52 104.676 18.88 103.716 19.6C102.336 20.68 101.496 21.4 99.8163 23.38ZM122.366 42.88C118.346 42.88 116.546 41.26 115.586 39.16C115.226 38.38 114.986 37.06 114.986 35.8L114.866 35.68H114.446C114.446 37.24 114.446 40.78 114.326 41.92L114.386 42.16C116.186 43.06 119.306 43.6 121.466 43.6C127.286 43.6 131.126 40.24 131.126 35.98C131.126 32.08 128.966 30.4 123.506 28.36C119.486 26.86 118.346 25.66 118.346 22.9C118.346 20.2 120.566 18.82 122.966 18.82C126.146 18.82 127.646 20.56 128.486 22.6C128.786 23.38 129.086 24.76 129.086 26.02L129.206 26.14H129.626C129.626 24.58 129.626 21.22 129.746 20.08L129.686 19.84C128.426 18.82 125.726 18.04 123.566 18.04C118.886 18.04 115.226 21.1 115.226 25.42C115.226 29.38 117.266 31.6 121.346 33.1C126.686 35.02 127.886 36.22 127.886 38.86C127.886 41.38 125.246 42.88 122.366 42.88ZM154.535 20.44L148.775 27.46C146.615 30.04 145.715 30.46 144.875 30.46H144.575V4.96C144.575 3.88 144.635 2.2 144.695 1.06L144.575 0.939998C142.175 1.06 137.915 1.06 135.335 1.06V1.54L135.455 1.66C136.895 1.66 138.395 1.72 139.535 1.84C139.955 1.9 140.135 2.08 140.135 2.56V41.5C140.135 41.98 139.955 42.16 139.535 42.22C138.215 42.4 136.715 42.4 135.275 42.4L135.155 42.52V43.06C136.955 43 140.255 43 142.355 43C144.455 43 147.755 43 149.555 43.06V42.52L149.435 42.4C147.995 42.4 146.495 42.4 145.175 42.22C144.755 42.16 144.575 41.98 144.575 41.5V31.18H144.995C145.475 31.18 145.895 31.42 146.315 31.84C149.615 35.5 153.155 40.12 155.135 43L155.255 43.12C158.555 43 163.895 43 165.695 43V42.52L165.575 42.4C164.375 42.4 163.475 42.34 161.915 42.16C161.195 42.1 160.535 41.92 159.815 41.08C156.215 37.12 150.635 30.88 148.775 28.6L155.315 20.8C155.915 20.08 156.275 19.84 156.755 19.78C158.075 19.6 158.975 19.6 160.415 19.6L160.535 19.48V18.94C158.735 19 157.835 19 155.735 19C153.635 19 151.895 19 150.095 18.94V19.48L150.215 19.6C151.655 19.6 152.975 19.66 154.175 19.78C154.595 19.84 154.835 20.02 154.535 20.44ZM175.01 10.96C175.01 9.28 173.69 7.96 172.01 7.96C170.33 7.96 169.01 9.28 169.01 10.96C169.01 12.64 170.33 13.96 172.01 13.96C173.69 13.96 175.01 12.64 175.01 10.96ZM174.23 22.9C174.23 21.82 174.29 20.14 174.35 19L174.23 18.88C171.83 19 167.57 19 164.99 19V19.48L165.11 19.6C166.55 19.6 168.05 19.66 169.19 19.78C169.61 19.84 169.79 20.02 169.79 20.5V41.5C169.79 41.98 169.61 42.16 169.19 42.22C167.87 42.4 166.37 42.4 164.93 42.4L164.81 42.52V43.06C166.61 43 169.91 43 172.01 43C174.11 43 177.41 43 179.21 43.06V42.52L179.09 42.4C177.65 42.4 176.15 42.4 174.83 42.22C174.41 42.16 174.23 41.98 174.23 41.5V22.9ZM191.515 23.14C191.515 22.06 191.575 20.14 191.635 19L191.515 18.88C189.115 19 184.855 19 182.275 19V19.48L182.395 19.6C183.835 19.6 185.335 19.66 186.475 19.78C186.895 19.84 187.075 20.02 187.075 20.5V41.5C187.075 41.98 186.895 42.16 186.475 42.22C185.155 42.4 183.655 42.4 182.215 42.4L182.095 42.52V43.06C183.895 43 187.195 43 189.295 43C191.395 43 194.695 43 196.495 43.06V42.52L196.375 42.4C194.935 42.4 193.435 42.4 192.115 42.22C191.695 42.16 191.515 41.98 191.515 41.5V26.2C191.515 24.22 192.235 23.5 193.735 22.48C195.115 21.52 196.375 21.1 197.815 21.1C201.475 21.1 203.395 23.5 203.395 27.76V39.1C203.395 40.42 203.335 41.92 203.275 43L203.395 43.12C206.695 43 211.435 43 213.235 43V42.52L213.115 42.4C211.915 42.4 210.175 42.34 208.435 42.22C208.015 42.22 207.835 41.98 207.835 41.5V26.92C207.835 21.76 205.615 18.52 200.335 18.52C199.015 18.52 197.695 18.88 196.495 19.54C195.055 20.32 193.435 21.46 191.515 23.14ZM224.495 42.88C220.475 42.88 218.675 41.26 217.715 39.16C217.355 38.38 217.115 37.06 217.115 35.8L216.995 35.68H216.575C216.575 37.24 216.575 40.78 216.455 41.92L216.515 42.16C218.315 43.06 221.435 43.6 223.595 43.6C229.415 43.6 233.255 40.24 233.255 35.98C233.255 32.08 231.095 30.4 225.635 28.36C221.615 26.86 220.475 25.66 220.475 22.9C220.475 20.2 222.695 18.82 225.095 18.82C228.275 18.82 229.775 20.56 230.615 22.6C230.915 23.38 231.215 24.76 231.215 26.02L231.335 26.14H231.755C231.755 24.58 231.755 21.22 231.875 20.08L231.815 19.84C230.555 18.82 227.855 18.04 225.695 18.04C221.015 18.04 217.355 21.1 217.355 25.42C217.355 29.38 219.395 31.6 223.475 33.1C228.815 35.02 230.015 36.22 230.015 38.86C230.015 41.38 227.375 42.88 224.495 42.88Z" fill="#FEF5ED"/>
<path d="M39.04 5.68L38.861 5.5905L38.8581 5.59677L39.04 5.68ZM40.12 4.9L40.104 4.70054L40.0979 4.70122L40.12 4.9ZM44.2 4.72V4.92H44.2828L44.3414 4.86142L44.2 4.72ZM44.32 4.6L44.4614 4.74142L44.52 4.68284V4.6H44.32ZM44.32 4.06H44.52V3.85518L44.3152 3.86005L44.32 4.06ZM32.74 4.06L32.7448 3.86005L32.54 3.85518V4.06H32.74ZM32.74 4.6H32.54V4.68284L32.5986 4.74142L32.74 4.6ZM32.86 4.72L32.7186 4.86142L32.7772 4.92H32.86V4.72ZM36.94 4.9L36.9621 4.70113L36.956 4.70063L36.94 4.9ZM37.6 5.44L37.7914 5.49801L37.7923 5.49494L37.6 5.44ZM34.48 13.54L34.296 13.4617L34.2951 13.4637L34.48 13.54ZM24.7 37.24V37.44H24.8338L24.8849 37.3163L24.7 37.24ZM24.52 37.24L24.3351 37.3162L24.3861 37.44H24.52V37.24ZM11.44 5.5L11.2498 5.5634L11.2551 5.5762L11.44 5.5ZM11.98 4.9L11.9619 4.70078L11.9579 4.70122L11.98 4.9ZM16.06 4.72V4.92H16.1428L16.2014 4.86142L16.06 4.72ZM16.18 4.6L16.3214 4.74142L16.38 4.68284V4.6H16.18ZM16.18 4.06H16.38V3.85518L16.1752 3.86005L16.18 4.06ZM0.52 4.06L0.524761 3.86005L0.32 3.85518V4.06H0.52ZM0.52 4.6H0.32V4.68284L0.378577 4.74142L0.52 4.6ZM0.64 4.72L0.498577 4.86142L0.557156 4.92H0.64V4.72ZM4.84 4.9L4.81413 5.09835L4.81791 5.09877L4.84 4.9ZM6.1 5.68L6.28436 5.60237L6.28276 5.59877L6.1 5.68ZM22.42 44.44L22.2357 44.5176L22.2872 44.64H22.42V44.44ZM22.6 44.44V44.64H22.7333L22.7846 44.517L22.6 44.44ZM33.28 18.82L33.0964 18.7407L33.0954 18.743L33.28 18.82ZM39.2189 5.76944C39.3634 5.48042 39.4796 5.33666 39.6027 5.25274C39.7255 5.16902 39.8793 5.12798 40.1421 5.09877L40.0979 4.70122C39.8207 4.73202 39.5845 4.78098 39.3773 4.92225C39.1704 5.06334 39.0166 5.27957 38.8611 5.59055L39.2189 5.76944ZM40.1359 5.09936C41.6324 4.97965 42.7668 4.92 44.2 4.92V4.52C42.7532 4.52 41.6076 4.58035 40.1041 4.70063L40.1359 5.09936ZM44.3414 4.86142L44.4614 4.74142L44.1786 4.45858L44.0586 4.57858L44.3414 4.86142ZM44.52 4.6V4.06H44.12V4.6H44.52ZM44.3152 3.86005C41.7975 3.92 41.0792 3.92 38.5 3.92V4.32C41.0808 4.32 41.8025 4.32 44.3248 4.25994L44.3152 3.86005ZM38.5 3.92C35.9208 3.92 35.2626 3.92 32.7448 3.86005L32.7352 4.25994C35.2574 4.32 35.9192 4.32 38.5 4.32V3.92ZM32.54 4.06V4.6H32.94V4.06H32.54ZM32.5986 4.74142L32.7186 4.86142L33.0014 4.57858L32.8814 4.45858L32.5986 4.74142ZM32.86 4.92C34.2932 4.92 35.4276 4.97965 36.9241 5.09936L36.956 4.70063C35.4524 4.58035 34.3068 4.52 32.86 4.52V4.92ZM36.9179 5.09877C37.0527 5.11375 37.1602 5.12787 37.246 5.14621C37.3339 5.16498 37.3816 5.18477 37.4066 5.20141C37.4238 5.21287 37.4258 5.21892 37.4279 5.22878C37.4321 5.24851 37.4336 5.29438 37.4077 5.38505L37.7923 5.49494C37.8264 5.37562 37.8429 5.25649 37.819 5.14497C37.793 5.02358 37.7237 4.93213 37.6284 4.86859C37.5409 4.81022 37.4349 4.77752 37.3296 4.75504C37.2223 4.73213 37.0973 4.71625 36.9621 4.70122L36.9179 5.09877ZM37.4086 5.382C36.8121 7.35045 35.4961 10.6414 34.296 13.4617L34.664 13.6183C35.8639 10.7986 37.1879 7.48954 37.7914 5.498L37.4086 5.382ZM34.2951 13.4637L24.5151 37.1637L24.8849 37.3163L34.6649 13.6163L34.2951 13.4637ZM24.7 37.04H24.52V37.44H24.7V37.04ZM24.7049 37.1638L11.6249 5.4238L11.2551 5.5762L24.3351 37.3162L24.7049 37.1638ZM11.6297 5.43676C11.5755 5.2741 11.6032 5.23081 11.6152 5.21669C11.6431 5.18366 11.7354 5.1284 12.0021 5.09877L11.9579 4.70122C11.6846 4.73159 11.4469 4.79634 11.3098 4.95831C11.1568 5.13918 11.1845 5.36589 11.2503 5.56324L11.6297 5.43676ZM11.9981 5.09918C13.3118 4.97975 14.6258 4.92 16.06 4.92V4.52C14.6142 4.52 13.2882 4.58025 11.9619 4.70082L11.9981 5.09918ZM16.2014 4.86142L16.3214 4.74142L16.0386 4.45858L15.9186 4.57858L16.2014 4.86142ZM16.38 4.6V4.06H15.98V4.6H16.38ZM16.1752 3.86005C13.6581 3.91999 10.7806 3.92 8.2 3.92V4.32C10.7794 4.32 13.6619 4.32001 16.1848 4.25994L16.1752 3.86005ZM8.2 3.92C5.61956 3.92 3.04197 3.91999 0.524761 3.86005L0.515239 4.25994C3.03803 4.32001 5.62044 4.32 8.2 4.32V3.92ZM0.32 4.06V4.6H0.72V4.06H0.32ZM0.378577 4.74142L0.498577 4.86142L0.781423 4.57858L0.661423 4.45858L0.378577 4.74142ZM0.64 4.92C2.08225 4.92 3.44918 4.92028 4.81413 5.09832L4.86587 4.70168C3.47082 4.51972 2.07775 4.52 0.64 4.52V4.92ZM4.81791 5.09877C5.33043 5.15572 5.72021 5.31791 5.91724 5.76123L6.28276 5.59877C5.99979 4.96208 5.42957 4.76428 4.86209 4.70122L4.81791 5.09877ZM5.91567 5.75761L22.2357 44.5176L22.6043 44.3624L6.28433 5.60239L5.91567 5.75761ZM22.42 44.64H22.6V44.24H22.42V44.64ZM22.7846 44.517L33.4646 18.897L33.0954 18.743L22.4154 44.363L22.7846 44.517ZM33.4636 18.8992C35.924 13.1985 37.603 9.30079 39.2219 5.76322L38.8581 5.59677C37.237 9.13921 35.556 13.0415 33.0964 18.7407L33.4636 18.8992ZM64.7753 2.6C53.5725 2.6 43.7553 11.3221 43.7553 23.5H44.1553C44.1553 11.5579 53.7781 3 64.7753 3V2.6ZM43.7553 23.5C43.7553 29.8203 46.0247 34.9447 49.7959 38.4883C53.5655 42.0303 58.8217 43.98 64.7753 43.98V43.58C58.9089 43.58 53.7552 41.6597 50.0698 38.1967C46.3859 34.7353 44.1553 29.7197 44.1553 23.5H43.7553ZM64.7753 43.98C76.2155 43.98 86.0953 35.3205 86.0953 23.08H85.6953C85.6953 35.0795 76.0151 43.58 64.7753 43.58V43.98ZM86.0953 23.08C86.0953 11.0804 76.9964 2.6 64.7753 2.6V3C76.7942 3 85.6953 11.3196 85.6953 23.08H86.0953ZM65.4953 42.74C60.9041 42.74 56.9719 40.8761 54.1834 37.4219C51.3919 33.9639 49.7353 28.8973 49.7353 22.48H49.3353C49.3353 28.9627 51.0087 34.1261 53.8722 37.6731C56.7387 41.2239 60.7865 43.14 65.4953 43.14V42.74ZM49.7353 22.48C49.7353 10.6763 56.6371 3.84 64.2353 3.84V3.44C56.3535 3.44 49.3353 10.5237 49.3353 22.48H49.7353ZM64.2353 3.84C68.6805 3.84 72.643 5.55709 75.4974 8.94389C78.3542 12.3335 80.1153 17.4134 80.1153 24.16H80.5153C80.5153 17.3466 78.7365 12.1665 75.8032 8.68611C72.8676 5.20291 68.7901 3.44 64.2353 3.44V3.84ZM80.1153 24.16C80.1153 30.1522 78.4015 34.7983 75.7231 37.9428C73.0456 41.0863 69.396 42.74 65.4953 42.74V43.14C69.5146 43.14 73.275 41.4337 76.0276 38.2022C78.7792 34.9717 80.5153 30.2278 80.5153 24.16H80.1153ZM99.8163 23.38H99.6162V23.9248L99.9688 23.5094L99.8163 23.38ZM99.9362 19L100.136 19.0105L100.141 18.9216L100.078 18.8586L99.9362 19ZM99.8163 18.88L99.9577 18.7386L99.8949 18.6758L99.8063 18.6802L99.8163 18.88ZM90.5762 19V18.8H90.3763V19H90.5762ZM90.5762 19.48H90.3763V19.5628L90.4348 19.6214L90.5762 19.48ZM90.6963 19.6L90.5548 19.7414L90.6134 19.8H90.6963V19.6ZM94.7763 19.78L94.8046 19.5819L94.7972 19.5811L94.7763 19.78ZM94.7763 42.22L94.8033 42.4182L94.8045 42.418L94.7763 42.22ZM90.5163 42.4V42.2H90.4334L90.3748 42.2586L90.5163 42.4ZM90.3962 42.52L90.2548 42.3786L90.1963 42.4372V42.52H90.3962ZM90.3962 43.06H90.1963V43.2668L90.4029 43.2599L90.3962 43.06ZM104.796 43.06L104.79 43.2599L104.996 43.2668V43.06H104.796ZM104.796 42.52H104.996V42.4372L104.938 42.3786L104.796 42.52ZM104.676 42.4L104.818 42.2586L104.759 42.2H104.676V42.4ZM100.416 42.22L100.388 42.418L100.389 42.4182L100.416 42.22ZM101.436 22.66L101.305 22.5088L101.301 22.5123L101.436 22.66ZM108.696 24.46L108.893 24.4242L108.696 24.46ZM108.996 28.06H108.796V28.1428L108.855 28.2014L108.996 28.06ZM109.116 28.18L108.975 28.3214L109.033 28.38H109.116V28.18ZM109.536 28.18V28.38H109.736V28.18H109.536ZM109.896 20.5L110.096 20.5157L110.098 20.4832L110.09 20.4515L109.896 20.5ZM109.836 20.26L110.03 20.2115L110.024 20.1854L110.011 20.1619L109.836 20.26ZM103.716 19.6L103.596 19.44L103.593 19.4425L103.716 19.6ZM100.016 23.38C100.016 22.3038 100.076 20.1473 100.136 19.0105L99.7365 18.9895C99.6764 20.1327 99.6162 22.2962 99.6162 23.38H100.016ZM100.078 18.8586L99.9577 18.7386L99.6748 19.0214L99.7948 19.1414L100.078 18.8586ZM99.8063 18.6802C97.4125 18.7999 93.1586 18.8 90.5762 18.8V19.2C93.1539 19.2 97.42 19.2001 99.8262 19.0798L99.8063 18.6802ZM90.3763 19V19.48H90.7763V19H90.3763ZM90.4348 19.6214L90.5548 19.7414L90.8377 19.4586L90.7177 19.3386L90.4348 19.6214ZM90.6963 19.8C92.132 19.8 93.6245 19.8599 94.7553 19.9789L94.7972 19.5811C93.6479 19.4601 92.1405 19.4 90.6963 19.4V19.8ZM94.748 19.978C94.9392 20.0053 95.0316 20.0546 95.0826 20.1135C95.134 20.1728 95.1762 20.2798 95.1762 20.5H95.5762C95.5762 20.2402 95.5285 20.0172 95.3849 19.8515C95.2409 19.6854 95.0333 19.6147 94.8045 19.582L94.748 19.978ZM95.1762 20.5V41.5H95.5762V20.5H95.1762ZM95.1762 41.5C95.1762 41.7202 95.134 41.8272 95.0826 41.8865C95.0316 41.9454 94.9392 41.9947 94.748 42.022L94.8045 42.418C95.0333 42.3853 95.2409 42.3146 95.3849 42.1485C95.5285 41.9828 95.5762 41.7598 95.5762 41.5H95.1762ZM94.7492 42.0218C93.4453 42.1996 91.9596 42.2 90.5163 42.2V42.6C91.9529 42.6 93.4672 42.6003 94.8033 42.4182L94.7492 42.0218ZM90.3748 42.2586L90.2548 42.3786L90.5377 42.6614L90.6577 42.5414L90.3748 42.2586ZM90.1963 42.52V43.06H90.5963V42.52H90.1963ZM90.4029 43.2599C92.1987 43.2 95.4946 43.2 97.5963 43.2V42.8C95.4979 42.8 92.1938 42.8 90.3896 42.8601L90.4029 43.2599ZM97.5963 43.2C99.6979 43.2 102.994 43.2 104.79 43.2599L104.803 42.8601C102.999 42.8 99.6946 42.8 97.5963 42.8V43.2ZM104.996 43.06V42.52H104.596V43.06H104.996ZM104.938 42.3786L104.818 42.2586L104.535 42.5414L104.655 42.6614L104.938 42.3786ZM104.676 42.2C103.233 42.2 101.747 42.1996 100.443 42.0218L100.389 42.4182C101.725 42.6003 103.24 42.6 104.676 42.6V42.2ZM100.445 42.022C100.253 41.9947 100.161 41.9454 100.11 41.8865C100.058 41.8272 100.016 41.7202 100.016 41.5H99.6162C99.6162 41.7598 99.664 41.9828 99.8076 42.1485C99.9516 42.3146 100.159 42.3853 100.388 42.418L100.445 42.022ZM100.016 41.5V26.38H99.6162V41.5H100.016ZM100.016 26.38C100.016 25.4846 100.077 24.904 100.293 24.3957C100.508 23.8885 100.887 23.432 101.571 22.8077L101.301 22.5123C100.605 23.148 100.174 23.6515 99.9247 24.2393C99.6755 24.826 99.6162 25.4754 99.6162 26.38H100.016ZM101.567 22.8111C102.437 22.0577 103.411 21.6 104.736 21.6V21.2C103.301 21.2 102.236 21.7023 101.305 22.5089L101.567 22.8111ZM104.736 21.6C105.784 21.6 106.637 21.8616 107.27 22.3462C107.9 22.8294 108.327 23.5476 108.499 24.4958L108.893 24.4242C108.705 23.3924 108.233 22.5806 107.513 22.0288C106.795 21.4784 105.849 21.2 104.736 21.2V21.6ZM108.499 24.4958C108.737 25.8017 108.796 26.6295 108.796 28.06H109.196C109.196 26.6105 109.136 25.7583 108.893 24.4242L108.499 24.4958ZM108.855 28.2014L108.975 28.3214L109.258 28.0386L109.138 27.9186L108.855 28.2014ZM109.116 28.38H109.536V27.98H109.116V28.38ZM109.736 28.18C109.736 26.2074 109.916 22.7932 110.096 20.5157L109.697 20.4843C109.517 22.7668 109.336 26.1926 109.336 28.18H109.736ZM110.09 20.4515L110.03 20.2115L109.642 20.3085L109.702 20.5485L110.09 20.4515ZM110.011 20.1619C109.433 19.1355 108.224 18.32 106.536 18.32V18.72C108.088 18.72 109.159 19.4645 109.662 20.3581L110.011 20.1619ZM106.536 18.32C105.398 18.32 104.576 18.7048 103.596 19.44L103.836 19.76C104.776 19.0552 105.515 18.72 106.536 18.72V18.32ZM103.593 19.4425C102.204 20.5298 101.354 21.259 99.6637 23.2506L99.9688 23.5094C101.639 21.541 102.469 20.8302 103.84 19.7575L103.593 19.4425ZM115.586 39.16L115.768 39.0768L115.768 39.0762L115.586 39.16ZM114.986 35.8H115.186V35.7172L115.128 35.6586L114.986 35.8ZM114.866 35.68L115.008 35.5386L114.949 35.48H114.866V35.68ZM114.446 35.68V35.48H114.246V35.68H114.446ZM114.326 41.92L114.128 41.8991L114.124 41.9342L114.132 41.9685L114.326 41.92ZM114.386 42.16L114.192 42.2085L114.215 42.2977L114.297 42.3389L114.386 42.16ZM123.506 28.36L123.576 28.1726L123.576 28.1726L123.506 28.36ZM128.486 22.6L128.673 22.5282L128.671 22.5238L128.486 22.6ZM129.086 26.02H128.886V26.1028L128.945 26.1614L129.086 26.02ZM129.206 26.14L129.065 26.2814L129.124 26.34H129.206V26.14ZM129.626 26.14V26.34H129.826V26.14H129.626ZM129.746 20.08L129.945 20.1009L129.949 20.0658L129.94 20.0315L129.746 20.08ZM129.686 19.84L129.88 19.7915L129.864 19.7266L129.812 19.6846L129.686 19.84ZM121.346 33.1L121.277 33.2877L121.279 33.2882L121.346 33.1ZM122.366 42.68C120.383 42.68 118.967 42.2804 117.935 41.6377C116.903 40.9958 116.236 40.1004 115.768 39.0768L115.405 39.2432C115.897 40.3196 116.61 41.2842 117.723 41.9773C118.836 42.6696 120.33 43.08 122.366 43.08V42.68ZM115.768 39.0762C115.424 38.3312 115.186 37.0425 115.186 35.8H114.786C114.786 37.0775 115.029 38.4288 115.405 39.2438L115.768 39.0762ZM115.128 35.6586L115.008 35.5386L114.725 35.8214L114.845 35.9414L115.128 35.6586ZM114.866 35.48H114.446V35.88H114.866V35.48ZM114.246 35.68C114.246 37.2478 114.246 40.7726 114.128 41.8991L114.525 41.9409C114.647 40.7874 114.646 37.2322 114.646 35.68H114.246ZM114.132 41.9685L114.192 42.2085L114.58 42.1115L114.52 41.8715L114.132 41.9685ZM114.297 42.3389C116.134 43.2573 119.287 43.8 121.466 43.8V43.4C119.326 43.4 116.239 42.8627 114.476 41.9811L114.297 42.3389ZM121.466 43.8C127.356 43.8 131.326 40.3871 131.326 35.98H130.926C130.926 40.0929 127.217 43.4 121.466 43.4V43.8ZM131.326 35.98C131.326 33.9853 130.771 32.5342 129.502 31.3276C128.247 30.1346 126.308 29.1931 123.576 28.1726L123.436 28.5473C126.165 29.5669 128.036 30.4854 129.226 31.6174C130.402 32.7358 130.926 34.0747 130.926 35.98H131.326ZM123.576 28.1726C121.569 27.4236 120.318 26.7615 119.564 25.9651C118.824 25.1823 118.546 24.2493 118.546 22.9H118.146C118.146 24.3107 118.439 25.3577 119.274 26.2399C120.095 27.1085 121.424 27.7964 123.436 28.5474L123.576 28.1726ZM118.546 22.9C118.546 21.6111 119.073 20.6485 119.881 20.0038C120.694 19.355 121.802 19.02 122.966 19.02V18.62C121.731 18.62 120.529 18.975 119.632 19.6912C118.729 20.4115 118.146 21.4889 118.146 22.9H118.546ZM122.966 19.02C124.517 19.02 125.642 19.4432 126.48 20.1022C127.321 20.7637 127.889 21.6751 128.301 22.6761L128.671 22.5238C128.244 21.4849 127.641 20.5063 126.728 19.7878C125.811 19.0668 124.596 18.62 122.966 18.62V19.02ZM128.3 22.6718C128.591 23.4293 128.886 24.785 128.886 26.02H129.286C129.286 24.735 128.982 23.3307 128.673 22.5282L128.3 22.6718ZM128.945 26.1614L129.065 26.2814L129.348 25.9986L129.228 25.8786L128.945 26.1614ZM129.206 26.34H129.626V25.94H129.206V26.34ZM129.826 26.14C129.826 24.5724 129.827 21.2274 129.945 20.1009L129.548 20.0591C129.426 21.2126 129.426 24.5876 129.426 26.14H129.826ZM129.94 20.0315L129.88 19.7915L129.492 19.8885L129.552 20.1285L129.94 20.0315ZM129.812 19.6846C129.153 19.1509 128.135 18.6916 127.02 18.3655C125.902 18.0386 124.668 17.84 123.566 17.84V18.24C124.625 18.24 125.821 18.4314 126.908 18.7495C127.998 19.0684 128.96 19.5091 129.561 19.9954L129.812 19.6846ZM123.566 17.84C118.803 17.84 115.026 20.9643 115.026 25.42H115.426C115.426 21.2357 118.97 18.24 123.566 18.24V17.84ZM115.026 25.42C115.026 27.437 115.547 29.0297 116.602 30.3097C117.653 31.5852 119.22 32.5313 121.277 33.2877L121.415 32.9123C119.393 32.1687 117.899 31.2548 116.911 30.0553C115.926 28.8603 115.426 27.363 115.426 25.42H115.026ZM121.279 33.2882C123.95 34.2486 125.55 35.0179 126.485 35.8587C126.948 36.2748 127.245 36.7066 127.429 37.1875C127.613 37.6707 127.686 38.2144 127.686 38.86H128.086C128.086 38.1856 128.01 37.5893 127.802 37.045C127.594 36.4984 127.257 36.0152 126.753 35.5613C125.753 34.6621 124.083 33.8714 121.414 32.9118L121.279 33.2882ZM127.686 38.86C127.686 40.0404 127.071 40.9885 126.094 41.6493C125.114 42.3128 123.775 42.68 122.366 42.68V43.08C123.838 43.08 125.259 42.6972 126.318 41.9807C127.382 41.2615 128.086 40.1996 128.086 38.86H127.686ZM154.535 20.44L154.69 20.5671L154.698 20.5562L154.535 20.44ZM148.775 27.46L148.928 27.5884L148.929 27.5869L148.775 27.46ZM144.575 30.46H144.375V30.66H144.575V30.46ZM144.695 1.06L144.895 1.07051L144.899 0.981558L144.836 0.918574L144.695 1.06ZM144.575 0.939998L144.716 0.798575L144.654 0.735815L144.565 0.740247L144.575 0.939998ZM135.335 1.06V0.859996H135.135V1.06H135.335ZM135.335 1.54H135.135V1.62284L135.193 1.68142L135.335 1.54ZM135.455 1.66L135.313 1.80142L135.372 1.86H135.455V1.66ZM139.535 1.84L139.563 1.64187L139.556 1.6411L139.535 1.84ZM139.535 42.22L139.562 42.4182L139.563 42.418L139.535 42.22ZM135.275 42.4V42.2H135.192L135.133 42.2586L135.275 42.4ZM135.155 42.52L135.013 42.3786L134.955 42.4372V42.52H135.155ZM135.155 43.06H134.955V43.2668L135.162 43.2599L135.155 43.06ZM149.555 43.06L149.548 43.2599L149.755 43.2668V43.06H149.555ZM149.555 42.52H149.755V42.4372L149.696 42.3786L149.555 42.52ZM149.435 42.4L149.576 42.2586L149.518 42.2H149.435V42.4ZM145.175 42.22L145.147 42.418L145.148 42.4182L145.175 42.22ZM144.575 31.18V30.98H144.375V31.18H144.575ZM146.315 31.84L146.464 31.7059L146.456 31.6986L146.315 31.84ZM155.135 43L154.97 43.1133L154.98 43.1284L154.993 43.1414L155.135 43ZM155.255 43.12L155.113 43.2614L155.175 43.323L155.262 43.3199L155.255 43.12ZM165.695 43V43.2H165.895V43H165.695ZM165.695 42.52H165.895V42.4372L165.836 42.3786L165.695 42.52ZM165.575 42.4L165.716 42.2586L165.658 42.2H165.575V42.4ZM161.915 42.16L161.938 41.9612L161.931 41.9607L161.915 42.16ZM159.815 41.08L159.967 40.9498L159.963 40.9455L159.815 41.08ZM148.775 28.6L148.622 28.4715L148.515 28.5983L148.62 28.7264L148.775 28.6ZM155.315 20.8L155.468 20.9285L155.468 20.928L155.315 20.8ZM156.755 19.78L156.78 19.9785L156.782 19.9782L156.755 19.78ZM160.415 19.6V19.8H160.498L160.556 19.7414L160.415 19.6ZM160.535 19.48L160.676 19.6214L160.735 19.5628V19.48H160.535ZM160.535 18.94H160.735V18.7332L160.528 18.7401L160.535 18.94ZM150.095 18.94L150.102 18.7401L149.895 18.7332V18.94H150.095ZM150.095 19.48H149.895V19.5628L149.953 19.6214L150.095 19.48ZM150.215 19.6L150.073 19.7414L150.132 19.8H150.215V19.6ZM154.175 19.78L154.203 19.5818L154.195 19.581L154.175 19.78ZM154.38 20.3131L148.62 27.3331L148.929 27.5869L154.689 20.5669L154.38 20.3131ZM148.621 27.3316C146.459 29.9151 145.613 30.26 144.875 30.26V30.66C145.817 30.66 146.771 30.1649 148.928 27.5884L148.621 27.3316ZM144.875 30.26H144.575V30.66H144.875V30.26ZM144.775 30.46V4.96H144.375V30.46H144.775ZM144.775 4.96C144.775 3.88491 144.835 2.20878 144.895 1.07051L144.495 1.04948C144.435 2.19122 144.375 3.87508 144.375 4.96H144.775ZM144.836 0.918574L144.716 0.798575L144.433 1.08142L144.553 1.20142L144.836 0.918574ZM144.565 0.740247C142.171 0.859934 137.917 0.859996 135.335 0.859996V1.26C137.913 1.26 142.179 1.26006 144.585 1.13975L144.565 0.740247ZM135.135 1.06V1.54H135.535V1.06H135.135ZM135.193 1.68142L135.313 1.80142L135.596 1.51858L135.476 1.39858L135.193 1.68142ZM135.455 1.86C136.891 1.86 138.383 1.91987 139.514 2.0389L139.556 1.6411C138.407 1.52013 136.899 1.46 135.455 1.46V1.86ZM139.507 2.03799C139.698 2.0653 139.79 2.11462 139.841 2.17348C139.893 2.2328 139.935 2.33982 139.935 2.56H140.335C140.335 2.30017 140.287 2.0772 140.143 1.91151C139.999 1.74538 139.792 1.67469 139.563 1.64201L139.507 2.03799ZM139.935 2.56V41.5H140.335V2.56H139.935ZM139.935 41.5C139.935 41.7202 139.893 41.8272 139.841 41.8865C139.79 41.9454 139.698 41.9947 139.507 42.022L139.563 42.418C139.792 42.3853 139.999 42.3146 140.143 42.1485C140.287 41.9828 140.335 41.7598 140.335 41.5H139.935ZM139.508 42.0218C138.204 42.1996 136.718 42.2 135.275 42.2V42.6C136.712 42.6 138.226 42.6003 139.562 42.4182L139.508 42.0218ZM135.133 42.2586L135.013 42.3786L135.296 42.6614L135.416 42.5414L135.133 42.2586ZM134.955 42.52V43.06H135.355V42.52H134.955ZM135.162 43.2599C136.957 43.2 140.253 43.2 142.355 43.2V42.8C140.257 42.8 136.952 42.8 135.148 42.8601L135.162 43.2599ZM142.355 43.2C144.456 43.2 147.752 43.2 149.548 43.2599L149.562 42.8601C147.757 42.8 144.453 42.8 142.355 42.8V43.2ZM149.755 43.06V42.52H149.355V43.06H149.755ZM149.696 42.3786L149.576 42.2586L149.293 42.5414L149.413 42.6614L149.696 42.3786ZM149.435 42.2C147.992 42.2 146.506 42.1996 145.202 42.0218L145.148 42.4182C146.484 42.6003 147.998 42.6 149.435 42.6V42.2ZM145.203 42.022C145.012 41.9947 144.919 41.9454 144.868 41.8865C144.817 41.8272 144.775 41.7202 144.775 41.5H144.375C144.375 41.7598 144.423 41.9828 144.566 42.1485C144.71 42.3146 144.918 42.3853 145.147 42.418L145.203 42.022ZM144.775 41.5V31.18H144.375V41.5H144.775ZM144.575 31.38H144.995V30.98H144.575V31.38ZM144.995 31.38C145.4 31.38 145.772 31.5799 146.173 31.9814L146.456 31.6986C146.018 31.2601 145.55 30.98 144.995 30.98V31.38ZM146.166 31.9739C149.46 35.6267 152.994 40.2397 154.97 43.1133L155.3 42.8867C153.315 40.0003 149.77 35.3733 146.463 31.7061L146.166 31.9739ZM154.993 43.1414L155.113 43.2614L155.396 42.9786L155.276 42.8586L154.993 43.1414ZM155.262 43.3199C158.558 43.2 163.894 43.2 165.695 43.2V42.8C163.896 42.8 158.552 42.8 155.248 42.9201L155.262 43.3199ZM165.895 43V42.52H165.495V43H165.895ZM165.836 42.3786L165.716 42.2586L165.433 42.5414L165.553 42.6614L165.836 42.3786ZM165.575 42.2C164.385 42.2 163.493 42.1407 161.938 41.9613L161.892 42.3587C163.457 42.5393 164.365 42.6 165.575 42.6V42.2ZM161.931 41.9607C161.583 41.9316 161.263 41.8746 160.948 41.7306C160.633 41.587 160.311 41.3514 159.967 40.9498L159.663 41.2102C160.039 41.6486 160.406 41.923 160.782 42.0944C161.156 42.2654 161.527 42.3284 161.898 42.3593L161.931 41.9607ZM159.963 40.9455C156.362 36.9843 150.786 30.7486 148.93 28.4736L148.62 28.7264C150.484 31.0114 156.068 37.2557 159.667 41.2145L159.963 40.9455ZM148.928 28.7285L155.468 20.9285L155.162 20.6715L148.622 28.4715L148.928 28.7285ZM155.468 20.928C156.059 20.2193 156.377 20.0288 156.78 19.9785L156.73 19.5815C156.173 19.6512 155.771 19.9407 155.161 20.672L155.468 20.928ZM156.782 19.9782C158.087 19.8002 158.975 19.8 160.415 19.8V19.4C158.975 19.4 158.063 19.3998 156.728 19.5818L156.782 19.9782ZM160.556 19.7414L160.676 19.6214L160.393 19.3386L160.273 19.4586L160.556 19.7414ZM160.735 19.48V18.94H160.335V19.48H160.735ZM160.528 18.7401C158.732 18.8 157.835 18.8 155.735 18.8V19.2C157.835 19.2 158.738 19.2 160.542 19.1399L160.528 18.7401ZM155.735 18.8C153.634 18.8 151.898 18.8 150.102 18.7401L150.088 19.1399C151.892 19.2 153.635 19.2 155.735 19.2V18.8ZM149.895 18.94V19.48H150.295V18.94H149.895ZM149.953 19.6214L150.073 19.7414L150.356 19.4586L150.236 19.3386L149.953 19.6214ZM150.215 19.8C151.649 19.8 152.963 19.8598 154.155 19.979L154.195 19.581C152.987 19.4602 151.66 19.4 150.215 19.4V19.8ZM154.147 19.978C154.242 19.9916 154.318 20.0109 154.374 20.0341C154.431 20.0578 154.454 20.08 154.462 20.0912C154.466 20.0965 154.472 20.1052 154.467 20.1345C154.461 20.1704 154.438 20.2321 154.372 20.3238L154.698 20.5562C154.861 20.3269 154.941 20.0728 154.788 19.8588C154.721 19.7649 154.624 19.7047 154.527 19.6646C154.429 19.6241 154.318 19.5984 154.203 19.582L154.147 19.978ZM174.35 19L174.55 19.0105L174.555 18.9216L174.492 18.8586L174.35 19ZM174.23 18.88L174.372 18.7386L174.309 18.6758L174.22 18.6802L174.23 18.88ZM164.99 19V18.8H164.79V19H164.99ZM164.99 19.48H164.79V19.5628L164.849 19.6214L164.99 19.48ZM165.11 19.6L164.969 19.7414L165.027 19.8H165.11V19.6ZM169.19 19.78L169.219 19.5819L169.211 19.5811L169.19 19.78ZM169.19 42.22L169.217 42.4182L169.219 42.418L169.19 42.22ZM164.93 42.4V42.2H164.847L164.789 42.2586L164.93 42.4ZM164.81 42.52L164.669 42.3786L164.61 42.4372V42.52H164.81ZM164.81 43.06H164.61V43.2668L164.817 43.2599L164.81 43.06ZM179.21 43.06L179.204 43.2599L179.41 43.2668V43.06H179.21ZM179.21 42.52H179.41V42.4372L179.352 42.3786L179.21 42.52ZM179.09 42.4L179.232 42.2586L179.173 42.2H179.09V42.4ZM174.83 42.22L174.802 42.418L174.803 42.4182L174.83 42.22ZM175.21 10.96C175.21 9.16954 173.801 7.76 172.01 7.76V8.16C173.58 8.16 174.81 9.39046 174.81 10.96H175.21ZM172.01 7.76C170.22 7.76 168.81 9.16954 168.81 10.96H169.21C169.21 9.39046 170.441 8.16 172.01 8.16V7.76ZM168.81 10.96C168.81 12.7505 170.22 14.16 172.01 14.16V13.76C170.441 13.76 169.21 12.5295 169.21 10.96H168.81ZM172.01 14.16C173.801 14.16 175.21 12.7505 175.21 10.96H174.81C174.81 12.5295 173.58 13.76 172.01 13.76V14.16ZM174.43 22.9C174.43 21.8249 174.49 20.1488 174.55 19.0105L174.151 18.9895C174.09 20.1312 174.03 21.8151 174.03 22.9H174.43ZM174.492 18.8586L174.372 18.7386L174.089 19.0214L174.209 19.1414L174.492 18.8586ZM174.22 18.6802C171.827 18.7999 167.573 18.8 164.99 18.8V19.2C167.568 19.2 171.834 19.2001 174.24 19.0798L174.22 18.6802ZM164.79 19V19.48H165.19V19H164.79ZM164.849 19.6214L164.969 19.7414L165.252 19.4586L165.132 19.3386L164.849 19.6214ZM165.11 19.8C166.546 19.8 168.039 19.8599 169.169 19.9789L169.211 19.5811C168.062 19.4601 166.555 19.4 165.11 19.4V19.8ZM169.162 19.978C169.353 20.0053 169.446 20.0546 169.497 20.1135C169.548 20.1728 169.59 20.2798 169.59 20.5H169.99C169.99 20.2402 169.943 20.0172 169.799 19.8515C169.655 19.6854 169.447 19.6147 169.219 19.582L169.162 19.978ZM169.59 20.5V41.5H169.99V20.5H169.59ZM169.59 41.5C169.59 41.7202 169.548 41.8272 169.497 41.8865C169.446 41.9454 169.353 41.9947 169.162 42.022L169.219 42.418C169.447 42.3853 169.655 42.3146 169.799 42.1485C169.943 41.9828 169.99 41.7598 169.99 41.5H169.59ZM169.163 42.0218C167.859 42.1996 166.374 42.2 164.93 42.2V42.6C166.367 42.6 167.881 42.6003 169.217 42.4182L169.163 42.0218ZM164.789 42.2586L164.669 42.3786L164.952 42.6614L165.072 42.5414L164.789 42.2586ZM164.61 42.52V43.06H165.01V42.52H164.61ZM164.817 43.2599C166.613 43.2 169.909 43.2 172.01 43.2V42.8C169.912 42.8 166.608 42.8 164.804 42.8601L164.817 43.2599ZM172.01 43.2C174.112 43.2 177.408 43.2 179.204 43.2599L179.217 42.8601C177.413 42.8 174.109 42.8 172.01 42.8V43.2ZM179.41 43.06V42.52H179.01V43.06H179.41ZM179.352 42.3786L179.232 42.2586L178.949 42.5414L179.069 42.6614L179.352 42.3786ZM179.09 42.2C177.647 42.2 176.161 42.1996 174.857 42.0218L174.803 42.4182C176.139 42.6003 177.654 42.6 179.09 42.6V42.2ZM174.859 42.022C174.667 41.9947 174.575 41.9454 174.524 41.8865C174.473 41.8272 174.43 41.7202 174.43 41.5H174.03C174.03 41.7598 174.078 41.9828 174.222 42.1485C174.366 42.3146 174.573 42.3853 174.802 42.418L174.859 42.022ZM174.43 41.5V22.9H174.03V41.5H174.43ZM191.515 23.14H191.315V23.5808L191.647 23.2905L191.515 23.14ZM191.635 19L191.835 19.0105L191.84 18.9216L191.777 18.8586L191.635 19ZM191.515 18.88L191.657 18.7386L191.594 18.6758L191.505 18.6802L191.515 18.88ZM182.275 19V18.8H182.075V19H182.275ZM182.275 19.48H182.075V19.5628L182.134 19.6214L182.275 19.48ZM182.395 19.6L182.254 19.7414L182.313 19.8H182.395V19.6ZM186.475 19.78L186.504 19.5819L186.496 19.5811L186.475 19.78ZM186.475 42.22L186.502 42.4182L186.504 42.418L186.475 42.22ZM182.215 42.4V42.2H182.133L182.074 42.2586L182.215 42.4ZM182.095 42.52L181.954 42.3786L181.895 42.4372V42.52H182.095ZM182.095 43.06H181.895V43.2668L182.102 43.2599L182.095 43.06ZM196.495 43.06L196.489 43.2599L196.695 43.2668V43.06H196.495ZM196.495 42.52H196.695V42.4372L196.637 42.3786L196.495 42.52ZM196.375 42.4L196.517 42.2586L196.458 42.2H196.375V42.4ZM192.115 42.22L192.087 42.418L192.088 42.4182L192.115 42.22ZM193.735 22.48L193.848 22.6454L193.85 22.6442L193.735 22.48ZM203.275 43L203.076 42.9889L203.071 43.0782L203.134 43.1414L203.275 43ZM203.395 43.12L203.254 43.2614L203.316 43.323L203.403 43.3199L203.395 43.12ZM213.235 43V43.2H213.435V43H213.235ZM213.235 42.52H213.435V42.4372L213.377 42.3786L213.235 42.52ZM213.115 42.4L213.257 42.2586L213.198 42.2H213.115V42.4ZM208.435 42.22L208.449 42.02H208.435V42.22ZM196.495 19.54L196.591 19.7159L196.592 19.7152L196.495 19.54ZM191.715 23.14C191.715 22.0644 191.775 20.148 191.835 19.0105L191.436 18.9895C191.376 20.132 191.315 22.0556 191.315 23.14H191.715ZM191.777 18.8586L191.657 18.7386L191.374 19.0214L191.494 19.1414L191.777 18.8586ZM191.505 18.6802C189.112 18.7999 184.858 18.8 182.275 18.8V19.2C184.853 19.2 189.119 19.2001 191.525 19.0798L191.505 18.6802ZM182.075 19V19.48H182.475V19H182.075ZM182.134 19.6214L182.254 19.7414L182.537 19.4586L182.417 19.3386L182.134 19.6214ZM182.395 19.8C183.831 19.8 185.324 19.8599 186.455 19.9789L186.496 19.5811C185.347 19.4601 183.84 19.4 182.395 19.4V19.8ZM186.447 19.978C186.638 20.0053 186.731 20.0546 186.782 20.1135C186.833 20.1728 186.875 20.2798 186.875 20.5H187.275C187.275 20.2402 187.228 20.0172 187.084 19.8515C186.94 19.6854 186.733 19.6147 186.504 19.582L186.447 19.978ZM186.875 20.5V41.5H187.275V20.5H186.875ZM186.875 41.5C186.875 41.7202 186.833 41.8272 186.782 41.8865C186.731 41.9454 186.638 41.9947 186.447 42.022L186.504 42.418C186.733 42.3853 186.94 42.3146 187.084 42.1485C187.228 41.9828 187.275 41.7598 187.275 41.5H186.875ZM186.448 42.0218C185.144 42.1996 183.659 42.2 182.215 42.2V42.6C183.652 42.6 185.166 42.6003 186.502 42.4182L186.448 42.0218ZM182.074 42.2586L181.954 42.3786L182.237 42.6614L182.357 42.5414L182.074 42.2586ZM181.895 42.52V43.06H182.295V42.52H181.895ZM182.102 43.2599C183.898 43.2 187.194 43.2 189.295 43.2V42.8C187.197 42.8 183.893 42.8 182.089 42.8601L182.102 43.2599ZM189.295 43.2C191.397 43.2 194.693 43.2 196.489 43.2599L196.502 42.8601C194.698 42.8 191.394 42.8 189.295 42.8V43.2ZM196.695 43.06V42.52H196.295V43.06H196.695ZM196.637 42.3786L196.517 42.2586L196.234 42.5414L196.354 42.6614L196.637 42.3786ZM196.375 42.2C194.932 42.2 193.446 42.1996 192.142 42.0218L192.088 42.4182C193.424 42.6003 194.939 42.6 196.375 42.6V42.2ZM192.144 42.022C191.953 41.9947 191.86 41.9454 191.809 41.8865C191.758 41.8272 191.715 41.7202 191.715 41.5H191.315C191.315 41.7598 191.363 41.9828 191.507 42.1485C191.651 42.3146 191.858 42.3853 192.087 42.418L192.144 42.022ZM191.715 41.5V26.2H191.315V41.5H191.715ZM191.715 26.2C191.715 25.2354 191.89 24.6028 192.23 24.0904C192.574 23.571 193.099 23.1547 193.848 22.6454L193.623 22.3146C192.872 22.8253 192.287 23.279 191.896 23.8696C191.5 24.4672 191.315 25.1846 191.315 26.2H191.715ZM193.85 22.6442C195.201 21.704 196.422 21.3 197.815 21.3V20.9C196.329 20.9 195.03 21.336 193.621 22.3158L193.85 22.6442ZM197.815 21.3C199.599 21.3 200.932 21.8826 201.824 22.96C202.721 24.0437 203.195 25.6563 203.195 27.76H203.595C203.595 25.6037 203.11 23.8863 202.132 22.705C201.149 21.5174 199.692 20.9 197.815 20.9V21.3ZM203.195 27.76V39.1H203.595V27.76H203.195ZM203.195 39.1C203.195 40.415 203.136 41.911 203.076 42.9889L203.475 43.0111C203.535 41.929 203.595 40.425 203.595 39.1H203.195ZM203.134 43.1414L203.254 43.2614L203.537 42.9786L203.417 42.8586L203.134 43.1414ZM203.403 43.3199C206.698 43.2 211.435 43.2 213.235 43.2V42.8C211.436 42.8 206.693 42.8 203.388 42.9201L203.403 43.3199ZM213.435 43V42.52H213.035V43H213.435ZM213.377 42.3786L213.257 42.2586L212.974 42.5414L213.094 42.6614L213.377 42.3786ZM213.115 42.2C211.921 42.2 210.185 42.1402 208.449 42.0205L208.422 42.4195C210.165 42.5398 211.91 42.6 213.115 42.6V42.2ZM208.435 42.02C208.264 42.02 208.181 41.9727 208.133 41.9139C208.078 41.8462 208.035 41.7215 208.035 41.5H207.635C207.635 41.7585 207.683 41.9938 207.823 42.1661C207.97 42.3473 208.187 42.42 208.435 42.42V42.02ZM208.035 41.5V26.92H207.635V41.5H208.035ZM208.035 26.92C208.035 24.3158 207.476 22.162 206.219 20.6568C204.957 19.145 203.018 18.32 200.335 18.32V18.72C202.933 18.72 204.744 19.515 205.912 20.9132C207.085 22.318 207.635 24.3642 207.635 26.92H208.035ZM200.335 18.32C198.979 18.32 197.626 18.6899 196.399 19.3648L196.592 19.7152C197.765 19.0701 199.052 18.72 200.335 18.72V18.32ZM196.4 19.3641C194.944 20.153 193.312 21.3026 191.384 22.9895L191.647 23.2905C193.559 21.6174 195.167 20.487 196.591 19.7159L196.4 19.3641ZM217.715 39.16L217.897 39.0768L217.897 39.0762L217.715 39.16ZM217.115 35.8H217.315V35.7172L217.257 35.6586L217.115 35.8ZM216.995 35.68L217.137 35.5386L217.078 35.48H216.995V35.68ZM216.575 35.68V35.48H216.375V35.68H216.575ZM216.455 41.92L216.256 41.8991L216.253 41.9342L216.261 41.9685L216.455 41.92ZM216.515 42.16L216.321 42.2085L216.344 42.2977L216.426 42.3389L216.515 42.16ZM225.635 28.36L225.705 28.1726L225.705 28.1726L225.635 28.36ZM230.615 22.6L230.802 22.5282L230.8 22.5238L230.615 22.6ZM231.215 26.02H231.015V26.1028L231.074 26.1614L231.215 26.02ZM231.335 26.14L231.194 26.2814L231.252 26.34H231.335V26.14ZM231.755 26.14V26.34H231.955V26.14H231.755ZM231.875 20.08L232.074 20.1009L232.078 20.0658L232.069 20.0315L231.875 20.08ZM231.815 19.84L232.009 19.7915L231.993 19.7266L231.941 19.6846L231.815 19.84ZM223.475 33.1L223.406 33.2877L223.408 33.2882L223.475 33.1ZM224.495 42.68C222.512 42.68 221.096 42.2804 220.063 41.6377C219.032 40.9958 218.365 40.1004 217.897 39.0768L217.533 39.2432C218.025 40.3196 218.739 41.2842 219.852 41.9773C220.964 42.6696 222.459 43.08 224.495 43.08V42.68ZM217.897 39.0762C217.553 38.3312 217.315 37.0425 217.315 35.8H216.915C216.915 37.0775 217.158 38.4288 217.534 39.2438L217.897 39.0762ZM217.257 35.6586L217.137 35.5386L216.854 35.8214L216.974 35.9414L217.257 35.6586ZM216.995 35.48H216.575V35.88H216.995V35.48ZM216.375 35.68C216.375 37.2478 216.375 40.7726 216.256 41.8991L216.654 41.9409C216.776 40.7874 216.775 37.2322 216.775 35.68H216.375ZM216.261 41.9685L216.321 42.2085L216.709 42.1115L216.649 41.8715L216.261 41.9685ZM216.426 42.3389C218.263 43.2573 221.416 43.8 223.595 43.8V43.4C221.454 43.4 218.368 42.8627 216.605 41.9811L216.426 42.3389ZM223.595 43.8C229.485 43.8 233.455 40.3871 233.455 35.98H233.055C233.055 40.0929 229.345 43.4 223.595 43.4V43.8ZM233.455 35.98C233.455 33.9853 232.9 32.5342 231.631 31.3276C230.376 30.1346 228.437 29.1931 225.705 28.1726L225.565 28.5473C228.294 29.5669 230.165 30.4854 231.355 31.6174C232.531 32.7358 233.055 34.0747 233.055 35.98H233.455ZM225.705 28.1726C223.698 27.4236 222.446 26.7615 221.693 25.9651C220.953 25.1823 220.675 24.2493 220.675 22.9H220.275C220.275 24.3107 220.568 25.3577 221.403 26.2399C222.224 27.1085 223.553 27.7964 225.565 28.5474L225.705 28.1726ZM220.675 22.9C220.675 21.6111 221.202 20.6485 222.01 20.0038C222.823 19.355 223.931 19.02 225.095 19.02V18.62C223.859 18.62 222.658 18.975 221.761 19.6912C220.858 20.4115 220.275 21.4889 220.275 22.9H220.675ZM225.095 19.02C226.646 19.02 227.771 19.4432 228.609 20.1022C229.45 20.7637 230.018 21.6751 230.43 22.6761L230.8 22.5238C230.372 21.4849 229.77 20.5063 228.856 19.7878C227.94 19.0668 226.725 18.62 225.095 18.62V19.02ZM230.429 22.6718C230.72 23.4293 231.015 24.785 231.015 26.02H231.415C231.415 24.735 231.111 23.3307 230.802 22.5282L230.429 22.6718ZM231.074 26.1614L231.194 26.2814L231.477 25.9986L231.357 25.8786L231.074 26.1614ZM231.335 26.34H231.755V25.94H231.335V26.34ZM231.955 26.14C231.955 24.5724 231.956 21.2274 232.074 20.1009L231.676 20.0591C231.555 21.2126 231.555 24.5876 231.555 26.14H231.955ZM232.069 20.0315L232.009 19.7915L231.621 19.8885L231.681 20.1285L232.069 20.0315ZM231.941 19.6846C231.282 19.1509 230.264 18.6916 229.149 18.3655C228.031 18.0386 226.797 17.84 225.695 17.84V18.24C226.753 18.24 227.949 18.4314 229.037 18.7495C230.127 19.0684 231.089 19.5091 231.689 19.9954L231.941 19.6846ZM225.695 17.84C220.932 17.84 217.155 20.9643 217.155 25.42H217.555C217.555 21.2357 221.099 18.24 225.695 18.24V17.84ZM217.155 25.42C217.155 27.437 217.676 29.0297 218.731 30.3097C219.782 31.5852 221.349 32.5313 223.406 33.2877L223.544 32.9123C221.522 32.1687 220.028 31.2548 219.04 30.0553C218.055 28.8603 217.555 27.363 217.555 25.42H217.155ZM223.408 33.2882C226.079 34.2486 227.679 35.0179 228.614 35.8587C229.077 36.2748 229.374 36.7066 229.558 37.1875C229.742 37.6707 229.815 38.2144 229.815 38.86H230.215C230.215 38.1856 230.139 37.5893 229.931 37.045C229.723 36.4984 229.386 36.0152 228.882 35.5613C227.882 34.6621 226.212 33.8714 223.543 32.9118L223.408 33.2882ZM229.815 38.86C229.815 40.0404 229.2 40.9885 228.223 41.6493C227.243 42.3128 225.904 42.68 224.495 42.68V43.08C225.967 43.08 227.388 42.6972 228.447 41.9807C229.51 41.2615 230.215 40.1996 230.215 38.86H229.815Z" fill="#FEF5ED"/>
</svg>
